<?xml version="1.0" encoding="UTF-8" standalone="no"?>
<svg
   xmlns:dc="http://purl.org/dc/elements/1.1/"
   xmlns:cc="http://creativecommons.org/ns#"
   xmlns:rdf="http://www.w3.org/1999/02/22-rdf-syntax-ns#"
   xmlns:svg="http://www.w3.org/2000/svg"
   xmlns="http://www.w3.org/2000/svg"
   xmlns:sodipodi="http://sodipodi.sourceforge.net/DTD/sodipodi-0.dtd"
   xmlns:inkscape="http://www.inkscape.org/namespaces/inkscape"
   width="48"
   height="48"
   viewBox="0 0 12.7 12.7"
   version="1.1"
   id="svg1573"
   inkscape:version="1.0 (4035a4fb49, 2020-05-01)"
   sodipodi:docname="home_filled_light.svg">
  <defs
     id="defs1567" />
  <sodipodi:namedview
     id="base"
     pagecolor="#7f7f7f"
     bordercolor="#666666"
     borderopacity="1.0"
     inkscape:pageopacity="0"
     inkscape:pageshadow="2"
     inkscape:zoom="16"
     inkscape:cx="11.845129"
     inkscape:cy="19.051346"
     inkscape:document-units="px"
     inkscape:current-layer="layer1"
     inkscape:document-rotation="0"
     showgrid="true"
     units="px"
     inkscape:window-width="2560"
     inkscape:window-height="1387"
     inkscape:window-x="-8"
     inkscape:window-y="162"
     inkscape:window-maximized="1"
     showguides="true"
     inkscape:guide-bbox="true">
    <inkscape:grid
       type="xygrid"
       id="grid2223" />
    <sodipodi:guide
       position="2.1166667,10.583333"
       orientation="1,0"
       id="guide2225" />
    <sodipodi:guide
       position="10.583333,8.73125"
       orientation="1,0"
       id="guide2227" />
    <sodipodi:guide
       position="2.6458333,10.583333"
       orientation="0,-1"
       id="guide2229" />
    <sodipodi:guide
       position="10.31875,2.1166667"
       orientation="0,-1"
       id="guide2231" />
  </sodipodi:namedview>
  <metadata
     id="metadata1570">
    <rdf:RDF>
      <cc:Work
         rdf:about="">
        <dc:format>image/svg+xml</dc:format>
        <dc:type
           rdf:resource="http://purl.org/dc/dcmitype/StillImage" />
        <dc:title></dc:title>
      </cc:Work>
    </rdf:RDF>
  </metadata>
  <g
     inkscape:label="Calque 1"
     inkscape:groupmode="layer"
     id="layer1">
    <circle
       style="fill:#00df77;fill-opacity:1;stroke:none;stroke-width:1.05833;stroke-linecap:round;stroke-linejoin:round;stroke-miterlimit:4;stroke-dasharray:none;stroke-opacity:1;stop-color:#000000"
       id="path2237"
       cx="-15.841928"
       cy="3.4726562"
       r="6.3499999" />
    <path
       transform="scale(0.26458333)"
       d="M 24 10 L 10 22 L 11 24 L 14 24 L 14 38 L 18 38 L 18 24 L 30 24 L 30 38 L 34 38 L 34 24 L 37 24 L 38 22 L 24 10 z "
       style="fill:#0f1311;stroke:#0f1311;stroke-width:3.99999;stroke-linecap:round;stroke-linejoin:round;stroke-miterlimit:4;stroke-dasharray:none;stroke-opacity:1;fill-opacity:1"
       id="path2233-7" />
    <path
       transform="scale(0.26458333)"
       d="M 20 24 C 18.892 24 18 24.892 18 26 L 18 36 C 16.892 36 16 36.892001 16 38 C 16 39.108003 16.892 40 18 40 L 30 40 C 31.108 40 32 39.108003 32 38 C 32 36.892001 31.108 36 30 36 L 30 26 C 30 24.892 29.108 24 28 24 L 20 24 z M 22 26 L 26 26 C 27.108 26 28 26.892 28 28 L 28 34 C 28 35.108 27.108 36 26 36 L 22 36 C 20.892 36 20 35.108 20 34 L 20 28 C 20 26.892 20.892 26 22 26 z "
       style="fill:#0f1311;fill-opacity:1;stroke:none;stroke-width:3.99999;stroke-linecap:round;stroke-linejoin:round;stroke-opacity:1;stop-color:#000000"
       id="rect3039" />
  </g>
</svg>
