<?xml version="1.0" encoding="UTF-8" standalone="no"?>
<svg
   sodipodi:docname="image.svg"
   inkscape:version="1.2.2 (732a01da63, 2022-12-09)"
   id="svg1573"
   version="1.1"
   viewBox="0 0 12.7 12.7"
   height="48"
   width="48"
   xmlns:inkscape="http://www.inkscape.org/namespaces/inkscape"
   xmlns:sodipodi="http://sodipodi.sourceforge.net/DTD/sodipodi-0.dtd"
   xmlns="http://www.w3.org/2000/svg"
   xmlns:svg="http://www.w3.org/2000/svg"
   xmlns:rdf="http://www.w3.org/1999/02/22-rdf-syntax-ns#"
   xmlns:cc="http://creativecommons.org/ns#"
   xmlns:dc="http://purl.org/dc/elements/1.1/">
  <defs
     id="defs1567" />
  <sodipodi:namedview
     inkscape:guide-bbox="true"
     showguides="true"
     inkscape:window-maximized="1"
     inkscape:window-y="161"
     inkscape:window-x="-9"
     inkscape:window-height="1373"
     inkscape:window-width="2560"
     units="px"
     showgrid="true"
     inkscape:document-rotation="0"
     inkscape:current-layer="layer1"
     inkscape:document-units="px"
     inkscape:cy="21.677242"
     inkscape:cx="32.968854"
     inkscape:zoom="22.627417"
     inkscape:pageshadow="2"
     inkscape:pageopacity="0"
     borderopacity="1.0"
     bordercolor="#666666"
     pagecolor="#7f7f7f"
     id="base"
     inkscape:showpageshadow="0"
     inkscape:pagecheckerboard="0"
     inkscape:deskcolor="#7f7f7f">
    <inkscape:grid
       id="grid2223"
       type="xygrid" />
    <sodipodi:guide
       id="guide2225"
       orientation="1,0"
       position="2.1166667,10.583333"
       inkscape:locked="false" />
    <sodipodi:guide
       id="guide2227"
       orientation="1,0"
       position="10.583333,8.73125"
       inkscape:locked="false" />
    <sodipodi:guide
       id="guide2229"
       orientation="0,-1"
       position="2.6458333,10.583333"
       inkscape:locked="false" />
    <sodipodi:guide
       id="guide2231"
       orientation="0,-1"
       position="10.31875,2.1166667"
       inkscape:locked="false" />
  </sodipodi:namedview>
  <metadata
     id="metadata1570">
    <rdf:RDF>
      <cc:Work
         rdf:about="">
        <dc:format>image/svg+xml</dc:format>
        <dc:type
           rdf:resource="http://purl.org/dc/dcmitype/StillImage" />
        <dc:title />
      </cc:Work>
    </rdf:RDF>
  </metadata>
  <g
     id="layer1"
     inkscape:groupmode="layer"
     inkscape:label="Calque 1">
    <g
       id="path2595" />
    <path
       id="rect37367"
       style="fill:#000000;fill-opacity:0.995968;stroke-width:0.687388;stroke-linecap:round;stroke-linejoin:bevel;stop-color:#000000"
       d="M 3.96875 2.1166667 C 2.9426979 2.1166667 2.1166667 2.9426979 2.1166667 3.96875 L 2.1166667 8.73125 C 2.1166667 9.7573021 2.9426979 10.583333 3.96875 10.583333 L 8.73125 10.583333 C 9.7573021 10.583333 10.583333 9.7573021 10.583333 8.73125 L 10.583333 3.96875 C 10.583333 2.9426979 9.7573021 2.1166667 8.73125 2.1166667 L 3.96875 2.1166667 z M 3.96875 2.8577067 L 8.73125 2.8577067 C 9.3468813 2.8577067 9.8422933 3.3531187 9.8422933 3.96875 L 9.8422933 8.73125 C 9.8422933 9.3468813 9.3468813 9.8422933 8.73125 9.8422933 L 3.96875 9.8422933 C 3.3531187 9.8422933 2.8577067 9.3468813 2.8577067 8.73125 L 2.8577067 3.96875 C 2.8577067 3.3531187 3.3531187 2.8577067 3.96875 2.8577067 z M 7.6992716 4.2333333 A 0.55562502 0.55562502 0 0 0 7.14375 4.788855 A 0.55562502 0.55562502 0 0 0 7.6992716 5.3443766 A 0.55562502 0.55562502 0 0 0 8.2547933 4.788855 A 0.55562502 0.55562502 0 0 0 7.6992716 4.2333333 z M 5.5257609 5.4508301 A 0.37045371 0.37045371 0 0 0 5.3516113 5.5118083 L 3.7635946 6.5701416 A 0.37045371 0.37045371 0 0 0 3.5977132 6.8786499 L 3.5977132 8.7302165 A 0.37045371 0.37045371 0 0 0 3.96875 9.10177 L 8.7302165 9.10177 A 0.37045371 0.37045371 0 0 0 9.10177 8.7302165 L 9.10177 6.8786499 A 0.37045371 0.37045371 0 0 0 8.937439 6.5701416 L 8.1426554 6.0409749 A 0.37045371 0.37045371 0 0 0 7.7323446 6.0409749 L 7.1447835 6.4337158 L 5.7619222 5.5118083 A 0.37045371 0.37045371 0 0 0 5.5257609 5.4508301 z " />
  </g>
</svg>
