<?xml version="1.0" encoding="UTF-8" standalone="no"?>
<svg
   sodipodi:docname="profile_filled.svg"
   inkscape:version="1.2.2 (732a01da63, 2022-12-09)"
   id="svg1573"
   version="1.1"
   viewBox="0 0 12.7 12.7"
   height="48"
   width="48"
   xmlns:inkscape="http://www.inkscape.org/namespaces/inkscape"
   xmlns:sodipodi="http://sodipodi.sourceforge.net/DTD/sodipodi-0.dtd"
   xmlns="http://www.w3.org/2000/svg"
   xmlns:svg="http://www.w3.org/2000/svg"
   xmlns:rdf="http://www.w3.org/1999/02/22-rdf-syntax-ns#"
   xmlns:cc="http://creativecommons.org/ns#"
   xmlns:dc="http://purl.org/dc/elements/1.1/">
  <defs
     id="defs1567" />
  <sodipodi:namedview
     inkscape:guide-bbox="true"
     showguides="true"
     inkscape:window-maximized="1"
     inkscape:window-y="161"
     inkscape:window-x="-9"
     inkscape:window-height="1373"
     inkscape:window-width="2560"
     units="px"
     showgrid="true"
     inkscape:document-rotation="0"
     inkscape:current-layer="layer1"
     inkscape:document-units="px"
     inkscape:cy="22.71875"
     inkscape:cx="16.375"
     inkscape:zoom="16"
     inkscape:pageshadow="2"
     inkscape:pageopacity="0"
     borderopacity="1.0"
     bordercolor="#666666"
     pagecolor="#7f7f7f"
     id="base"
     inkscape:showpageshadow="0"
     inkscape:pagecheckerboard="0"
     inkscape:deskcolor="#7f7f7f">
    <inkscape:grid
       id="grid2223"
       type="xygrid" />
    <sodipodi:guide
       id="guide2225"
       orientation="1,0"
       position="2.1166667,9.525"
       inkscape:locked="false" />
    <sodipodi:guide
       id="guide2227"
       orientation="1,0"
       position="10.583333,1.3229167"
       inkscape:locked="false" />
    <sodipodi:guide
       id="guide2229"
       orientation="0,-1"
       position="2.6458333,10.583333"
       inkscape:locked="false" />
    <sodipodi:guide
       id="guide2231"
       orientation="0,-1"
       position="11.641667,2.1166667"
       inkscape:locked="false" />
  </sodipodi:namedview>
  <metadata
     id="metadata1570">
    <rdf:RDF>
      <cc:Work
         rdf:about="">
        <dc:format>image/svg+xml</dc:format>
        <dc:type
           rdf:resource="http://purl.org/dc/dcmitype/StillImage" />
      </cc:Work>
    </rdf:RDF>
  </metadata>
  <g
     id="layer1"
     inkscape:groupmode="layer"
     inkscape:label="Calque 1">
    <g
       id="path66704"
       style="opacity:1">
      <path
         id="path70308"
         style="color:#000000;fill:#000000;stroke-width:0.740833;stroke-linecap:round;stroke-linejoin:round;-inkscape-stroke:none"
         d="M 6.3494832 2.1171834 C 5.1848727 2.1171834 4.2322998 3.0676893 4.2322998 4.2322998 C 4.2322998 5.0374763 4.6877591 5.7411062 5.3536784 6.0988525 C 5.3526637 6.0990982 5.3515922 6.0991229 5.3505778 6.0993693 C 5.6550076 6.2622818 5.9975137 6.3494832 6.3494832 6.3494832 C 6.7008223 6.3494832 7.0437956 6.2627529 7.3483887 6.1004028 C 7.3473321 6.1001462 7.346345 6.0996251 7.3452881 6.0993693 C 8.0113221 5.7416582 8.4666667 5.0375612 8.4666667 4.2322998 C 8.4666667 3.0676893 7.5140939 2.1171834 6.3494832 2.1171834 z M 4.4968831 6.4078776 C 3.0890972 7.0961532 2.1171834 8.5432096 2.1171834 10.212813 A 0.37041667 0.37041667 0 0 0 2.1264852 10.292912 A 0.37041649 0.37041649 0 0 0 2.1306193 10.306864 A 0.37041667 0.37041667 0 0 0 2.1497396 10.363708 A 0.37041649 0.37041649 0 0 0 2.166276 10.394198 A 0.37041667 0.37041667 0 0 0 2.1890137 10.430371 A 0.37041649 0.37041649 0 0 0 2.2112345 10.45776 A 0.37041667 0.37041667 0 0 0 2.2427572 10.489282 A 0.37041649 0.37041649 0 0 0 2.2675618 10.509436 A 0.37041667 0.37041667 0 0 0 2.3104533 10.536825 A 0.37041649 0.37041649 0 0 0 2.3326742 10.549227 A 0.37041667 0.37041667 0 0 0 2.3921021 10.569897 A 0.37041649 0.37041649 0 0 0 2.4070882 10.574548 A 0.37041667 0.37041667 0 0 0 2.4861532 10.58385 L 10.212813 10.58385 A 0.37041667 0.37041667 0 0 0 10.265523 10.580233 A 0.37041667 0.37041667 0 0 0 10.268107 10.579716 A 0.37041667 0.37041667 0 0 0 10.295496 10.574548 A 0.37041649 0.37041649 0 0 0 10.317716 10.568864 A 0.37041667 0.37041667 0 0 0 10.322367 10.567314 A 0.37041649 0.37041649 0 0 0 10.342521 10.560596 A 0.37041667 0.37041667 0 0 0 10.348206 10.558529 A 0.37041649 0.37041649 0 0 0 10.35234 10.556462 A 0.37041667 0.37041667 0 0 0 10.374044 10.54716 A 0.37041667 0.37041667 0 0 0 10.398332 10.534241 A 0.37041667 0.37041667 0 0 0 10.420036 10.520805 A 0.37041667 0.37041667 0 0 0 10.422103 10.519771 A 0.37041649 0.37041649 0 0 0 10.435539 10.509953 A 0.37041667 0.37041667 0 0 0 10.450008 10.498067 A 0.37041649 0.37041649 0 0 0 10.456209 10.493416 A 0.37041667 0.37041667 0 0 0 10.459827 10.490316 A 0.37041649 0.37041649 0 0 0 10.47533 10.47533 A 0.37041649 0.37041649 0 0 0 10.490316 10.459827 A 0.37041649 0.37041649 0 0 0 10.493416 10.456209 A 0.37041667 0.37041667 0 0 0 10.507369 10.438639 A 0.37041649 0.37041649 0 0 0 10.509953 10.435539 A 0.37041667 0.37041667 0 0 0 10.519771 10.422103 A 0.37041649 0.37041649 0 0 0 10.520805 10.420036 A 0.37041667 0.37041667 0 0 0 10.534241 10.398332 A 0.37041667 0.37041667 0 0 0 10.54716 10.374044 A 0.37041667 0.37041667 0 0 0 10.556462 10.35234 A 0.37041667 0.37041667 0 0 0 10.558529 10.348206 A 0.37041649 0.37041649 0 0 0 10.560596 10.342521 A 0.37041667 0.37041667 0 0 0 10.567314 10.322367 A 0.37041649 0.37041649 0 0 0 10.568864 10.317716 A 0.37041667 0.37041667 0 0 0 10.574548 10.295496 A 0.37041667 0.37041667 0 0 0 10.579716 10.268107 A 0.37041649 0.37041649 0 0 0 10.580233 10.265523 A 0.37041667 0.37041667 0 0 0 10.58385 10.212813 A 0.37041667 0.37041667 0 0 0 10.58385 10.212297 A 0.37041667 0.37041667 0 0 0 10.58385 10.21178 A 0.37041667 0.37041667 0 0 0 10.58385 10.211263 A 0.37041667 0.37041667 0 0 0 10.58385 10.210746 A 0.37041667 0.37041667 0 0 0 10.58385 10.210229 A 0.37041667 0.37041667 0 0 0 10.58385 10.209713 A 0.37041667 0.37041667 0 0 0 10.58385 10.209196 A 0.37041667 0.37041667 0 0 0 10.58385 10.208679 A 0.37041667 0.37041667 0 0 0 10.58385 10.208162 A 0.37041667 0.37041667 0 0 0 10.58385 10.207646 A 0.37041667 0.37041667 0 0 0 10.58385 10.207129 A 0.37041667 0.37041667 0 0 0 10.58385 10.206612 A 0.37041667 0.37041667 0 0 0 10.58385 10.206095 A 0.37041667 0.37041667 0 0 0 10.58385 10.205579 A 0.37041667 0.37041667 0 0 0 10.58385 10.205062 A 0.37041667 0.37041667 0 0 0 10.58385 10.204545 A 0.37041667 0.37041667 0 0 0 10.58385 10.204028 A 0.37041667 0.37041667 0 0 0 10.58385 10.203512 A 0.37041667 0.37041667 0 0 0 10.58385 10.202995 A 0.37041667 0.37041667 0 0 0 10.58385 10.202478 A 0.37041667 0.37041667 0 0 0 10.58385 10.201961 A 0.37041667 0.37041667 0 0 0 10.58385 10.201444 A 0.37041667 0.37041667 0 0 0 10.58385 10.200928 A 0.37041667 0.37041667 0 0 0 10.58385 10.200411 A 0.37041667 0.37041667 0 0 0 10.58385 10.199894 A 0.37041667 0.37041667 0 0 0 10.58385 10.199377 A 0.37041667 0.37041667 0 0 0 10.583333 10.190592 A 0.37041667 0.37041667 0 0 0 10.583333 10.190076 A 0.37041667 0.37041667 0 0 0 10.583333 10.189559 A 0.37041667 0.37041667 0 0 0 10.583333 10.189042 A 0.37041667 0.37041667 0 0 0 10.583333 10.188525 A 0.37041667 0.37041667 0 0 0 10.583333 10.188009 A 0.37041667 0.37041667 0 0 0 10.583333 10.187492 A 0.37041667 0.37041667 0 0 0 10.583333 10.186975 A 0.37041667 0.37041667 0 0 0 10.583333 10.186458 C 10.573132 8.5283688 9.6034462 7.0936164 8.2031169 6.4089111 C 7.6880106 6.8476009 7.0307351 7.0915568 6.3494832 7.0915568 C 5.6677423 7.0915568 5.0118379 6.8471617 4.4968831 6.4078776 z " />
    </g>
    <g
       id="path67434"
       style="opacity:0.40492958" />
  </g>
</svg>
