<?xml version="1.0" encoding="UTF-8" standalone="no"?>
<svg
   xmlns:dc="http://purl.org/dc/elements/1.1/"
   xmlns:cc="http://creativecommons.org/ns#"
   xmlns:rdf="http://www.w3.org/1999/02/22-rdf-syntax-ns#"
   xmlns:svg="http://www.w3.org/2000/svg"
   xmlns="http://www.w3.org/2000/svg"
   xmlns:sodipodi="http://sodipodi.sourceforge.net/DTD/sodipodi-0.dtd"
   xmlns:inkscape="http://www.inkscape.org/namespaces/inkscape"
   sodipodi:docname="profile_dark.svg"
   inkscape:version="1.0 (4035a4fb49, 2020-05-01)"
   id="svg1573"
   version="1.1"
   viewBox="0 0 12.7 12.7"
   height="48"
   width="48">
  <defs
     id="defs1567" />
  <sodipodi:namedview
     inkscape:guide-bbox="true"
     showguides="true"
     inkscape:window-maximized="1"
     inkscape:window-y="162"
     inkscape:window-x="-8"
     inkscape:window-height="1387"
     inkscape:window-width="2560"
     units="px"
     showgrid="true"
     inkscape:document-rotation="0"
     inkscape:current-layer="layer1"
     inkscape:document-units="px"
     inkscape:cy="26.76542"
     inkscape:cx="11.350878"
     inkscape:zoom="16"
     inkscape:pageshadow="2"
     inkscape:pageopacity="0"
     borderopacity="1.0"
     bordercolor="#666666"
     pagecolor="#7f7f7f"
     id="base">
    <inkscape:grid
       id="grid2223"
       type="xygrid" />
    <sodipodi:guide
       id="guide2225"
       orientation="1,0"
       position="2.1166667,9.525" />
    <sodipodi:guide
       id="guide2227"
       orientation="1,0"
       position="10.583333,1.3229167" />
    <sodipodi:guide
       id="guide2229"
       orientation="0,-1"
       position="2.6458333,10.583333" />
    <sodipodi:guide
       id="guide2231"
       orientation="0,-1"
       position="11.641667,2.1166667" />
  </sodipodi:namedview>
  <metadata
     id="metadata1570">
    <rdf:RDF>
      <cc:Work
         rdf:about="">
        <dc:format>image/svg+xml</dc:format>
        <dc:type
           rdf:resource="http://purl.org/dc/dcmitype/StillImage" />
        <dc:title></dc:title>
      </cc:Work>
    </rdf:RDF>
  </metadata>
  <g
     id="layer1"
     inkscape:groupmode="layer"
     inkscape:label="Calque 1">
    <circle
       r="6.3499999"
       cy="3.4726562"
       cx="-15.841928"
       id="path2237"
       style="fill:#00df77;fill-opacity:1;stroke:none;stroke-width:1.05833;stroke-linecap:round;stroke-linejoin:round;stroke-miterlimit:4;stroke-dasharray:none;stroke-opacity:1;stop-color:#000000" />
    <path
       transform="scale(0.26458333)"
       d="M 23.984375 8 A 8.0000001 7.999999 0 0 0 16 16 A 8.0000001 7.999999 0 0 0 24 24 A 8.0000001 7.999999 0 0 0 32 16 A 8.0000001 7.999999 0 0 0 24 8 A 8.0000001 7.999999 0 0 0 23.984375 8 z M 23.939453 12 A 3.9999999 3.9999999 0 0 1 24 12 A 3.9999999 3.9999999 0 0 1 28 16 A 3.9999999 3.9999999 0 0 1 24 20 A 3.9999999 3.9999999 0 0 1 20 16 A 3.9999999 3.9999999 0 0 1 23.939453 12 z "
       style="fill:#ffffff;fill-opacity:1;stroke:none;stroke-width:3.99999;stroke-linecap:round;stroke-linejoin:round;stroke-miterlimit:4;stroke-dasharray:none;stroke-opacity:1;stop-color:#000000"
       id="path2323" />
    <path
       transform="scale(0.26458333)"
       d="M 23.972656 22 A 15.999999 16.000002 0 0 0 8 38 L 12.019531 38 A 12 12.000002 0 0 1 24 26 A 12 12.000002 0 0 1 24.019531 26 A 12 12.000002 0 0 1 36.019531 38 L 40 38 A 15.999999 16.000002 0 0 0 24 22 A 15.999999 16.000002 0 0 0 23.972656 22 z "
       style="fill:#ffffff;fill-opacity:1;stroke:none;stroke-width:3.99999;stroke-linecap:round;stroke-linejoin:round;stroke-miterlimit:4;stroke-dasharray:none;stroke-opacity:1;stop-color:#000000"
       id="path2390" />
    <rect
       rx="0.52916664"
       y="9.5249996"
       x="2.1166666"
       height="1.0583333"
       width="8.4666662"
       id="rect2397"
       style="fill:#ffffff;fill-opacity:1;stroke:none;stroke-width:1.05833;stroke-linecap:round;stroke-linejoin:round;stroke-miterlimit:4;stroke-dasharray:none;stroke-opacity:1;stop-color:#000000" />
  </g>
</svg>
