<?xml version="1.0" encoding="UTF-8" standalone="no"?>
<svg
   xmlns:dc="http://purl.org/dc/elements/1.1/"
   xmlns:cc="http://creativecommons.org/ns#"
   xmlns:rdf="http://www.w3.org/1999/02/22-rdf-syntax-ns#"
   xmlns:svg="http://www.w3.org/2000/svg"
   xmlns="http://www.w3.org/2000/svg"
   xmlns:sodipodi="http://sodipodi.sourceforge.net/DTD/sodipodi-0.dtd"
   xmlns:inkscape="http://www.inkscape.org/namespaces/inkscape"
   width="48"
   height="48"
   viewBox="0 0 12.7 12.7"
   version="1.1"
   id="svg1573"
   inkscape:version="1.0 (4035a4fb49, 2020-05-01)"
   sodipodi:docname="settings_filled_dark.svg">
  <defs
     id="defs1567" />
  <sodipodi:namedview
     id="base"
     pagecolor="#7f7f7f"
     bordercolor="#666666"
     borderopacity="1.0"
     inkscape:pageopacity="0"
     inkscape:pageshadow="2"
     inkscape:zoom="8"
     inkscape:cx="19.567887"
     inkscape:cy="22.684847"
     inkscape:document-units="px"
     inkscape:current-layer="layer1"
     inkscape:document-rotation="0"
     showgrid="true"
     units="px"
     inkscape:window-width="2560"
     inkscape:window-height="1387"
     inkscape:window-x="-8"
     inkscape:window-y="162"
     inkscape:window-maximized="1"
     showguides="true"
     inkscape:guide-bbox="true">
    <inkscape:grid
       type="xygrid"
       id="grid2223" />
    <sodipodi:guide
       position="2.1166667,10.583333"
       orientation="1,0"
       id="guide2225" />
    <sodipodi:guide
       position="10.583333,8.73125"
       orientation="1,0"
       id="guide2227" />
    <sodipodi:guide
       position="2.6458333,10.583333"
       orientation="0,-1"
       id="guide2229" />
    <sodipodi:guide
       position="10.31875,2.1166667"
       orientation="0,-1"
       id="guide2231" />
  </sodipodi:namedview>
  <metadata
     id="metadata1570">
    <rdf:RDF>
      <cc:Work
         rdf:about="">
        <dc:format>image/svg+xml</dc:format>
        <dc:type
           rdf:resource="http://purl.org/dc/dcmitype/StillImage" />
        <dc:title></dc:title>
      </cc:Work>
    </rdf:RDF>
  </metadata>
  <g
     inkscape:label="Calque 1"
     inkscape:groupmode="layer"
     id="layer1">
    <circle
       style="fill:#00df77;fill-opacity:1;stroke:none;stroke-width:1.05833;stroke-linecap:round;stroke-linejoin:round;stroke-miterlimit:4;stroke-dasharray:none;stroke-opacity:1;stop-color:#000000"
       id="path2237"
       cx="-15.841928"
       cy="3.4726562"
       r="6.3499999" />
    <path
       transform="scale(0.26458333)"
       d="M 20 10 L 20 12.6875 A 12 12 0 0 0 16.203125 14.878906 L 13.875 13.535156 L 9.875 20.464844 L 12.201172 21.808594 A 12 12 0 0 0 12 24 A 12 12 0 0 0 12.201172 26.191406 L 9.875 27.535156 L 13.875 34.464844 L 16.203125 33.121094 A 12 12 0 0 0 20 35.314453 L 20 38 L 28 38 L 28 35.3125 A 12 12 0 0 0 31.796875 33.121094 L 34.125 34.464844 L 38.125 27.535156 L 35.798828 26.191406 A 12 12 0 0 0 36 24 A 12 12 0 0 0 35.798828 21.808594 L 38.125 20.464844 L 34.125 13.535156 L 31.796875 14.878906 A 12 12 0 0 0 28 12.685547 L 28 10 L 20 10 z M 24 16 A 8.0000058 8.0000058 0 0 1 32 24 A 8.0000058 8.0000058 0 0 1 24 32 A 8.0000058 8.0000058 0 0 1 16 24 A 8.0000058 8.0000058 0 0 1 24 16 z "
       style="fill:#ffffff;fill-opacity:1;stroke:#ffffff;stroke-width:3.99999;stroke-linecap:round;stroke-linejoin:round;stroke-miterlimit:4;stroke-dasharray:none;stroke-opacity:1"
       id="path3136-6" />
  </g>
</svg>
