<?xml version="1.0" encoding="UTF-8" standalone="no"?>
<svg
   sodipodi:docname="delete.svg"
   inkscape:version="1.2.2 (732a01da63, 2022-12-09)"
   id="svg8"
   version="1.1"
   viewBox="0 0 4.2333333 4.2333335"
   height="16"
   width="16"
   xmlns:inkscape="http://www.inkscape.org/namespaces/inkscape"
   xmlns:sodipodi="http://sodipodi.sourceforge.net/DTD/sodipodi-0.dtd"
   xmlns="http://www.w3.org/2000/svg"
   xmlns:svg="http://www.w3.org/2000/svg"
   xmlns:rdf="http://www.w3.org/1999/02/22-rdf-syntax-ns#"
   xmlns:cc="http://creativecommons.org/ns#"
   xmlns:dc="http://purl.org/dc/elements/1.1/">
  <defs
     id="defs2" />
  <sodipodi:namedview
     inkscape:window-maximized="1"
     inkscape:window-y="161"
     inkscape:window-x="-9"
     inkscape:window-height="1373"
     inkscape:window-width="2560"
     inkscape:guide-bbox="true"
     showguides="true"
     units="px"
     showgrid="true"
     inkscape:document-rotation="0"
     inkscape:current-layer="layer1"
     inkscape:document-units="px"
     inkscape:cy="6.8611455"
     inkscape:cx="6.0104076"
     inkscape:zoom="45.254834"
     inkscape:pageshadow="2"
     inkscape:pageopacity="0"
     borderopacity="1.0"
     bordercolor="#666666"
     pagecolor="#7f7f7f"
     id="base"
     inkscape:showpageshadow="0"
     inkscape:pagecheckerboard="0"
     inkscape:deskcolor="#7f7f7f">
    <inkscape:grid
       id="grid1402"
       type="xygrid" />
    <sodipodi:guide
       id="guide2057"
       orientation="1,0"
       position="1.5875,2.6458334"
       inkscape:locked="false" />
    <sodipodi:guide
       id="guide2059"
       orientation="1,0"
       position="2.6458333,2.6458334"
       inkscape:locked="false" />
  </sodipodi:namedview>
  <metadata
     id="metadata5">
    <rdf:RDF>
      <cc:Work
         rdf:about="">
        <dc:format>image/svg+xml</dc:format>
        <dc:type
           rdf:resource="http://purl.org/dc/dcmitype/StillImage" />
      </cc:Work>
    </rdf:RDF>
  </metadata>
  <g
     id="layer1"
     inkscape:groupmode="layer"
     inkscape:label="Calque 1">
    <path
       id="path2035"
       style="color:#000000;fill:#000000;stroke-linecap:square;-inkscape-stroke:none;fill-opacity:1"
       d="M 1.3223999,0 1.1523845,0.11110433 0.93689373,0.60926515 c -0.31229791,0 -0.62459582,0 -0.93689373,0 v 0.36948649 c 0.11920031,0 0.23840061,0 0.35760092,0 L 0.60926515,4.0622844 0.79271648,4.2322999 H 3.4395834 L 3.6251018,4.0622844 3.874699,0.97875164 H 4.2322999 V 0.60926515 H 3.2969564 L 3.0799154,0.11110433 2.9098999,0 Z M 1.4453898,0.37103679 H 2.7889771 L 2.8933635,0.60926515 H 1.3410034 Z M 0.72915447,0.97875164 H 3.5036622 L 3.2695679,3.8633301 H 0.96479901 Z M 1.4024984,1.4024984 c 0,0.5815116 0,1.1916346 0,1.6934367 h 0.3710368 c 0,-0.6193436 0,-1.1341153 0,-1.6934367 z m 1.0583333,0 c 0,0.6193992 0,1.133986 0,1.6934367 h 0.3694865 c 0,-0.5814929 0,-1.1916381 0,-1.6934367 z"
       sodipodi:nodetypes="ccccccccccccccccccccccccccccccccccccc" />
  </g>
</svg>
