<?xml version="1.0" encoding="UTF-8" standalone="no"?>
<svg
   sodipodi:docname="full_logo_accent.svg"
   inkscape:version="1.2.2 (732a01da63, 2022-12-09)"
   id="svg1573"
   version="1.1"
   viewBox="0 0 84.666665 84.666669"
   height="320"
   width="320"
   xmlns:inkscape="http://www.inkscape.org/namespaces/inkscape"
   xmlns:sodipodi="http://sodipodi.sourceforge.net/DTD/sodipodi-0.dtd"
   xmlns="http://www.w3.org/2000/svg"
   xmlns:svg="http://www.w3.org/2000/svg"
   xmlns:rdf="http://www.w3.org/1999/02/22-rdf-syntax-ns#"
   xmlns:cc="http://creativecommons.org/ns#"
   xmlns:dc="http://purl.org/dc/elements/1.1/">
  <defs
     id="defs1567" />
  <sodipodi:namedview
     inkscape:window-maximized="1"
     inkscape:window-y="162"
     inkscape:window-x="-8"
     inkscape:window-height="1387"
     inkscape:window-width="2560"
     units="px"
     showgrid="false"
     inkscape:document-rotation="0"
     inkscape:current-layer="layer1"
     inkscape:document-units="px"
     inkscape:cy="160.35714"
     inkscape:cx="132.85714"
     inkscape:zoom="2.8"
     inkscape:pageshadow="2"
     inkscape:pageopacity="0"
     borderopacity="1.0"
     bordercolor="#666666"
     pagecolor="#7f7f7f"
     id="base"
     inkscape:showpageshadow="0"
     inkscape:pagecheckerboard="0"
     inkscape:deskcolor="#7f7f7f" />
  <metadata
     id="metadata1570">
    <rdf:RDF>
      <cc:Work
         rdf:about="">
        <dc:format>image/svg+xml</dc:format>
        <dc:type
           rdf:resource="http://purl.org/dc/dcmitype/StillImage" />
        <dc:title />
      </cc:Work>
    </rdf:RDF>
  </metadata>
  <g
     id="layer1"
     inkscape:groupmode="layer"
     inkscape:label="Calque 1">
    <path
       id="path835-3"
       style="fill:#000000;fill-opacity:1;stroke:none;stroke-width:0.370423;stroke-linecap:square;stroke-linejoin:bevel;stroke-opacity:1;stop-color:#000000"
       d="M 42.273906 0 L 42.270805 0.00051676432 A 32.308197 32.306578 0 0 0 42.055831 0.001550293 A 32.308197 32.306578 0 0 0 41.841374 0.0041341146 A 32.308197 32.306578 0 0 0 41.411426 0.013435872 A 32.308197 32.306578 0 0 0 40.768054 0.03824056 A 32.308197 32.306578 0 0 0 40.33914 0.062011719 A 32.308197 32.306578 0 0 0 39.696285 0.10800374 A 32.308197 32.306578 0 0 0 39.482861 0.1260905 A 32.308197 32.306578 0 0 0 39.268404 0.14572754 A 32.308197 32.306578 0 0 0 38.841557 0.18965251 A 32.308197 32.306578 0 0 0 38.628133 0.21342367 A 32.308197 32.306578 0 0 0 38.201803 0.26561686 A 32.308197 32.306578 0 0 0 37.988896 0.2940389 A 32.308197 32.306578 0 0 0 37.563599 0.35398356 A 32.308197 32.306578 0 0 0 37.139852 0.42064616 A 32.308197 32.306578 0 0 0 36.927979 0.45578613 A 32.308197 32.306578 0 0 0 36.505265 0.5302002 A 32.308197 32.306578 0 0 0 36.293909 0.56999105 A 32.308197 32.306578 0 0 0 35.662423 0.69659831 A 32.308197 32.306578 0 0 0 35.24281 0.7880656 A 32.308197 32.306578 0 0 0 35.033004 0.83612468 A 32.308197 32.306578 0 0 0 34.615458 0.93586019 A 32.308197 32.306578 0 0 0 34.406686 0.98805339 A 32.308197 32.306578 0 0 0 34.198946 1.0412801 A 32.308197 32.306578 0 0 0 33.991207 1.0960571 A 32.308197 32.306578 0 0 0 33.577279 1.2097453 A 32.308197 32.306578 0 0 0 33.164384 1.3286011 A 32.308197 32.306578 0 0 0 32.959229 1.3906128 A 32.308197 32.306578 0 0 0 32.753556 1.4531413 A 32.308197 32.306578 0 0 0 32.548918 1.5177368 A 32.308197 32.306578 0 0 0 32.344279 1.5833659 A 32.308197 32.306578 0 0 0 30.725256 2.1580078 A 32.308197 32.306578 0 0 0 30.524752 2.2355225 A 32.308197 32.306578 0 0 0 30.126327 2.3952026 A 32.308197 32.306578 0 0 0 29.729452 2.5600505 A 32.308197 32.306578 0 0 0 29.532048 2.6447998 A 32.308197 32.306578 0 0 0 29.13879 2.8179159 A 32.308197 32.306578 0 0 0 28.942936 2.9062826 A 32.308197 32.306578 0 0 0 28.748116 2.9956828 A 32.308197 32.306578 0 0 0 28.16624 3.2726685 A 32.308197 32.306578 0 0 0 27.78125 3.4633545 A 32.308197 32.306578 0 0 0 26.455233 4.1718384 A 32.308197 32.306578 0 0 0 26.268164 4.2777751 A 32.308197 32.306578 0 0 0 25.897127 4.4937826 A 32.308197 32.306578 0 0 0 25.712643 4.6033366 A 32.308197 32.306578 0 0 0 25.163839 4.9407837 A 32.308197 32.306578 0 0 0 24.981938 5.0555054 A 32.308197 32.306578 0 0 0 24.80107 5.1712606 A 32.308197 32.306578 0 0 0 24.621236 5.2885661 A 32.308197 32.306578 0 0 0 23.909135 5.7686402 A 32.308197 32.306578 0 0 0 23.557735 6.0161703 A 32.308197 32.306578 0 0 0 23.209953 6.2683513 A 32.308197 32.306578 0 0 0 22.865271 6.5246664 A 32.308197 32.306578 0 0 0 21.522201 7.5959188 A 32.308197 32.306578 0 0 0 21.195606 7.8749715 A 32.308197 32.306578 0 0 0 21.033858 8.0160482 A 32.308197 32.306578 0 0 0 20.712431 8.3013021 A 32.308197 32.306578 0 0 0 20.395138 8.5906901 A 32.308197 32.306578 0 0 0 19.315617 9.6371379 A 32.308197 32.306578 0 0 0 19.01641 9.9451294 A 32.308197 32.306578 0 0 0 18.575094 10.414351 A 32.308197 32.306578 0 0 0 18.210775 10.816911 A 32.308197 32.306578 0 0 0 18.143079 10.892358 A 32.308197 32.306578 0 0 0 18.143079 10.892875 A 32.308197 32.306578 0 0 0 18.001485 11.054106 A 32.308197 32.306578 0 0 0 17.721399 11.37915 A 32.308197 32.306578 0 0 0 17.699695 11.404989 A 32.308197 32.306578 0 0 0 17.582906 11.543481 A 32.308197 32.306578 0 0 0 17.582906 11.543998 A 32.308197 32.306578 0 0 0 17.44493 11.708846 A 32.308197 32.306578 0 0 0 17.03927 12.209074 A 32.308197 32.306578 0 0 0 16.385563 13.060702 A 32.308197 32.306578 0 0 0 16.385563 13.061218 A 32.308197 32.306578 0 0 0 16.131832 13.40745 A 32.308197 32.306578 0 0 0 16.131832 13.407967 A 32.308197 32.306578 0 0 0 15.882752 13.757817 A 32.308197 32.306578 0 0 0 15.638322 14.111283 A 32.308197 32.306578 0 0 0 15.39906 14.467334 A 32.308197 32.306578 0 0 0 15.163932 14.827002 A 32.308197 32.306578 0 0 0 14.708663 15.55564 A 32.308197 32.306578 0 0 0 14.708663 15.556156 A 32.308197 32.306578 0 0 0 14.489038 15.924609 A 32.308197 32.306578 0 0 0 14.489038 15.925126 A 32.308197 32.306578 0 0 0 14.380518 16.110128 A 32.308197 32.306578 0 0 0 14.167611 16.483232 A 32.308197 32.306578 0 0 0 14.062708 16.670817 A 32.308197 32.306578 0 0 0 14.062708 16.671334 A 32.308197 32.306578 0 0 0 13.857552 17.048055 A 32.308197 32.306578 0 0 0 13.691154 17.362765 A 32.308197 32.306578 0 0 0 13.657048 17.427877 A 32.308197 32.306578 0 0 0 13.657048 17.428394 A 32.308197 32.306578 0 0 0 13.271541 18.195789 A 32.308197 32.306578 0 0 0 12.996106 18.778182 A 32.308197 32.306578 0 0 0 12.39821 20.157426 A 32.308197 32.306578 0 0 0 12.39821 20.157943 A 32.308197 32.306578 0 0 0 12.239563 20.556885 A 32.308197 32.306578 0 0 0 12.192021 20.679875 A 32.308197 32.306578 0 0 0 12.162048 20.756873 A 32.308197 32.306578 0 0 0 12.162048 20.757389 A 32.308197 32.306578 0 0 0 11.725383 21.969719 A 32.308197 32.306578 0 0 0 11.590507 22.377446 A 32.308197 32.306578 0 0 0 11.461316 22.78724 A 32.308197 32.306578 0 0 0 11.337293 23.198584 A 32.308197 32.306578 0 0 0 11.218953 23.611479 A 32.308197 32.306578 0 0 0 10.947135 24.650175 A 32.308197 32.306578 0 0 0 10.947135 24.650692 A 32.308197 32.306578 0 0 0 10.937317 24.690483 A 32.308197 32.306578 0 0 0 10.848433 25.068237 A 32.308197 32.306578 0 0 0 10.666532 25.907463 A 32.308197 32.306578 0 0 0 10.666532 25.907979 A 32.308197 32.306578 0 0 0 10.625191 26.118303 A 32.308197 32.306578 0 0 0 10.625191 26.118819 A 32.308197 32.306578 0 0 0 10.584367 26.329142 A 32.308197 32.306578 0 0 0 10.584367 26.329659 A 32.308197 32.306578 0 0 0 10.186975 29.092281 A 32.308197 32.306578 0 0 0 10.147184 29.519645 A 32.308197 32.306578 0 0 0 10.112561 29.948043 A 32.308197 32.306578 0 0 0 10.072253 30.590898 A 32.308197 32.306578 0 0 0 10.072253 30.591415 A 32.308197 32.306578 0 0 0 10.061401 30.805355 A 32.308197 32.306578 0 0 0 10.061401 30.805872 A 32.308197 32.306578 0 0 0 10.0521 31.019812 A 32.308197 32.306578 0 0 0 10.0521 31.020329 A 32.308197 32.306578 0 0 0 10.032463 31.664217 A 32.308197 32.306578 0 0 0 10.027295 32.093648 A 32.308197 32.306578 0 0 0 10.027295 32.094165 A 32.308197 32.306578 0 0 0 10.026261 32.308106 A 32.308197 32.306578 0 0 0 10.027295 32.492074 A 32.308197 32.306578 0 0 0 10.027295 32.538582 A 32.308197 32.306578 0 0 0 10.028845 32.676559 A 32.308197 32.306578 0 0 0 10.029362 32.757691 A 32.308197 32.306578 0 0 0 10.031429 32.860527 A 32.308197 32.306578 0 0 0 10.03453 33.014006 A 32.308197 32.306578 0 0 0 10.038664 33.187122 A 32.308197 32.306578 0 0 0 10.041764 33.292025 A 32.308197 32.306578 0 0 0 10.046415 33.443437 A 32.308197 32.306578 0 0 0 10.054683 33.657894 A 32.308197 32.306578 0 0 0 10.061918 33.822742 A 32.308197 32.306578 0 0 0 10.071737 34.021179 A 32.308197 32.306578 0 0 0 10.072253 34.027381 A 32.308197 32.306578 0 0 0 10.084656 34.239771 A 32.308197 32.306578 0 0 0 10.098092 34.452678 A 32.308197 32.306578 0 0 0 10.098092 34.455261 A 32.308197 32.306578 0 0 0 10.113078 34.668685 A 32.308197 32.306578 0 0 0 10.129614 34.882625 A 32.308197 32.306578 0 0 0 10.147184 35.097083 A 32.308197 32.306578 0 0 0 10.166821 35.310506 A 32.308197 32.306578 0 0 0 10.181807 35.465019 A 32.308197 32.306578 0 0 0 10.193176 35.583875 A 32.308197 32.306578 0 0 0 10.193693 35.588526 A 32.308197 32.306578 0 0 0 10.21488 35.786446 A 32.308197 32.306578 0 0 0 10.215914 35.799365 A 32.308197 32.306578 0 0 0 10.232967 35.951294 A 32.308197 32.306578 0 0 0 10.253121 36.12441 A 32.308197 32.306578 0 0 0 10.262939 36.205025 A 32.308197 32.306578 0 0 0 10.265523 36.225696 A 32.308197 32.306578 0 0 0 10.284127 36.378141 A 32.308197 32.306578 0 0 0 10.305831 36.541439 A 32.308197 32.306578 0 0 0 10.318233 36.637557 A 32.308197 32.306578 0 0 0 10.324434 36.681999 A 32.308197 32.306578 0 0 0 10.347172 36.844263 A 32.308197 32.306578 0 0 0 10.349756 36.864417 A 32.308197 32.306578 0 0 0 10.371977 37.016345 A 32.308197 32.306578 0 0 0 10.399365 37.198246 A 32.308197 32.306578 0 0 0 10.412284 37.281445 A 32.308197 32.306578 0 0 0 10.414351 37.297982 A 32.308197 32.306578 0 0 0 10.443807 37.482467 A 32.308197 32.306578 0 0 0 10.462411 37.592538 A 32.308197 32.306578 0 0 0 10.475846 37.675737 A 32.308197 32.306578 0 0 0 10.49445 37.782707 A 32.308197 32.306578 0 0 0 10.517188 37.912415 A 32.308197 32.306578 0 0 0 10.523389 37.949622 A 32.308197 32.306578 0 0 0 10.553878 38.118087 A 32.308197 32.306578 0 0 0 10.567314 38.190951 A 32.308197 32.306578 0 0 0 10.590568 38.317041 A 32.308197 32.306578 0 0 0 10.612272 38.428145 A 32.308197 32.306578 0 0 0 10.633976 38.539767 A 32.308197 32.306578 0 0 0 10.644312 38.594544 A 32.308197 32.306578 0 0 0 10.677901 38.760942 A 32.308197 32.306578 0 0 0 10.683069 38.786263 A 32.308197 32.306578 0 0 0 10.717175 38.952145 A 32.308197 32.306578 0 0 0 10.746114 39.085986 A 32.308197 32.306578 0 0 0 10.763167 39.164018 A 32.308197 32.306578 0 0 0 10.775053 39.219312 A 32.308197 32.306578 0 0 0 10.807092 39.367623 A 32.308197 32.306578 0 0 0 10.839132 39.507149 A 32.308197 32.306578 0 0 0 10.860319 39.598617 A 32.308197 32.306578 0 0 0 10.863936 39.613086 A 32.308197 32.306578 0 0 0 10.911995 39.817208 A 32.308197 32.306578 0 0 0 10.955404 39.996008 A 32.308197 32.306578 0 0 0 10.98641 40.122616 A 32.308197 32.306578 0 0 0 11.006047 40.200647 A 32.308197 32.306578 0 0 0 11.031368 40.301416 A 32.308197 32.306578 0 0 0 11.058757 40.40787 A 32.308197 32.306578 0 0 0 11.091313 40.531376 A 32.308197 32.306578 0 0 0 11.116634 40.628011 A 32.308197 32.306578 0 0 0 11.134204 40.693124 A 32.308197 32.306578 0 0 0 11.170894 40.830066 A 32.308197 32.306578 0 0 0 11.203451 40.945821 A 32.308197 32.306578 0 0 0 11.227222 41.031087 A 32.308197 32.306578 0 0 0 11.245308 41.097233 A 32.308197 32.306578 0 0 0 11.347628 41.451734 A 32.308197 32.306578 0 0 0 11.387935 41.585576 A 32.308197 32.306578 0 0 0 11.408606 41.653272 A 32.308197 32.306578 0 0 0 11.426176 41.711666 A 32.308197 32.306578 0 0 0 11.473718 41.867729 A 32.308197 32.306578 0 0 0 11.505241 41.967981 A 32.308197 32.306578 0 0 0 11.538831 42.074951 A 32.308197 32.306578 0 0 0 11.553817 42.121977 A 32.308197 32.306578 0 0 0 11.603426 42.27804 A 32.308197 32.306578 0 0 0 11.629264 42.355554 A 32.308197 32.306578 0 0 0 11.666471 42.469243 A 32.308197 32.306578 0 0 0 11.703678 42.58138 A 32.308197 32.306578 0 0 0 11.738302 42.684216 A 32.308197 32.306578 0 0 0 11.762073 42.752946 A 32.308197 32.306578 0 0 0 11.809615 42.891439 A 32.308197 32.306578 0 0 0 11.829252 42.94725 A 32.308197 32.306578 0 0 0 11.876794 43.084192 A 32.308197 32.306578 0 0 0 11.918136 43.199431 A 32.308197 32.306578 0 0 0 11.946558 43.278495 A 32.308197 32.306578 0 0 0 11.980664 43.372547 A 32.308197 32.306578 0 0 0 12.024072 43.491402 A 32.308197 32.306578 0 0 0 12.062313 43.593205 A 32.308197 32.306578 0 0 0 12.098486 43.690357 A 32.308197 32.306578 0 0 0 12.121741 43.752368 A 32.308197 32.306578 0 0 0 12.179618 43.902747 A 32.308197 32.306578 0 0 0 12.184786 43.916183 A 32.308197 32.306578 0 0 0 12.24008 44.059326 A 32.308197 32.306578 0 0 0 12.303125 44.219007 A 32.308197 32.306578 0 0 0 12.334648 44.299105 A 32.308197 32.306578 0 0 0 12.351184 44.340963 A 32.308197 32.306578 0 0 0 12.418363 44.507361 A 32.308197 32.306578 0 0 0 12.430249 44.535783 A 32.308197 32.306578 0 0 0 12.504146 44.71355 A 32.308197 32.306578 0 0 0 12.567708 44.865479 A 32.308197 32.306578 0 0 0 12.64729 45.053064 A 32.308197 32.306578 0 0 0 12.698967 45.17192 A 32.308197 32.306578 0 0 0 12.757361 45.306279 A 32.308197 32.306578 0 0 0 12.844177 45.502649 A 32.308197 32.306578 0 0 0 12.92996 45.692818 A 32.308197 32.306578 0 0 0 12.955798 45.749146 A 32.308197 32.306578 0 0 0 13.002824 45.850948 A 32.308197 32.306578 0 0 0 13.081372 46.019413 A 32.308197 32.306578 0 0 0 13.090674 46.03905 A 32.308197 32.306578 0 0 0 13.135632 46.135685 A 32.308197 32.306578 0 0 0 13.204362 46.278829 A 32.308197 32.306578 0 0 0 13.217281 46.305701 A 32.308197 32.306578 0 0 0 13.28291 46.442127 A 32.308197 32.306578 0 0 0 13.326318 46.530493 A 32.308197 32.306578 0 0 0 13.384196 46.648316 A 32.308197 32.306578 0 0 0 13.428121 46.736682 A 32.308197 32.306578 0 0 0 13.47618 46.832284 A 32.308197 32.306578 0 0 0 13.524756 46.928402 A 32.308197 32.306578 0 0 0 13.573332 47.024003 A 32.308197 32.306578 0 0 0 13.611056 47.097384 A 32.308197 32.306578 0 0 0 13.675651 47.221924 A 32.308197 32.306578 0 0 0 13.685986 47.242595 A 32.308197 32.306578 0 0 0 13.7573 47.377987 A 32.308197 32.306578 0 0 0 13.832231 47.51958 A 32.308197 32.306578 0 0 0 13.883907 47.616215 A 32.308197 32.306578 0 0 0 13.895276 47.636369 A 32.308197 32.306578 0 0 0 13.986226 47.804317 A 32.308197 32.306578 0 0 0 13.996045 47.821887 A 32.308197 32.306578 0 0 0 14.093713 47.999138 A 32.308197 32.306578 0 0 0 14.192932 48.176904 A 32.308197 32.306578 0 0 0 14.232206 48.245634 A 32.308197 32.306578 0 0 0 14.283366 48.335551 A 32.308197 32.306578 0 0 0 14.35933 48.467843 A 32.308197 32.306578 0 0 0 14.387236 48.516419 A 32.308197 32.306578 0 0 0 14.468368 48.654911 A 32.308197 32.306578 0 0 0 14.505058 48.717957 A 32.308197 32.306578 0 0 0 14.541748 48.780485 A 32.308197 32.306578 0 0 0 14.629081 48.92673 A 32.308197 32.306578 0 0 0 14.633215 48.933447 A 32.308197 32.306578 0 0 0 14.72985 49.093128 A 32.308197 32.306578 0 0 0 14.786694 49.186662 A 32.308197 32.306578 0 0 0 14.834753 49.264693 A 32.308197 32.306578 0 0 0 14.88488 49.345309 A 32.308197 32.306578 0 0 0 14.966012 49.475533 A 32.308197 32.306578 0 0 0 14.970146 49.481734 A 32.308197 32.306578 0 0 0 15.082284 49.658985 A 32.308197 32.306578 0 0 0 15.194421 49.834684 A 32.308197 32.306578 0 0 0 15.222327 49.877576 A 32.308197 32.306578 0 0 0 15.296224 49.990747 A 32.308197 32.306578 0 0 0 15.365987 50.096684 A 32.308197 32.306578 0 0 0 15.409912 50.163347 A 32.308197 32.306578 0 0 0 15.481226 50.270834 A 32.308197 32.306578 0 0 0 15.542204 50.361784 A 32.308197 32.306578 0 0 0 15.581995 50.420178 A 32.308197 32.306578 0 0 0 15.652275 50.524048 A 32.308197 32.306578 0 0 0 15.673979 50.555571 A 32.308197 32.306578 0 0 0 15.760795 50.681661 A 32.308197 32.306578 0 0 0 15.871899 50.841858 A 32.308197 32.306578 0 0 0 15.890503 50.868213 A 32.308197 32.306578 0 0 0 15.963367 50.971049 A 32.308197 32.306578 0 0 0 16.035197 51.072852 A 32.308197 32.306578 0 0 0 16.063619 51.111609 A 32.308197 32.306578 0 0 0 16.149402 51.231498 A 32.308197 32.306578 0 0 0 16.248621 51.368441 A 32.308197 32.306578 0 0 0 16.262057 51.386528 A 32.308197 32.306578 0 0 0 16.331303 51.480579 A 32.308197 32.306578 0 0 0 16.42277 51.603569 A 32.308197 32.306578 0 0 0 16.551445 51.775651 A 32.308197 32.306578 0 0 0 16.644462 51.898124 A 32.308197 32.306578 0 0 0 16.729211 52.008712 A 32.308197 32.306578 0 0 0 16.812927 52.116716 A 32.308197 32.306578 0 0 0 16.934367 52.272779 A 32.308197 32.306578 0 0 0 16.982943 52.334273 A 32.308197 32.306578 0 0 0 17.05529 52.425224 A 32.308197 32.306578 0 0 0 17.078027 52.45468 A 32.308197 32.306578 0 0 0 17.174146 52.574569 A 32.308197 32.306578 0 0 0 17.309538 52.740967 A 32.308197 32.306578 0 0 0 17.404106 52.856205 A 32.308197 32.306578 0 0 0 17.445447 52.906848 A 32.308197 32.306578 0 0 0 17.485238 52.954391 A 32.308197 32.306578 0 0 0 17.607711 53.100635 A 32.308197 32.306578 0 0 0 17.653703 53.154895 A 32.308197 32.306578 0 0 0 17.748788 53.26755 A 32.308197 32.306578 0 0 0 17.761707 53.282536 A 32.308197 32.306578 0 0 0 17.861959 53.398808 A 32.308197 32.306578 0 0 0 17.995801 53.553837 A 32.308197 32.306578 0 0 0 18.006653 53.566756 A 32.308197 32.306578 0 0 0 18.095536 53.667009 A 32.308197 32.306578 0 0 0 18.163232 53.744523 A 32.308197 32.306578 0 0 0 18.184937 53.768294 A 32.308197 32.306578 0 0 0 18.287256 53.883016 A 32.308197 32.306578 0 0 0 18.32808 53.928491 A 32.308197 32.306578 0 0 0 18.430916 54.04218 A 32.308197 32.306578 0 0 0 18.52135 54.141398 A 32.308197 32.306578 0 0 0 18.617468 54.245785 A 32.308197 32.306578 0 0 0 18.722371 54.357923 A 32.308197 32.306578 0 0 0 18.848462 54.492281 A 32.308197 32.306578 0 0 0 18.883602 54.529488 A 32.308197 32.306578 0 0 0 18.993156 54.644727 A 32.308197 32.306578 0 0 0 19.022612 54.675216 A 32.308197 32.306578 0 0 0 19.166789 54.824561 A 32.308197 32.306578 0 0 0 19.280477 54.94135 A 32.308197 32.306578 0 0 0 19.352824 55.01473 A 32.308197 32.306578 0 0 0 19.381246 55.043152 A 32.308197 32.306578 0 0 0 19.489767 55.152189 A 32.308197 32.306578 0 0 0 19.598804 55.26071 A 32.308197 32.306578 0 0 0 19.627226 55.289132 A 32.308197 32.306578 0 0 0 19.700606 55.361479 A 32.308197 32.306578 0 0 0 19.817395 55.475167 A 32.308197 32.306578 0 0 0 19.96674 55.619861 A 32.308197 32.306578 0 0 0 19.997229 55.6488 A 32.308197 32.306578 0 0 0 20.112468 55.758354 A 32.308197 32.306578 0 0 0 20.149675 55.793494 A 32.308197 32.306578 0 0 0 20.284033 55.919584 A 32.308197 32.306578 0 0 0 20.396171 56.024488 A 32.308197 32.306578 0 0 0 20.501074 56.120606 A 32.308197 32.306578 0 0 0 20.599776 56.211039 A 32.308197 32.306578 0 0 0 20.759456 56.3547 A 32.308197 32.306578 0 0 0 20.897433 56.478723 A 32.308197 32.306578 0 0 0 20.974947 56.546419 A 32.308197 32.306578 0 0 0 21.075716 56.635303 A 32.308197 32.306578 0 0 0 21.088119 56.646155 A 32.308197 32.306578 0 0 0 21.243148 56.780514 A 32.308197 32.306578 0 0 0 21.374406 56.893168 A 32.308197 32.306578 0 0 0 21.487061 56.988253 A 32.308197 32.306578 0 0 0 21.541321 57.034245 A 32.308197 32.306578 0 0 0 21.57026 57.058533 A 32.308197 32.306578 0 0 0 21.688082 57.156718 A 32.308197 32.306578 0 0 0 21.78575 57.23785 A 32.308197 32.306578 0 0 0 21.901506 57.332418 A 32.308197 32.306578 0 0 0 22.06842 57.46781 A 32.308197 32.306578 0 0 0 22.219832 57.589767 A 32.308197 32.306578 0 0 0 22.308199 57.659013 A 32.308197 32.306578 0 0 0 22.369694 57.707589 A 32.308197 32.306578 0 0 0 22.404317 57.734977 A 32.308197 32.306578 0 0 0 22.52524 57.829545 A 32.308197 32.306578 0 0 0 22.633244 57.912744 A 32.308197 32.306578 0 0 0 22.744348 57.997494 A 32.308197 32.306578 0 0 0 22.866305 58.090511 A 32.308197 32.306578 0 0 0 23.038387 58.219186 A 32.308197 32.306578 0 0 0 23.161377 58.310653 A 32.308197 32.306578 0 0 0 23.255945 58.379899 A 32.308197 32.306578 0 0 0 23.268347 58.389201 A 32.308197 32.306578 0 0 0 23.434229 58.509607 A 32.308197 32.306578 0 0 0 23.577372 58.612443 A 32.308197 32.306578 0 0 0 23.670907 58.678589 A 32.308197 32.306578 0 0 0 23.773743 58.751453 A 32.308197 32.306578 0 0 0 23.800098 58.770056 A 32.308197 32.306578 0 0 0 23.960295 58.881161 A 32.308197 32.306578 0 0 0 24.118425 58.989681 A 32.308197 32.306578 0 0 0 24.221777 59.059961 A 32.308197 32.306578 0 0 0 24.280172 59.099752 A 32.308197 32.306578 0 0 0 24.371639 59.16073 A 32.308197 32.306578 0 0 0 24.478609 59.232044 A 32.308197 32.306578 0 0 0 24.545272 59.275969 A 32.308197 32.306578 0 0 0 24.651209 59.345732 A 32.308197 32.306578 0 0 0 24.76438 59.419629 A 32.308197 32.306578 0 0 0 24.807788 59.447534 A 32.308197 32.306578 0 0 0 24.982971 59.559672 A 32.308197 32.306578 0 0 0 25.160738 59.67181 A 32.308197 32.306578 0 0 0 25.166939 59.675944 A 32.308197 32.306578 0 0 0 25.297164 59.757076 A 32.308197 32.306578 0 0 0 25.377262 59.807202 A 32.308197 32.306578 0 0 0 25.455811 59.855261 A 32.308197 32.306578 0 0 0 25.548828 59.912622 A 32.308197 32.306578 0 0 0 25.709025 60.00874 A 32.308197 32.306578 0 0 0 25.715226 60.012875 A 32.308197 32.306578 0 0 0 25.861987 60.100208 A 32.308197 32.306578 0 0 0 25.924516 60.136898 A 32.308197 32.306578 0 0 0 25.987044 60.173588 A 32.308197 32.306578 0 0 0 26.126054 60.25472 A 32.308197 32.306578 0 0 0 26.17463 60.282626 A 32.308197 32.306578 0 0 0 26.306921 60.35859 A 32.308197 32.306578 0 0 0 26.396838 60.40975 A 32.308197 32.306578 0 0 0 26.465568 60.449024 A 32.308197 32.306578 0 0 0 26.643335 60.548242 A 32.308197 32.306578 0 0 0 26.820585 60.645911 A 32.308197 32.306578 0 0 0 26.838155 60.655729 A 32.308197 32.306578 0 0 0 27.006104 60.74668 A 32.308197 32.306578 0 0 0 27.026257 60.758049 A 32.308197 32.306578 0 0 0 27.122892 60.809725 A 32.308197 32.306578 0 0 0 27.263969 60.884656 A 32.308197 32.306578 0 0 0 27.420032 60.966305 A 32.308197 32.306578 0 0 0 27.545089 61.0309 A 32.308197 32.306578 0 0 0 27.618469 61.068624 A 32.308197 32.306578 0 0 0 27.713554 61.1172 A 32.308197 32.306578 0 0 0 27.809672 61.165776 A 32.308197 32.306578 0 0 0 27.90579 61.213835 A 32.308197 32.306578 0 0 0 27.994157 61.25776 A 32.308197 32.306578 0 0 0 28.111979 61.315637 A 32.308197 32.306578 0 0 0 28.199829 61.359046 A 32.308197 32.306578 0 0 0 28.259774 61.387468 A 32.308197 32.306578 0 0 0 28.415837 61.462399 A 32.308197 32.306578 0 0 0 28.605489 61.552316 A 32.308197 32.306578 0 0 0 28.622542 61.560584 A 32.308197 32.306578 0 0 0 28.791008 61.639132 A 32.308197 32.306578 0 0 0 28.893327 61.685641 A 32.308197 32.306578 0 0 0 28.949654 61.711996 A 32.308197 32.306578 0 0 0 29.139824 61.797262 A 32.308197 32.306578 0 0 0 29.336194 61.884595 A 32.308197 32.306578 0 0 0 29.470036 61.942989 A 32.308197 32.306578 0 0 0 29.589408 61.994666 A 32.308197 32.306578 0 0 0 29.776477 62.074247 A 32.308197 32.306578 0 0 0 29.872079 62.114038 A 32.308197 32.306578 0 0 0 29.940291 62.14246 A 32.308197 32.306578 0 0 0 30.075167 62.198788 A 32.308197 32.306578 0 0 0 30.140279 62.225143 A 32.308197 32.306578 0 0 0 30.30151 62.290255 A 32.308197 32.306578 0 0 0 30.342851 62.306791 A 32.308197 32.306578 0 0 0 30.423466 62.338831 A 32.308197 32.306578 0 0 0 30.58263 62.401876 A 32.308197 32.306578 0 0 0 30.739726 62.462337 A 32.308197 32.306578 0 0 0 30.890104 62.519698 A 32.308197 32.306578 0 0 0 30.952116 62.543469 A 32.308197 32.306578 0 0 0 31.048751 62.579643 A 32.308197 32.306578 0 0 0 31.15107 62.617884 A 32.308197 32.306578 0 0 0 31.269926 62.661292 A 32.308197 32.306578 0 0 0 31.36346 62.694881 A 32.308197 32.306578 0 0 0 31.443042 62.723303 A 32.308197 32.306578 0 0 0 31.558281 62.764645 A 32.308197 32.306578 0 0 0 31.695223 62.812704 A 32.308197 32.306578 0 0 0 31.751034 62.832341 A 32.308197 32.306578 0 0 0 31.889526 62.879366 A 32.308197 32.306578 0 0 0 31.957739 62.903137 A 32.308197 32.306578 0 0 0 32.061092 62.937761 A 32.308197 32.306578 0 0 0 32.172713 62.975484 A 32.308197 32.306578 0 0 0 32.286918 63.012691 A 32.308197 32.306578 0 0 0 32.364433 63.038013 A 32.308197 32.306578 0 0 0 32.520496 63.087622 A 32.308197 32.306578 0 0 0 32.567521 63.102608 A 32.308197 32.306578 0 0 0 32.673975 63.136715 A 32.308197 32.306578 0 0 0 32.774744 63.168238 A 32.308197 32.306578 0 0 0 32.93029 63.21578 A 32.308197 32.306578 0 0 0 32.989201 63.23335 A 32.308197 32.306578 0 0 0 33.056897 63.25402 A 32.308197 32.306578 0 0 0 33.190739 63.294328 A 32.308197 32.306578 0 0 0 33.545239 63.396131 A 32.308197 32.306578 0 0 0 33.611385 63.414734 A 32.308197 32.306578 0 0 0 33.696651 63.438505 A 32.308197 32.306578 0 0 0 33.812407 63.470545 A 32.308197 32.306578 0 0 0 33.949349 63.507235 A 32.308197 32.306578 0 0 0 34.014461 63.525322 A 32.308197 32.306578 0 0 0 34.111096 63.550643 A 32.308197 32.306578 0 0 0 34.234603 63.582683 A 32.308197 32.306578 0 0 0 34.341056 63.610588 A 32.308197 32.306578 0 0 0 34.441825 63.635393 A 32.308197 32.306578 0 0 0 34.519857 63.655546 A 32.308197 32.306578 0 0 0 34.646464 63.686552 A 32.308197 32.306578 0 0 0 34.753951 63.71239 A 32.308197 32.306578 0 0 0 34.86919 63.740296 A 32.308197 32.306578 0 0 0 34.916732 63.751664 A 32.308197 32.306578 0 0 0 35.087264 63.791455 A 32.308197 32.306578 0 0 0 35.110519 63.796623 A 32.308197 32.306578 0 0 0 35.275366 63.834347 A 32.308197 32.306578 0 0 0 35.423678 63.866903 A 32.308197 32.306578 0 0 0 35.478455 63.878272 A 32.308197 32.306578 0 0 0 35.556486 63.895325 A 32.308197 32.306578 0 0 0 35.690328 63.924264 A 32.308197 32.306578 0 0 0 35.856209 63.95837 A 32.308197 32.306578 0 0 0 35.881531 63.963538 A 32.308197 32.306578 0 0 0 36.047929 63.997128 A 32.308197 32.306578 0 0 0 36.102706 64.00798 A 32.308197 32.306578 0 0 0 36.214844 64.029684 A 32.308197 32.306578 0 0 0 36.325431 64.050871 A 32.308197 32.306578 0 0 0 36.451522 64.074642 A 32.308197 32.306578 0 0 0 36.524386 64.088078 A 32.308197 32.306578 0 0 0 36.692851 64.11805 A 32.308197 32.306578 0 0 0 36.730575 64.124768 A 32.308197 32.306578 0 0 0 36.859766 64.147506 A 32.308197 32.306578 0 0 0 36.966736 64.165593 A 32.308197 32.306578 0 0 0 37.050452 64.179545 A 32.308197 32.306578 0 0 0 37.160523 64.198149 A 32.308197 32.306578 0 0 0 37.345007 64.227088 A 32.308197 32.306578 0 0 0 37.361544 64.229155 A 32.308197 32.306578 0 0 0 37.444226 64.242591 A 32.308197 32.306578 0 0 0 37.626644 64.269462 A 32.308197 32.306578 0 0 0 37.798727 64.294267 A 32.308197 32.306578 0 0 0 37.960474 64.317005 A 32.308197 32.306578 0 0 0 38.004916 64.323206 A 32.308197 32.306578 0 0 0 38.10155 64.335608 A 32.308197 32.306578 0 0 0 38.264848 64.357312 A 32.308197 32.306578 0 0 0 38.437964 64.3785 A 32.308197 32.306578 0 0 0 38.518062 64.388318 A 32.308197 32.306578 0 0 0 38.691179 64.408472 A 32.308197 32.306578 0 0 0 38.856543 64.426559 A 32.308197 32.306578 0 0 0 39.054464 64.447229 A 32.308197 32.306578 0 0 0 39.057564 64.448263 A 32.308197 32.306578 0 0 0 39.059632 64.448263 A 32.308197 32.306578 0 0 0 39.178487 64.460148 A 32.308197 32.306578 0 0 0 39.333 64.474618 A 32.308197 32.306578 0 0 0 39.546423 64.494255 A 32.308197 32.306578 0 0 0 39.760881 64.511825 A 32.308197 32.306578 0 0 0 39.974821 64.528361 A 32.308197 32.306578 0 0 0 40.188245 64.543347 A 32.308197 32.306578 0 0 0 40.190829 64.543347 A 32.308197 32.306578 0 0 0 40.403736 64.556783 A 32.308197 32.306578 0 0 0 40.616126 64.569186 A 32.308197 32.306578 0 0 0 40.618193 64.569186 A 32.308197 32.306578 0 0 0 40.622844 64.569702 A 32.308197 32.306578 0 0 0 40.821281 64.579521 A 32.308197 32.306578 0 0 0 40.83265 64.580038 A 32.308197 32.306578 0 0 0 40.986129 64.586756 A 32.308197 32.306578 0 0 0 41.200586 64.595541 A 32.308197 32.306578 0 0 0 41.351998 64.600191 A 32.308197 32.306578 0 0 0 41.456901 64.603809 A 32.308197 32.306578 0 0 0 41.476538 64.604326 A 32.308197 32.306578 0 0 0 41.630017 64.607943 A 32.308197 32.306578 0 0 0 41.783496 64.611044 A 32.308197 32.306578 0 0 0 41.885816 64.612594 A 32.308197 32.306578 0 0 0 41.967464 64.613627 A 32.308197 32.306578 0 0 0 42.151949 64.615178 A 32.308197 32.306578 0 0 0 42.335401 64.616211 A 32.308197 32.306578 0 0 0 42.519369 64.615178 A 32.308197 32.306578 0 0 0 42.550375 64.615178 A 32.308197 32.306578 0 0 0 42.703854 64.613627 A 32.308197 32.306578 0 0 0 42.784986 64.612594 A 32.308197 32.306578 0 0 0 42.887822 64.611044 A 32.308197 32.306578 0 0 0 43.041301 64.607943 A 32.308197 32.306578 0 0 0 43.214417 64.603809 A 32.308197 32.306578 0 0 0 43.31932 64.600708 A 32.308197 32.306578 0 0 0 43.470732 64.595541 A 32.308197 32.306578 0 0 0 43.685189 64.587272 A 32.308197 32.306578 0 0 0 43.850037 64.580038 A 32.308197 32.306578 0 0 0 44.048474 64.570219 A 32.308197 32.306578 0 0 0 44.053125 64.569702 A 32.308197 32.306578 0 0 0 44.055192 64.569702 A 32.308197 32.306578 0 0 0 44.267582 64.5573 A 32.308197 32.306578 0 0 0 44.479973 64.543864 A 32.308197 32.306578 0 0 0 44.48204 64.543864 A 32.308197 32.306578 0 0 0 44.695463 64.528878 A 32.308197 32.306578 0 0 0 44.831889 64.518543 A 32.308197 32.306578 0 0 0 44.961597 64.508724 A 32.308197 32.306578 0 0 0 44.970899 64.507691 A 32.308197 32.306578 0 0 0 45.123861 64.494772 A 32.308197 32.306578 0 0 0 45.337801 64.475135 A 32.308197 32.306578 0 0 0 45.491797 64.460148 A 32.308197 32.306578 0 0 0 45.61117 64.448263 A 32.308197 32.306578 0 0 0 45.613237 64.448263 A 32.308197 32.306578 0 0 0 45.616337 64.447746 A 32.308197 32.306578 0 0 0 45.813741 64.427075 A 32.308197 32.306578 0 0 0 45.979106 64.408989 A 32.308197 32.306578 0 0 0 46.152222 64.388835 A 32.308197 32.306578 0 0 0 46.232837 64.379016 A 32.308197 32.306578 0 0 0 46.405953 64.357312 A 32.308197 32.306578 0 0 0 46.569251 64.336125 A 32.308197 32.306578 0 0 0 46.665369 64.323723 A 32.308197 32.306578 0 0 0 46.709811 64.317521 A 32.308197 32.306578 0 0 0 46.872075 64.294784 A 32.308197 32.306578 0 0 0 47.044157 64.269979 A 32.308197 32.306578 0 0 0 47.226058 64.242591 A 32.308197 32.306578 0 0 0 47.309257 64.229671 A 32.308197 32.306578 0 0 0 47.325794 64.227604 A 32.308197 32.306578 0 0 0 47.510279 64.198149 A 32.308197 32.306578 0 0 0 47.620349 64.179545 A 32.308197 32.306578 0 0 0 47.704065 64.166109 A 32.308197 32.306578 0 0 0 47.811035 64.148023 A 32.308197 32.306578 0 0 0 47.940226 64.124768 A 32.308197 32.306578 0 0 0 47.977433 64.118567 A 32.308197 32.306578 0 0 0 48.145899 64.088078 A 32.308197 32.306578 0 0 0 48.218762 64.075159 A 32.308197 32.306578 0 0 0 48.34537 64.051388 A 32.308197 32.306578 0 0 0 48.455957 64.0302 A 32.308197 32.306578 0 0 0 48.568095 64.008496 A 32.308197 32.306578 0 0 0 48.622355 63.997644 A 32.308197 32.306578 0 0 0 48.788753 63.964055 A 32.308197 32.306578 0 0 0 48.814592 63.958887 A 32.308197 32.306578 0 0 0 48.979956 63.924781 A 32.308197 32.306578 0 0 0 49.114315 63.895842 A 32.308197 32.306578 0 0 0 49.192346 63.878789 A 32.308197 32.306578 0 0 0 49.247123 63.866903 A 32.308197 32.306578 0 0 0 49.395435 63.834864 A 32.308197 32.306578 0 0 0 49.535478 63.802824 A 32.308197 32.306578 0 0 0 49.626945 63.781637 A 32.308197 32.306578 0 0 0 49.640898 63.778536 A 32.308197 32.306578 0 0 0 49.845536 63.72996 A 32.308197 32.306578 0 0 0 49.994365 63.694304 A 32.308197 32.306578 0 0 0 50.02382 63.687069 A 32.308197 32.306578 0 0 0 50.150427 63.655546 A 32.308197 32.306578 0 0 0 50.228459 63.635909 A 32.308197 32.306578 0 0 0 50.329228 63.610588 A 32.308197 32.306578 0 0 0 50.435681 63.583199 A 32.308197 32.306578 0 0 0 50.559188 63.550643 A 32.308197 32.306578 0 0 0 50.65634 63.525322 A 32.308197 32.306578 0 0 0 50.721452 63.507752 A 32.308197 32.306578 0 0 0 50.857878 63.471061 A 32.308197 32.306578 0 0 0 50.97415 63.438505 A 32.308197 32.306578 0 0 0 51.059416 63.415251 A 32.308197 32.306578 0 0 0 51.125562 63.396647 A 32.308197 32.306578 0 0 0 51.479545 63.294328 A 32.308197 32.306578 0 0 0 51.613904 63.25402 A 32.308197 32.306578 0 0 0 51.681083 63.233867 A 32.308197 32.306578 0 0 0 51.739995 63.21578 A 32.308197 32.306578 0 0 0 51.895541 63.168754 A 32.308197 32.306578 0 0 0 51.99631 63.137232 A 32.308197 32.306578 0 0 0 52.10328 63.103125 A 32.308197 32.306578 0 0 0 52.150305 63.088139 A 32.308197 32.306578 0 0 0 52.305851 63.03853 A 32.308197 32.306578 0 0 0 52.383883 63.012691 A 32.308197 32.306578 0 0 0 52.497571 62.975484 A 32.308197 32.306578 0 0 0 52.609709 62.938277 A 32.308197 32.306578 0 0 0 52.712545 62.903654 A 32.308197 32.306578 0 0 0 52.781275 62.879883 A 32.308197 32.306578 0 0 0 52.919767 62.832341 A 32.308197 32.306578 0 0 0 52.975061 62.812704 A 32.308197 32.306578 0 0 0 53.112521 62.765161 A 32.308197 32.306578 0 0 0 53.227759 62.72382 A 32.308197 32.306578 0 0 0 53.306824 62.695398 A 32.308197 32.306578 0 0 0 53.400875 62.661292 A 32.308197 32.306578 0 0 0 53.519214 62.617884 A 32.308197 32.306578 0 0 0 53.621533 62.579643 A 32.308197 32.306578 0 0 0 53.718685 62.543469 A 32.308197 32.306578 0 0 0 53.780697 62.520215 A 32.308197 32.306578 0 0 0 53.944511 62.457687 A 32.308197 32.306578 0 0 0 54.128479 62.386373 A 32.308197 32.306578 0 0 0 54.145016 62.379655 A 32.308197 32.306578 0 0 0 54.32485 62.308342 A 32.308197 32.306578 0 0 0 54.37756 62.287154 A 32.308197 32.306578 0 0 0 54.451457 62.257699 L 54.451457 42.991174 A 16.1541 16.153289 0 0 1 42.334367 48.460091 A 16.1541 16.153289 0 0 1 26.180314 32.307072 A 16.1541 16.153289 0 0 1 42.334367 16.153536 A 16.1541 16.153289 0 0 1 54.449907 21.622453 L 54.449907 2.3579956 A 32.308197 32.306578 0 0 0 54.286092 2.2918498 A 32.308197 32.306578 0 0 0 54.250436 2.2778971 A 32.308197 32.306578 0 0 0 54.086621 2.2133016 A 32.308197 32.306578 0 0 0 53.891801 2.1383708 A 32.308197 32.306578 0 0 0 53.886117 2.135787 A 32.308197 32.306578 0 0 0 53.85046 2.1218343 A 32.308197 32.306578 0 0 0 53.685095 2.0598226 A 32.308197 32.306578 0 0 0 53.649439 2.0463867 A 32.308197 32.306578 0 0 0 53.484074 1.9848918 A 32.308197 32.306578 0 0 0 53.447901 1.9719727 A 32.308197 32.306578 0 0 0 53.282019 1.9115112 A 32.308197 32.306578 0 0 0 53.245846 1.8985921 A 32.308197 32.306578 0 0 0 53.079448 1.8391642 A 32.308197 32.306578 0 0 0 53.043791 1.8267619 A 32.308197 32.306578 0 0 0 52.876876 1.7688843 A 32.308197 32.306578 0 0 0 52.704794 1.7094564 A 32.308197 32.306578 0 0 0 52.673788 1.6991211 A 32.308197 32.306578 0 0 0 52.637614 1.6872355 A 32.308197 32.306578 0 0 0 52.469666 1.6309082 A 32.308197 32.306578 0 0 0 52.433492 1.6190226 A 32.308197 32.306578 0 0 0 52.22937 1.5528768 A 32.308197 32.306578 0 0 0 52.137903 1.523938 A 32.308197 32.306578 0 0 0 52.061422 1.4991333 A 32.308197 32.306578 0 0 0 51.937915 1.4608927 A 32.308197 32.306578 0 0 0 51.819576 1.4242025 A 32.308197 32.306578 0 0 0 51.650594 1.3730428 A 32.308197 32.306578 0 0 0 51.613904 1.361674 A 32.308197 32.306578 0 0 0 51.444922 1.3110311 A 32.308197 32.306578 0 0 0 51.408232 1.3006958 A 32.308197 32.306578 0 0 0 51.202043 1.2412679 A 32.308197 32.306578 0 0 0 51.032027 1.1932088 A 32.308197 32.306578 0 0 0 50.995337 1.1828735 A 32.308197 32.306578 0 0 0 50.824805 1.135848 A 32.308197 32.306578 0 0 0 50.788115 1.1260295 A 32.308197 32.306578 0 0 0 50.617582 1.0800374 A 32.308197 32.306578 0 0 0 50.446533 1.0350789 A 32.308197 32.306578 0 0 0 50.409843 1.0257772 A 32.308197 32.306578 0 0 0 50.373153 1.0164754 A 32.308197 32.306578 0 0 0 50.201587 0.97306722 A 32.308197 32.306578 0 0 0 50.009868 0.92552491 A 32.308197 32.306578 0 0 0 49.993331 0.92139079 A 32.308197 32.306578 0 0 0 49.956124 0.91208903 A 32.308197 32.306578 0 0 0 49.784042 0.87126465 A 32.308197 32.306578 0 0 0 49.575269 0.82217204 A 32.308197 32.306578 0 0 0 49.538062 0.81338705 A 32.308197 32.306578 0 0 0 49.365462 0.77462972 A 32.308197 32.306578 0 0 0 49.328255 0.76636149 A 32.308197 32.306578 0 0 0 49.155656 0.7286377 A 32.308197 32.306578 0 0 0 49.038351 0.70331625 A 32.308197 32.306578 0 0 0 48.908643 0.6764445 A 32.308197 32.306578 0 0 0 48.735527 0.64078776 A 32.308197 32.306578 0 0 0 48.697803 0.63355306 A 32.308197 32.306578 0 0 0 48.524687 0.59892985 A 32.308197 32.306578 0 0 0 48.337618 0.56327311 A 32.308197 32.306578 0 0 0 48.313847 0.55862224 A 32.308197 32.306578 0 0 0 48.276123 0.55138753 A 32.308197 32.306578 0 0 0 48.10249 0.51934815 A 32.308197 32.306578 0 0 0 48.064767 0.51263021 A 32.308197 32.306578 0 0 0 47.891134 0.48214112 A 32.308197 32.306578 0 0 0 47.699931 0.4490682 A 32.308197 32.306578 0 0 0 47.67926 0.44545085 A 32.308197 32.306578 0 0 0 47.642053 0.43924968 A 32.308197 32.306578 0 0 0 47.595545 0.43201498 A 32.308197 32.306578 0 0 0 47.43018 0.40462647 A 32.308197 32.306578 0 0 0 47.255514 0.37723796 A 32.308197 32.306578 0 0 0 47.21779 0.37155355 A 32.308197 32.306578 0 0 0 47.043124 0.34571533 A 32.308197 32.306578 0 0 0 47.005917 0.34003093 A 32.308197 32.306578 0 0 0 46.830733 0.31470947 A 32.308197 32.306578 0 0 0 46.79301 0.30954183 A 32.308197 32.306578 0 0 0 46.617827 0.28577067 A 32.308197 32.306578 0 0 0 46.580103 0.28060303 A 32.308197 32.306578 0 0 0 46.40492 0.2578654 A 32.308197 32.306578 0 0 0 46.191496 0.23151042 A 32.308197 32.306578 0 0 0 45.978589 0.20670573 A 32.308197 32.306578 0 0 0 45.940865 0.20257162 A 32.308197 32.306578 0 0 0 45.765165 0.18293457 A 32.308197 32.306578 0 0 0 45.727442 0.17931722 A 32.308197 32.306578 0 0 0 45.551742 0.16123047 A 32.308197 32.306578 0 0 0 45.345036 0.14107666 A 32.308197 32.306578 0 0 0 45.337801 0.1405599 A 32.308197 32.306578 0 0 0 45.300077 0.13694255 A 32.308197 32.306578 0 0 0 45.123861 0.12092285 A 32.308197 32.306578 0 0 0 44.90992 0.10335286 A 32.308197 32.306578 0 0 0 44.74869 0.090950521 A 32.308197 32.306578 0 0 0 44.695463 0.086816407 A 32.308197 32.306578 0 0 0 44.657739 0.084232585 A 32.308197 32.306578 0 0 0 44.601412 0.08009847 A 32.308197 32.306578 0 0 0 44.443282 0.06924642 A 32.308197 32.306578 0 0 0 44.267066 0.058394369 A 32.308197 32.306578 0 0 0 44.229342 0.055810547 A 32.308197 32.306578 0 0 0 44.053125 0.045992025 A 32.308197 32.306578 0 0 0 44.014885 0.043924968 A 32.308197 32.306578 0 0 0 43.838151 0.035139974 A 32.308197 32.306578 0 0 0 43.645398 0.026871745 A 32.308197 32.306578 0 0 0 43.623694 0.025838216 A 32.308197 32.306578 0 0 0 43.585453 0.024287923 A 32.308197 32.306578 0 0 0 43.40872 0.018086751 A 32.308197 32.306578 0 0 0 43.370996 0.016536458 A 32.308197 32.306578 0 0 0 43.194263 0.011368815 A 32.308197 32.306578 0 0 0 43.009778 0.0072347005 A 32.308197 32.306578 0 0 0 42.979806 0.0062011719 A 32.308197 32.306578 0 0 0 42.941565 0.0056844076 A 32.308197 32.306578 0 0 0 42.764832 0.0025838216 A 32.308197 32.306578 0 0 0 42.726591 0.0025838216 A 32.308197 32.306578 0 0 0 42.550375 0.00051676432 A 32.308197 32.306578 0 0 0 42.335401 0 A 32.308197 32.306578 0 0 0 42.273906 0 z M 58.486353 4.3289348 L 58.486353 26.653154 L 66.563379 28.268559 L 58.486353 32.307072 L 66.563379 36.345069 L 58.486353 37.960474 L 58.486353 60.284693 A 32.308197 32.306578 0 0 0 74.640406 32.307072 A 32.308197 32.306578 0 0 0 58.486353 4.3289348 z M 48.386194 24.230046 A 2.0192624 2.0191614 0 0 0 46.370813 26.249561 A 2.0192624 2.0191614 0 0 0 48.389811 28.268559 A 2.0192624 2.0191614 0 0 0 50.409326 26.249561 A 2.0192624 2.0191614 0 0 0 48.389811 24.230046 A 2.0192624 2.0191614 0 0 0 48.386194 24.230046 z M 8.8950643 66.842432 A 8.9122787 8.9122763 0 0 0 0 75.754549 A 8.9122787 8.9122763 0 0 0 8.9121175 84.666667 A 8.9122787 8.9122763 0 0 0 12.254549 84.016577 L 12.254549 78.702173 A 4.4561393 4.4561382 0 0 1 8.9121175 80.210608 A 4.4561393 4.4561382 0 0 1 4.4560588 75.754549 A 4.4561393 4.4561382 0 0 1 8.9121175 71.298491 A 4.4561393 4.4561382 0 0 1 12.254549 72.807443 L 12.254549 67.492521 A 8.9122787 8.9122763 0 0 0 8.9121175 66.842432 A 8.9122787 8.9122763 0 0 0 8.8950643 66.842432 z M 13.368176 66.842432 L 13.368176 73.526778 L 13.368176 74.194955 L 13.368176 75.754549 L 13.368176 77.314144 L 13.368176 78.539909 L 13.368176 84.666667 L 17.824752 84.666667 L 17.824752 77.982837 L 21.166667 77.982837 L 21.166667 84.666667 L 25.622726 84.666667 L 25.622726 66.842432 L 21.166667 66.842432 L 21.166667 73.526778 L 17.824752 73.526778 L 17.824752 66.842432 L 13.368176 66.842432 z M 26.736869 66.842432 L 26.736869 84.666667 L 31.192928 84.666667 L 31.192928 66.842432 L 26.736869 66.842432 z M 32.307072 66.842432 L 32.307072 82.438896 L 32.307072 84.666667 L 32.689478 84.666667 L 36.763131 84.666667 L 36.763131 82.44303 A 2.2280697 2.2280691 0 0 1 36.763131 82.438896 L 36.763131 80.76768 L 36.763131 80.210608 L 37.877275 80.210608 A 2.2280697 2.2280691 0 0 1 40.105046 82.438896 L 40.105046 84.667184 L 44.561621 84.667184 L 44.561621 82.438896 A 6.6842093 6.6842075 0 0 0 42.8594 77.982837 A 6.6842093 6.6842075 0 0 0 44.561621 73.526778 A 6.6842093 6.6842075 0 0 0 37.877275 66.842432 L 36.763131 66.842432 L 32.307072 66.842432 z M 45.675248 66.842432 L 45.675248 69.831914 L 45.675248 77.221127 L 45.675248 84.666667 L 50.131824 84.666667 L 50.131824 80.210608 L 51.228398 80.210608 L 51.245451 80.210608 A 6.6842093 6.6842075 0 0 0 57.929798 73.526778 A 6.6842093 6.6842075 0 0 0 51.245451 66.842432 L 50.131307 66.842432 L 45.675248 66.842432 z M 65.728288 66.842432 A 6.6842093 6.6842075 0 0 0 59.043941 73.526778 L 59.043941 77.982837 A 6.6842093 6.6842075 0 0 0 65.728288 84.666667 L 71.298491 84.666667 L 71.298491 80.210608 L 65.728288 80.210608 A 2.2280697 2.2280691 0 0 1 63.5 77.982837 L 69.070203 77.982837 L 69.070203 73.526778 L 63.5 73.526778 A 2.2280697 2.2280691 0 0 1 65.728288 71.298491 L 71.298491 71.298491 L 71.298491 66.842432 L 65.728288 66.842432 z M 72.412118 66.842432 L 72.412118 82.438896 L 72.412118 84.666667 L 72.794523 84.666667 L 76.868177 84.666667 L 76.868177 82.44303 A 2.2280697 2.2280691 0 0 1 76.868177 82.438896 L 76.868177 80.76768 L 76.868177 80.210608 L 77.98232 80.210608 A 2.2280697 2.2280691 0 0 1 80.210608 82.438896 L 80.210608 84.667184 L 84.666667 84.667184 L 84.666667 82.438896 A 6.6842093 6.6842075 0 0 0 82.964445 77.982837 A 6.6842093 6.6842075 0 0 0 84.666667 73.526778 A 6.6842093 6.6842075 0 0 0 77.98232 66.842432 L 76.868177 66.842432 L 72.412118 66.842432 z M 36.763131 71.298491 L 37.877275 71.298491 A 2.2280697 2.2280691 0 0 1 40.105046 73.526778 A 2.2280697 2.2280691 0 0 1 37.881409 75.754549 A 2.2280697 2.2280691 0 0 1 37.877275 75.754549 L 36.763131 75.754549 L 36.763131 73.530913 A 2.2280697 2.2280691 0 0 1 36.763131 73.526778 L 36.763131 71.298491 z M 50.131824 71.298491 L 51.241317 71.298491 L 51.245451 71.298491 A 2.2280697 2.2280691 0 0 1 53.473739 73.526778 A 2.2280697 2.2280691 0 0 1 51.245451 75.754549 L 50.131307 75.754549 L 50.131824 71.298491 z M 76.868177 71.298491 L 77.98232 71.298491 A 2.2280697 2.2280691 0 0 1 80.210608 73.526778 A 2.2280697 2.2280691 0 0 1 77.986455 75.754549 A 2.2280697 2.2280691 0 0 1 77.98232 75.754549 L 76.868693 75.754549 L 76.868693 73.530913 A 2.2280697 2.2280691 0 0 1 76.868693 73.526778 L 76.868177 71.298491 z " />
  </g>
</svg>
