<?xml version="1.0" encoding="UTF-8" standalone="no"?>
<svg
   width="48"
   height="48"
   viewBox="0 0 12.7 12.7"
   version="1.1"
   id="svg1573"
   inkscape:version="1.2.2 (732a01da63, 2022-12-09)"
   sodipodi:docname="logout.svg"
   xmlns:inkscape="http://www.inkscape.org/namespaces/inkscape"
   xmlns:sodipodi="http://sodipodi.sourceforge.net/DTD/sodipodi-0.dtd"
   xmlns="http://www.w3.org/2000/svg"
   xmlns:svg="http://www.w3.org/2000/svg"
   xmlns:rdf="http://www.w3.org/1999/02/22-rdf-syntax-ns#"
   xmlns:cc="http://creativecommons.org/ns#"
   xmlns:dc="http://purl.org/dc/elements/1.1/">
  <defs
     id="defs1567" />
  <sodipodi:namedview
     id="base"
     pagecolor="#7f7f7f"
     bordercolor="#666666"
     borderopacity="1.0"
     inkscape:pageopacity="0"
     inkscape:pageshadow="2"
     inkscape:zoom="16"
     inkscape:cx="10.625"
     inkscape:cy="25.34375"
     inkscape:document-units="px"
     inkscape:current-layer="layer1"
     inkscape:document-rotation="0"
     showgrid="true"
     units="px"
     inkscape:window-width="2560"
     inkscape:window-height="1373"
     inkscape:window-x="-9"
     inkscape:window-y="161"
     inkscape:window-maximized="1"
     showguides="true"
     inkscape:guide-bbox="true"
     inkscape:showpageshadow="0"
     inkscape:pagecheckerboard="0"
     inkscape:deskcolor="#7f7f7f">
    <inkscape:grid
       type="xygrid"
       id="grid2223" />
    <sodipodi:guide
       position="2.1166667,10.583333"
       orientation="1,0"
       id="guide2225"
       inkscape:locked="false" />
    <sodipodi:guide
       position="10.583333,8.73125"
       orientation="1,0"
       id="guide2227"
       inkscape:locked="false" />
    <sodipodi:guide
       position="2.6458333,10.583333"
       orientation="0,-1"
       id="guide2229"
       inkscape:locked="false" />
    <sodipodi:guide
       position="10.31875,2.1166667"
       orientation="0,-1"
       id="guide2231"
       inkscape:locked="false" />
    <sodipodi:guide
       position="2.8608073,10.212917"
       orientation="0,1"
       id="guide62075"
       inkscape:locked="false"
       inkscape:label=""
       inkscape:color="rgb(0,134,229)" />
    <sodipodi:guide
       position="4.0925646,2.4870833"
       orientation="0,1"
       id="guide62803"
       inkscape:locked="false"
       inkscape:label=""
       inkscape:color="rgb(0,134,229)" />
    <sodipodi:guide
       position="2.4870833,7.9993972"
       orientation="-1,0"
       id="guide63531"
       inkscape:locked="false"
       inkscape:label=""
       inkscape:color="rgb(0,134,229)" />
    <sodipodi:guide
       position="10.212917,6.2103618"
       orientation="-1,0"
       id="guide64259"
       inkscape:locked="false"
       inkscape:label=""
       inkscape:color="rgb(0,134,229)" />
  </sodipodi:namedview>
  <metadata
     id="metadata1570">
    <rdf:RDF>
      <cc:Work
         rdf:about="">
        <dc:format>image/svg+xml</dc:format>
        <dc:type
           rdf:resource="http://purl.org/dc/dcmitype/StillImage" />
      </cc:Work>
    </rdf:RDF>
  </metadata>
  <g
     inkscape:label="Calque 1"
     inkscape:groupmode="layer"
     id="layer1">
    <path
       id="path3227"
       style="color:#000000;fill:#000000;stroke-linecap:round;stroke-linejoin:round;-inkscape-stroke:none"
       d="M 2.4861532 2.1171834 A 0.37045371 0.37045371 0 0 0 2.1171834 2.4861532 L 2.1171834 10.212813 A 0.37045371 0.37045371 0 0 0 2.4861532 10.58385 L 7.9375 10.58385 A 0.37041667 0.37041667 0 0 0 8.3085368 10.212813 A 0.37041667 0.37041667 0 0 0 7.9375 9.8417765 L 2.8571899 9.8417765 L 2.8571899 2.8571899 L 7.9375 2.8571899 A 0.37041667 0.37041667 0 0 0 8.3085368 2.4861532 A 0.37041667 0.37041667 0 0 0 7.9375 2.1171834 L 2.4861532 2.1171834 z M 7.9281982 3.8638468 A 0.37045353 0.37045353 0 0 0 7.7891886 3.8943359 A 0.37045353 0.37045353 0 0 0 7.5664632 4.2322998 L 7.5664632 4.9216634 L 4.7614665 4.9216634 A 0.37045353 0.37045353 0 0 0 4.3924967 5.2911499 L 4.3924967 7.4083333 A 0.37045353 0.37045353 0 0 0 4.7614665 7.7793701 L 7.5664632 7.7793701 L 7.5664632 8.4666667 A 0.37045353 0.37045353 0 0 0 8.189681 8.7384847 L 10.464994 6.6213013 A 0.37045353 0.37045353 0 0 0 10.464994 6.078182 L 8.189681 3.9630656 A 0.37045353 0.37045353 0 0 0 7.9281982 3.8638468 z M 8.3085368 5.0839274 L 9.669694 6.3494832 L 8.3085368 7.6150391 L 8.3085368 7.4083333 A 0.37045353 0.37045353 0 0 0 7.9375 7.0372965 L 5.13302 7.0372965 L 5.13302 5.6621867 L 7.9375 5.6621867 A 0.37045353 0.37045353 0 0 0 8.3085368 5.2911499 L 8.3085368 5.0839274 z " />
  </g>
</svg>
