<?xml version="1.0" encoding="UTF-8" standalone="no"?>
<svg
   inkscape:version="1.2.2 (732a01da63, 2022-12-09)"
   id="svg848"
   version="1.1"
   viewBox="0 0 31.749999 31.750001"
   height="120"
   width="120"
   sodipodi:docname="picture.svg"
   xmlns:inkscape="http://www.inkscape.org/namespaces/inkscape"
   xmlns:sodipodi="http://sodipodi.sourceforge.net/DTD/sodipodi-0.dtd"
   xmlns="http://www.w3.org/2000/svg"
   xmlns:svg="http://www.w3.org/2000/svg"
   xmlns:rdf="http://www.w3.org/1999/02/22-rdf-syntax-ns#"
   xmlns:cc="http://creativecommons.org/ns#"
   xmlns:dc="http://purl.org/dc/elements/1.1/">
  <defs
     id="defs842" />
  <sodipodi:namedview
     units="px"
     showgrid="true"
     inkscape:document-rotation="0"
     inkscape:current-layer="layer1"
     inkscape:document-units="px"
     inkscape:cy="51.580914"
     inkscape:cx="53.411816"
     inkscape:zoom="7.9195959"
     inkscape:pageshadow="2"
     inkscape:pageopacity="0.0"
     borderopacity="1.0"
     bordercolor="#666666"
     pagecolor="#ffffff"
     id="base"
     inkscape:window-width="2560"
     inkscape:window-height="1373"
     inkscape:window-x="-9"
     inkscape:window-y="161"
     inkscape:window-maximized="1"
     inkscape:showpageshadow="0"
     inkscape:pagecheckerboard="0"
     inkscape:deskcolor="#d1d1d1">
    <inkscape:grid
       type="xygrid"
       id="grid832" />
  </sodipodi:namedview>
  <metadata
     id="metadata845">
    <rdf:RDF>
      <cc:Work
         rdf:about="">
        <dc:format>image/svg+xml</dc:format>
        <dc:type
           rdf:resource="http://purl.org/dc/dcmitype/StillImage" />
      </cc:Work>
    </rdf:RDF>
  </metadata>
  <g
     id="layer1"
     inkscape:groupmode="layer"
     inkscape:label="Calque 1">
    <path
       id="path834"
       style="color:#000000;fill:#000000;stroke-linecap:round;stroke-linejoin:bevel;-inkscape-stroke:none;fill-opacity:0.99596769"
       d="M 15.875 6.6151001 L 15.687415 6.6915812 L 13.119096 9.2598999 L 5.2911499 9.2598999 L 5.0276001 9.5255168 L 5.0276001 22.75365 L 5.2911499 23.019784 L 26.45885 23.019784 L 26.7224 22.75365 L 26.7224 9.5255168 L 26.45885 9.2598999 L 23.922054 9.2598999 L 21.353735 6.6915812 L 21.16615 6.6151001 L 15.875 6.6151001 z M 15.984554 7.1447835 L 21.056596 7.1447835 L 23.624915 9.7131022 L 23.8125 9.7890666 L 26.193233 9.7890666 L 26.193233 22.4901 L 5.5567668 22.4901 L 5.5567668 9.7890666 L 13.22865 9.7890666 L 13.416235 9.7131022 L 15.984554 7.1447835 z M 18.52135 11.113534 C 15.748109 11.113534 13.494267 13.365308 13.494267 16.13855 C 13.494267 18.911792 15.748109 21.16615 18.52135 21.16615 C 21.294592 21.16615 23.54895 18.911792 23.54895 16.13855 C 23.54895 13.365308 21.294592 11.113534 18.52135 11.113534 z M 18.52135 11.6427 C 21.00861 11.6427 23.019784 13.65129 23.019784 16.13855 C 23.019784 18.625809 21.00861 20.636466 18.52135 20.636466 C 16.034091 20.636466 14.023432 18.625809 14.023433 16.13855 C 14.023433 13.65129 16.034091 11.6427 18.52135 11.6427 z " />
  </g>
</svg>
