<?xml version="1.0" encoding="UTF-8" standalone="no"?>
<svg
   sodipodi:docname="profile.svg"
   inkscape:version="1.2.2 (732a01da63, 2022-12-09)"
   id="svg1573"
   version="1.1"
   viewBox="0 0 12.7 12.7"
   height="48"
   width="48"
   xmlns:inkscape="http://www.inkscape.org/namespaces/inkscape"
   xmlns:sodipodi="http://sodipodi.sourceforge.net/DTD/sodipodi-0.dtd"
   xmlns="http://www.w3.org/2000/svg"
   xmlns:svg="http://www.w3.org/2000/svg"
   xmlns:rdf="http://www.w3.org/1999/02/22-rdf-syntax-ns#"
   xmlns:cc="http://creativecommons.org/ns#"
   xmlns:dc="http://purl.org/dc/elements/1.1/">
  <defs
     id="defs1567" />
  <sodipodi:namedview
     inkscape:guide-bbox="true"
     showguides="true"
     inkscape:window-maximized="1"
     inkscape:window-y="161"
     inkscape:window-x="-9"
     inkscape:window-height="1373"
     inkscape:window-width="2560"
     units="px"
     showgrid="true"
     inkscape:document-rotation="0"
     inkscape:current-layer="layer1"
     inkscape:document-units="px"
     inkscape:cy="23.091456"
     inkscape:cx="19.975767"
     inkscape:zoom="22.627417"
     inkscape:pageshadow="2"
     inkscape:pageopacity="0"
     borderopacity="1.0"
     bordercolor="#666666"
     pagecolor="#7f7f7f"
     id="base"
     inkscape:showpageshadow="0"
     inkscape:pagecheckerboard="0"
     inkscape:deskcolor="#7f7f7f">
    <inkscape:grid
       id="grid2223"
       type="xygrid" />
    <sodipodi:guide
       id="guide2225"
       orientation="1,0"
       position="2.1166667,9.525"
       inkscape:locked="false" />
    <sodipodi:guide
       id="guide2227"
       orientation="1,0"
       position="10.583333,1.3229167"
       inkscape:locked="false" />
    <sodipodi:guide
       id="guide2229"
       orientation="0,-1"
       position="2.6458333,10.583333"
       inkscape:locked="false" />
    <sodipodi:guide
       id="guide2231"
       orientation="0,-1"
       position="11.641667,2.1166667"
       inkscape:locked="false" />
  </sodipodi:namedview>
  <metadata
     id="metadata1570">
    <rdf:RDF>
      <cc:Work
         rdf:about="">
        <dc:format>image/svg+xml</dc:format>
        <dc:type
           rdf:resource="http://purl.org/dc/dcmitype/StillImage" />
      </cc:Work>
    </rdf:RDF>
  </metadata>
  <g
     id="layer1"
     inkscape:groupmode="layer"
     inkscape:label="Calque 1">
    <path
       id="path68280"
       style="color:#000000;fill:#000000;stroke-linecap:round;stroke-linejoin:round;-inkscape-stroke:none"
       d="M 6.3494832 2.1171834 C 5.1848703 2.1171834 4.2322998 3.0676869 4.2322998 4.2322998 C 4.2322998 5.037478 4.6877571 5.7411048 5.3536784 6.0988525 C 3.4990062 6.5479624 2.1171834 8.2221503 2.1171834 10.212813 A 0.37041667 0.37041667 0 0 0 2.1259684 10.292395 A 0.37041649 0.37041649 0 0 0 2.1316528 10.310482 A 0.37041667 0.37041667 0 0 0 2.1497396 10.363192 A 0.37041649 0.37041649 0 0 0 2.166276 10.394198 A 0.37041667 0.37041667 0 0 0 2.1890137 10.430371 A 0.37041649 0.37041649 0 0 0 2.2117513 10.458793 A 0.37041667 0.37041667 0 0 0 2.2406901 10.487732 A 0.37041649 0.37041649 0 0 0 2.2696289 10.511503 A 0.37041667 0.37041667 0 0 0 2.308903 10.536308 A 0.37041649 0.37041649 0 0 0 2.3331909 10.549227 A 0.37041667 0.37041667 0 0 0 2.3843506 10.567314 A 0.37041649 0.37041649 0 0 0 2.409672 10.575065 A 0.37041667 0.37041667 0 0 0 2.4861532 10.58385 L 10.212813 10.58385 A 0.37041667 0.37041667 0 0 0 10.295496 10.574548 A 0.37041649 0.37041649 0 0 0 10.304797 10.571965 A 0.37041667 0.37041667 0 0 0 10.317716 10.568864 A 0.37041649 0.37041649 0 0 0 10.367326 10.550777 A 0.37041667 0.37041667 0 0 0 10.422103 10.519771 A 0.37041649 0.37041649 0 0 0 10.435539 10.509953 A 0.37041667 0.37041667 0 0 0 10.450008 10.498067 A 0.37041649 0.37041649 0 0 0 10.456209 10.493416 A 0.37041667 0.37041667 0 0 0 10.459827 10.490316 A 0.37041649 0.37041649 0 0 0 10.493416 10.456209 A 0.37041667 0.37041667 0 0 0 10.507369 10.438639 A 0.37041649 0.37041649 0 0 0 10.509953 10.435539 A 0.37041667 0.37041667 0 0 0 10.519771 10.422103 A 0.37041649 0.37041649 0 0 0 10.520805 10.420036 A 0.37041667 0.37041667 0 0 0 10.549227 10.370426 A 0.37041649 0.37041649 0 0 0 10.550777 10.367326 A 0.37041667 0.37041667 0 0 0 10.553361 10.360608 A 0.37041649 0.37041649 0 0 0 10.568864 10.317716 A 0.37041667 0.37041667 0 0 0 10.571965 10.304797 A 0.37041649 0.37041649 0 0 0 10.574548 10.295496 A 0.37041667 0.37041667 0 0 0 10.579716 10.268107 A 0.37041649 0.37041649 0 0 0 10.580233 10.265523 A 0.37041667 0.37041667 0 0 0 10.58385 10.212813 C 10.58385 8.2219756 9.2006236 6.5477868 7.3452881 6.0988525 C 8.0112094 5.7411048 8.4666667 5.037478 8.4666667 4.2322998 C 8.4666667 3.0676869 7.5140961 2.1171834 6.3494832 2.1171834 z M 6.3494832 2.8571899 C 7.113721 2.8571899 7.7266602 3.468062 7.7266602 4.2322998 C 7.7266602 4.9965375 7.113721 5.6094767 6.3494832 5.6094767 C 5.5852454 5.6094767 4.9743734 4.9965375 4.9743734 4.2322998 C 4.9743734 3.468062 5.5852454 2.8571899 6.3494832 2.8571899 z M 6.3494832 6.72052 C 8.1572723 6.72052 9.6376109 8.0840758 9.8221395 9.8417765 L 2.876827 9.8417765 C 3.0613515 8.0840715 4.5416911 6.72052 6.3494832 6.72052 z " />
  </g>
</svg>
