<?xml version="1.0" encoding="UTF-8" standalone="no"?>
<svg
   width="48"
   height="48"
   viewBox="0 0 12.7 12.7"
   version="1.1"
   id="svg1573"
   inkscape:version="1.2.2 (732a01da63, 2022-12-09)"
   sodipodi:docname="settings.svg"
   xmlns:inkscape="http://www.inkscape.org/namespaces/inkscape"
   xmlns:sodipodi="http://sodipodi.sourceforge.net/DTD/sodipodi-0.dtd"
   xmlns="http://www.w3.org/2000/svg"
   xmlns:svg="http://www.w3.org/2000/svg"
   xmlns:rdf="http://www.w3.org/1999/02/22-rdf-syntax-ns#"
   xmlns:cc="http://creativecommons.org/ns#"
   xmlns:dc="http://purl.org/dc/elements/1.1/">
  <defs
     id="defs1567" />
  <sodipodi:namedview
     id="base"
     pagecolor="#7f7f7f"
     bordercolor="#666666"
     borderopacity="1.0"
     inkscape:pageopacity="0"
     inkscape:pageshadow="2"
     inkscape:zoom="16"
     inkscape:cx="23.65625"
     inkscape:cy="23.53125"
     inkscape:document-units="px"
     inkscape:current-layer="layer1"
     inkscape:document-rotation="0"
     showgrid="true"
     units="px"
     inkscape:window-width="2560"
     inkscape:window-height="1373"
     inkscape:window-x="-9"
     inkscape:window-y="161"
     inkscape:window-maximized="1"
     showguides="true"
     inkscape:guide-bbox="true"
     inkscape:showpageshadow="0"
     inkscape:pagecheckerboard="0"
     inkscape:deskcolor="#7f7f7f">
    <inkscape:grid
       type="xygrid"
       id="grid2223" />
    <sodipodi:guide
       position="2.1166667,10.583333"
       orientation="1,0"
       id="guide2225"
       inkscape:locked="false" />
    <sodipodi:guide
       position="10.583333,8.73125"
       orientation="1,0"
       id="guide2227"
       inkscape:locked="false" />
    <sodipodi:guide
       position="2.6458333,10.583333"
       orientation="0,-1"
       id="guide2229"
       inkscape:locked="false" />
    <sodipodi:guide
       position="10.31875,2.1166667"
       orientation="0,-1"
       id="guide2231"
       inkscape:locked="false" />
  </sodipodi:namedview>
  <metadata
     id="metadata1570">
    <rdf:RDF>
      <cc:Work
         rdf:about="">
        <dc:format>image/svg+xml</dc:format>
        <dc:type
           rdf:resource="http://purl.org/dc/dcmitype/StillImage" />
      </cc:Work>
    </rdf:RDF>
  </metadata>
  <g
     inkscape:label="Calque 1"
     inkscape:groupmode="layer"
     id="layer1">
    <path
       style="color:#000000;fill:#000000;stroke-linecap:round;stroke-linejoin:round;-inkscape-stroke:none"
       d="m 5.6308594,2.1171875 c -0.3135074,0 -0.578125,0.2626643 -0.578125,0.5761719 V 3.2226563 C 4.7794991,3.3363877 4.5242756,3.4824787 4.2890625,3.6621094 L 3.8320313,3.3984375 C 3.5602308,3.2415138 3.1993601,3.3404507 3.0429688,3.6113281 l -0.71875,1.2441406 C 2.1677778,5.126433 2.2637962,5.4878611 2.5351563,5.6445312 L 2.9609375,5.890625 c -0.020885,0.1527169 -0.050561,0.3046327 -0.050781,0.4589844 2.205e-4,0.1543516 0.029897,0.3062675 0.050781,0.4589843 L 2.5351563,7.0546875 C 2.2637962,7.2113577 2.1677778,7.5727857 2.3242188,7.84375 l 0.71875,1.2460938 C 3.1993601,9.3607211 3.5602308,9.457705 3.8320313,9.3007813 L 4.2871094,9.0371094 c 0.2357902,0.1803634 0.4915624,0.3273304 0.765625,0.4414062 v 0.5273434 c 0,0.313509 0.2646156,0.578125 0.578125,0.578125 h 1.4375 c 0.3135093,0 0.578125,-0.264616 0.578125,-0.578125 V 9.4804688 C 7.9211254,9.3662946 8.1758801,9.2178279 8.4121094,9.0371094 L 8.8671875,9.3007813 C 9.1394708,9.4579839 9.4993758,9.3615574 9.65625,9.0898438 L 10.376953,7.84375 c 0.156442,-0.2709641 0.05847,-0.6323925 -0.21289,-0.7890625 L 9.7382813,6.8085937 C 9.7591658,6.6558769 9.788842,6.503961 9.7890625,6.3496094 9.7889859,6.1951774 9.7609979,6.0434389 9.7402344,5.890625 L 10.164063,5.6445312 c 0.27136,-0.15667 0.369332,-0.5180984 0.21289,-0.7890625 L 9.65625,3.6113281 C 9.4998587,3.3404507 9.1409411,3.2415138 8.8691406,3.3984375 L 8.4121094,3.6621094 C 8.1759067,3.4814172 7.921092,3.3329152 7.6464844,3.21875 V 2.6933594 c 0,-0.3135076 -0.2646176,-0.5761719 -0.578125,-0.5761719 z M 5.7949219,2.8574219 H 6.90625 v 0.5664062 a 0.37045353,0.37045353 0 0 0 0.2578125,0.3535157 c 0.37373,0.1183283 0.7165493,0.3155494 1.0058594,0.5800781 A 0.37045353,0.37045353 0 0 0 8.6054688,4.40625 L 9.0976563,4.1230469 9.6523438,5.0839844 9.1621094,5.3691406 A 0.37045353,0.37045353 0 0 0 8.984375,5.7695312 c 0.042188,0.1908491 0.064356,0.3846218 0.064453,0.5800782 -2.79e-4,0.195321 -0.022145,0.3893941 -0.064453,0.5800781 A 0.37045353,0.37045353 0 0 0 9.1601563,7.3320312 L 9.6523438,7.6152344 9.0957031,8.578125 8.6054688,8.2949219 A 0.37045353,0.37045353 0 0 0 8.1699219,8.3417969 C 7.8807011,8.6061054 7.5375912,8.8036209 7.1640625,8.921875 A 0.37045353,0.37045353 0 0 0 6.90625,9.2753906 V 9.8417969 H 5.7949219 V 9.2753906 A 0.37045353,0.37045353 0 0 0 5.5351562,8.921875 C 5.1614661,8.8036808 4.81865,8.6061622 4.5292969,8.3417969 A 0.37045353,0.37045353 0 0 0 4.09375,8.2949219 L 3.6035156,8.578125 3.046875,7.6152344 3.5390625,7.3320312 A 0.37045353,0.37045353 0 0 0 3.7148438,6.9296875 C 3.6725354,6.7390035 3.6506697,6.5449304 3.6503906,6.3496094 3.6506697,6.1542884 3.6725354,5.9602152 3.7148438,5.7695312 A 0.37045353,0.37045353 0 0 0 3.5390625,5.3691406 L 3.046875,5.0859375 3.6035156,4.1230469 4.09375,4.40625 A 0.37045353,0.37045353 0 0 0 4.5292969,4.359375 C 4.81865,4.0950097 5.1614661,3.895538 5.5351562,3.7773438 A 0.37045353,0.37045353 0 0 0 5.7949219,3.4238281 Z M 6.3496094,4.234375 C 5.1850916,4.234444 4.234444,5.1850916 4.234375,6.3496094 4.234444,7.5141271 5.1850916,8.4667279 6.3496094,8.4667969 7.5141271,8.4667279 8.4667279,7.5141271 8.4667969,6.3496094 8.4667279,5.1850916 7.5141271,4.234444 6.3496094,4.234375 Z m 0,0.7402344 c 0.7641733,4.52e-5 1.3769079,0.6108267 1.3769531,1.375 -4.52e-5,0.7641733 -0.6127798,1.3769079 -1.3769531,1.3769531 -0.7641733,-4.52e-5 -1.3749548,-0.6127798 -1.375,-1.3769531 4.52e-5,-0.7641733 0.6108267,-1.3749548 1.375,-1.375 z"
       id="rect82179" />
  </g>
</svg>
