<?xml version="1.0" encoding="UTF-8" standalone="no"?>
<svg
   sodipodi:docname="favicon.svg"
   inkscape:version="1.2.2 (732a01da63, 2022-12-09)"
   id="svg1573"
   version="1.1"
   viewBox="0 0 63.499999 63.500002"
   height="240"
   width="240"
   xmlns:inkscape="http://www.inkscape.org/namespaces/inkscape"
   xmlns:sodipodi="http://sodipodi.sourceforge.net/DTD/sodipodi-0.dtd"
   xmlns="http://www.w3.org/2000/svg"
   xmlns:svg="http://www.w3.org/2000/svg"
   xmlns:rdf="http://www.w3.org/1999/02/22-rdf-syntax-ns#"
   xmlns:cc="http://creativecommons.org/ns#"
   xmlns:dc="http://purl.org/dc/elements/1.1/">
  <defs
     id="defs1567" />
  <sodipodi:namedview
     inkscape:window-maximized="1"
     inkscape:window-y="162"
     inkscape:window-x="-8"
     inkscape:window-height="1387"
     inkscape:window-width="2560"
     units="px"
     showgrid="true"
     inkscape:document-rotation="0"
     inkscape:current-layer="layer2"
     inkscape:document-units="px"
     inkscape:cy="146.78571"
     inkscape:cx="209.64286"
     inkscape:zoom="2.8"
     inkscape:pageshadow="2"
     inkscape:pageopacity="0"
     borderopacity="1.0"
     bordercolor="#666666"
     pagecolor="#7f7f7f"
     id="base"
     inkscape:showpageshadow="0"
     inkscape:pagecheckerboard="0"
     inkscape:deskcolor="#7f7f7f">
    <inkscape:grid
       type="xygrid"
       id="grid252"
       originx="0"
       originy="0" />
  </sodipodi:namedview>
  <metadata
     id="metadata1570">
    <rdf:RDF>
      <cc:Work
         rdf:about="">
        <dc:format>image/svg+xml</dc:format>
        <dc:type
           rdf:resource="http://purl.org/dc/dcmitype/StillImage" />
      </cc:Work>
    </rdf:RDF>
  </metadata>
  <g
     id="layer1"
     inkscape:groupmode="layer"
     inkscape:label="Calque 1" />
  <g
     inkscape:groupmode="layer"
     id="layer2"
     inkscape:label="Calque 2">
    <path
       id="path861"
       style="opacity:1;fill:#00df77;fill-opacity:1;stroke-width:0.740833;stroke-linecap:round;stroke-linejoin:round;stop-color:#000000"
       d="M 31.749999,10.583333 A 21.166666,21.166666 0 0 0 10.583333,31.749999 21.166666,21.166666 0 0 0 31.749999,52.916666 21.166666,21.166666 0 0 0 51.465592,39.448754 L 63.5,37.041666 52.916666,31.749999 63.5,26.458333 51.465075,24.051245 A 21.166666,21.166666 0 0 0 31.749999,10.583333 Z M 39.6875,21.166666 a 2.6458333,2.6458333 0 0 1 2.645833,2.645833 2.6458333,2.6458333 0 0 1 -2.645833,2.645834 2.6458333,2.6458333 0 0 1 -2.645834,-2.645834 2.6458333,2.6458333 0 0 1 2.645834,-2.645833 z" />
  </g>
</svg>
