<?xml version="1.0" encoding="UTF-8" standalone="no"?>
<svg
   xmlns:dc="http://purl.org/dc/elements/1.1/"
   xmlns:cc="http://creativecommons.org/ns#"
   xmlns:rdf="http://www.w3.org/1999/02/22-rdf-syntax-ns#"
   xmlns:svg="http://www.w3.org/2000/svg"
   xmlns="http://www.w3.org/2000/svg"
   xmlns:sodipodi="http://sodipodi.sourceforge.net/DTD/sodipodi-0.dtd"
   xmlns:inkscape="http://www.inkscape.org/namespaces/inkscape"
   sodipodi:docname="full-logo white.svg"
   inkscape:version="1.0 (4035a4fb49, 2020-05-01)"
   id="svg1573"
   version="1.1"
   viewBox="0 0 84.666665 84.666669"
   height="320"
   width="320">
  <defs
     id="defs1567" />
  <sodipodi:namedview
     inkscape:window-maximized="1"
     inkscape:window-y="162"
     inkscape:window-x="-8"
     inkscape:window-height="1387"
     inkscape:window-width="2560"
     units="px"
     showgrid="false"
     inkscape:document-rotation="0"
     inkscape:current-layer="layer1"
     inkscape:document-units="px"
     inkscape:cy="134.14652"
     inkscape:cx="119.7842"
     inkscape:zoom="1.979899"
     inkscape:pageshadow="2"
     inkscape:pageopacity="0"
     borderopacity="1.0"
     bordercolor="#666666"
     pagecolor="#7f7f7f"
     id="base" />
  <metadata
     id="metadata1570">
    <rdf:RDF>
      <cc:Work
         rdf:about="">
        <dc:format>image/svg+xml</dc:format>
        <dc:type
           rdf:resource="http://purl.org/dc/dcmitype/StillImage" />
        <dc:title></dc:title>
      </cc:Work>
    </rdf:RDF>
  </metadata>
  <g
     id="layer1"
     inkscape:groupmode="layer"
     inkscape:label="Calque 1">
    <path
       id="path835-3"
       style="fill:#ffffff;fill-opacity:1;stroke:none;stroke-width:0.370423;stroke-linecap:square;stroke-linejoin:bevel;stroke-opacity:1;stop-color:#000000"
       d="M 42.270605,3.4307144e-4 A 32.308197,32.306578 0 0 0 42.0557,0.00160623 32.308197,32.306578 0 0 0 41.841132,0.00396412 32.308197,32.306578 0 0 0 41.411637,0.01343781 32.308197,32.306578 0 0 0 40.768016,0.038282 32.308197,32.306578 0 0 0 40.3393,0.06194516 a 32.308197,32.306578 0 0 0 -0.642821,0.04614103 32.308197,32.306578 0 0 0 -0.213768,0.0181474 32.308197,32.306578 0 0 0 -0.214146,0.0197053 32.308197,32.306578 0 0 0 -0.427138,0.0437746 32.308197,32.306578 0 0 0 -0.213368,0.0236632 32.308197,32.306578 0 0 0 -0.426337,0.0520547 32.308197,32.306578 0 0 0 -0.212569,0.0283958 32.308197,32.306578 0 0 0 -0.425536,0.0603368 32.308197,32.306578 0 0 0 -0.423979,0.0662547 32.308197,32.306578 0 0 0 -0.211768,0.0354947 32.308197,32.306578 0 0 0 -0.42278,0.0745346 32.308197,32.306578 0 0 0 -0.21101,0.0394358 32.308197,32.306578 0 0 0 -0.631811,0.12659363 32.308197,32.306578 0 0 0 -0.419642,0.0914905 32.308197,32.306578 0 0 0 -0.20941,0.0481136 32.308197,32.306578 0 0 0 -0.417662,0.0997747 32.308197,32.306578 0 0 0 -0.208612,0.0520568 32.308197,32.306578 0 0 0 -0.207831,0.0532398 32.308197,32.306578 0 0 0 -0.207852,0.054817 32.308197,32.306578 0 0 0 -0.414127,0.1135768 32.308197,32.306578 0 0 0 -0.412504,0.1190989 32.308197,32.306578 0 0 0 -0.205517,0.061918 32.308197,32.306578 0 0 0 -0.205453,0.062703 32.308197,32.306578 0 0 0 -0.204693,0.064676 32.308197,32.306578 0 0 0 -0.204696,0.065465 32.308197,32.306578 0 0 0 -1.618926,0.5745956 32.308197,32.306578 0 0 0 -0.200357,0.077688 32.308197,32.306578 0 0 0 -0.398717,0.1597199 32.308197,32.306578 0 0 0 -0.3968,0.1648442 32.308197,32.306578 0 0 0 -0.197179,0.084394 32.308197,32.306578 0 0 0 -0.3936,0.1731284 32.308197,32.306578 0 0 0 -0.1956,0.088339 32.308197,32.306578 0 0 0 -0.19522,0.08952 32.308197,32.306578 0 0 0 -0.581726,0.276848 A 32.308197,32.306578 0 0 0 27.781239,3.4633583 32.308197,32.306578 0 0 0 26.455282,4.17164 32.308197,32.306578 0 0 0 26.268355,4.2777262 32.308197,32.306578 0 0 0 25.89724,4.49384 a 32.308197,32.306578 0 0 0 -0.184569,0.1096356 32.308197,32.306578 0 0 0 -0.548989,0.3371829 32.308197,32.306578 0 0 0 -0.18181,0.1147621 32.308197,32.306578 0 0 0 -0.180633,0.1159431 32.308197,32.306578 0 0 0 -0.18023,0.1171242 32.308197,32.306578 0 0 0 -0.711895,0.480341 32.308197,32.306578 0 0 0 -0.351389,0.2472691 32.308197,32.306578 0 0 0 -0.347832,0.2520022 32.308197,32.306578 0 0 0 -0.344695,0.2567304 32.308197,32.306578 0 0 0 -1.342884,1.0711026 32.308197,32.306578 0 0 0 -0.326547,0.2788189 32.308197,32.306578 0 0 0 -0.162085,0.1411851 32.308197,32.306578 0 0 0 -0.321052,0.2855198 32.308197,32.306578 0 0 0 -0.317474,0.2894654 32.308197,32.306578 0 0 0 -1.079431,1.0462584 32.308197,32.306578 0 0 0 -0.299348,0.3079998 32.308197,32.306578 0 0 0 -0.441304,0.4692974 32.308197,32.306578 0 0 0 -0.364422,0.40265 32.308197,32.306578 0 0 0 -0.06743,0.07532 32.308197,32.306578 0 0 0 0,5.05e-4 32.308197,32.306578 0 0 0 -0.141579,0.160905 32.308197,32.306578 0 0 0 0,5.05e-4 32.308197,32.306578 0 0 0 -0.280042,0.32496 32.308197,32.306578 0 0 0 -0.02168,0.02563 32.308197,32.306578 0 0 0 -0.117138,0.138422 32.308197,32.306578 0 0 0 0,5.05e-4 32.308197,32.306578 0 0 0 -0.137642,0.164848 32.308197,32.306578 0 0 0 -0.405831,0.500451 32.308197,32.306578 0 0 0 -0.653878,0.851439 32.308197,32.306578 0 0 0 0,5.06e-4 32.308197,32.306578 0 0 0 -0.253592,0.346255 32.308197,32.306578 0 0 0 0,5.05e-4 32.308197,32.306578 0 0 0 -0.248857,0.349804 32.308197,32.306578 0 0 0 -0.244521,0.353351 32.308197,32.306578 0 0 0 -0.239394,0.356508 32.308197,32.306578 0 0 0 -0.235054,0.359664 32.308197,32.306578 0 0 0 -0.455125,0.728398 32.308197,32.306578 0 0 0 0,5.05e-4 32.308197,32.306578 0 0 0 -0.220065,0.368339 32.308197,32.306578 0 0 0 0,5.06e-4 32.308197,32.306578 0 0 0 -0.108457,0.185354 32.308197,32.306578 0 0 0 -0.212971,0.373072 32.308197,32.306578 0 0 0 -0.104511,0.187325 32.308197,32.306578 0 0 0 0,5.05e-4 32.308197,32.306578 0 0 0 -0.205476,0.377015 32.308197,32.306578 0 0 0 -0.166036,0.314707 32.308197,32.306578 0 0 0 -0.03431,0.06507 32.308197,32.306578 0 0 0 0,5.06e-4 32.308197,32.306578 0 0 0 -0.385316,0.767442 32.308197,32.306578 0 0 0 -0.275677,0.582478 32.308197,32.306578 0 0 0 -0.597893,1.379104 32.308197,32.306578 0 0 0 0,5.05e-4 32.308197,32.306578 0 0 0 -0.15854,0.398706 32.308197,32.306578 0 0 0 -0.04772,0.123044 32.308197,32.306578 0 0 0 -0.02998,0.0773 32.308197,32.306578 0 0 0 0,5.06e-4 32.308197,32.306578 0 0 0 -0.436584,1.211891 32.308197,32.306578 0 0 0 0,4.21e-4 32.308197,32.306578 0 0 0 -0.134883,0.407775 32.308197,32.306578 0 0 0 -0.129358,0.409353 32.308197,32.306578 0 0 0 -0.123837,0.411327 32.308197,32.306578 0 0 0 -0.118317,0.412903 32.308197,32.306578 0 0 0 -0.271732,1.038763 32.308197,32.306578 0 0 0 0,4.21e-4 32.308197,32.306578 0 0 0 -0.0099,0.04023 32.308197,32.306578 0 0 0 -0.08914,0.377408 32.308197,32.306578 0 0 0 -0.181415,0.83961 32.308197,32.306578 0 0 0 0,4.21e-4 32.308197,32.306578 0 0 0 -0.04181,0.2102 32.308197,32.306578 0 0 0 0,4.21e-4 32.308197,32.306578 0 0 0 -0.04062,0.210594 32.308197,32.306578 0 0 0 0,4.21e-4 32.308197,32.306578 0 0 0 -0.397542,2.762542 32.308197,32.306578 0 0 0 -0.03983,0.427491 32.308197,32.306578 0 0 0 -0.03431,0.428288 32.308197,32.306578 0 0 0 -0.04062,0.642816 32.308197,32.306578 0 0 0 0,4.21e-4 32.308197,32.306578 0 0 0 -0.01063,0.214142 32.308197,32.306578 0 0 0 0,4.21e-4 32.308197,32.306578 0 0 0 -0.0095,0.214144 32.308197,32.306578 0 0 0 0,4.21e-4 32.308197,32.306578 0 0 0 -0.01933,0.643608 32.308197,32.306578 0 0 0 0,4.21e-4 32.308197,32.306578 0 0 0 -0.0055,0.429073 32.308197,32.306578 0 0 0 0,4.21e-4 32.308197,32.306578 0 0 0 -8.42e-4,0.2143 32.308197,32.306578 0 0 0 8.42e-4,0.183774 32.308197,32.306578 0 0 0 0,0.04653 32.308197,32.306578 0 0 0 0.0017,0.138031 32.308197,32.306578 0 0 0 8.42e-4,0.08124 32.308197,32.306578 0 0 0 0.0017,0.102538 32.308197,32.306578 0 0 0 0.0032,0.153407 32.308197,32.306578 0 0 0 0.0039,0.173126 32.308197,32.306578 0 0 0 0.0031,0.104901 32.308197,32.306578 0 0 0 0.0051,0.151437 32.308197,32.306578 0 0 0 0.0083,0.214538 32.308197,32.306578 0 0 0 0.0071,0.164844 32.308197,32.306578 0 0 0 0.0099,0.19837 32.308197,32.306578 0 0 0 4.21e-4,0.0063 32.308197,32.306578 0 0 0 0.01221,0.212564 32.308197,32.306578 0 0 0 0.01341,0.212565 32.308197,32.306578 0 0 0 0,0.0028 32.308197,32.306578 0 0 0 0.01499,0.213352 32.308197,32.306578 0 0 0 0.01657,0.214142 32.308197,32.306578 0 0 0 0.01775,0.214145 32.308197,32.306578 0 0 0 0.01933,0.213745 32.308197,32.306578 0 0 0 0.01497,0.154199 32.308197,32.306578 0 0 0 0.01183,0.119097 32.308197,32.306578 0 0 0 4.21e-4,0.0047 32.308197,32.306578 0 0 0 0.02091,0.197581 32.308197,32.306578 0 0 0 0.0013,0.01299 32.308197,32.306578 0 0 0 0.01697,0.152227 32.308197,32.306578 0 0 0 0.0201,0.173127 32.308197,32.306578 0 0 0 0.0099,0.08044 32.308197,32.306578 0 0 0 0.0024,0.0209 32.308197,32.306578 0 0 0 0.01893,0.152229 32.308197,32.306578 0 0 0 0.0213,0.163265 32.308197,32.306578 0 0 0 0.01263,0.09623 32.308197,32.306578 0 0 0 0.0063,0.04456 32.308197,32.306578 0 0 0 0.02248,0.162086 32.308197,32.306578 0 0 0 0.0028,0.0201 32.308197,32.306578 0 0 0 0.02209,0.151832 32.308197,32.306578 0 0 0 0.02721,0.182198 32.308197,32.306578 0 0 0 0.01303,0.08282 32.308197,32.306578 0 0 0 0.0024,0.01655 32.308197,32.306578 0 0 0 0.02918,0.184564 32.308197,32.306578 0 0 0 0.01853,0.110027 32.308197,32.306578 0 0 0 0.01381,0.0836 32.308197,32.306578 0 0 0 0.01813,0.106875 32.308197,32.306578 0 0 0 0.02287,0.129352 32.308197,32.306578 0 0 0 0.0063,0.03746 32.308197,32.306578 0 0 0 0.03037,0.168399 32.308197,32.306578 0 0 0 0.01339,0.07296 32.308197,32.306578 0 0 0 0.02367,0.126196 32.308197,32.306578 0 0 0 0.0213,0.110817 32.308197,32.306578 0 0 0 0.02169,0.111999 32.308197,32.306578 0 0 0 0.01063,0.05442 32.308197,32.306578 0 0 0 0.03352,0.166423 32.308197,32.306578 0 0 0 0.0051,0.02563 32.308197,32.306578 0 0 0 0.03431,0.165638 32.308197,32.306578 0 0 0 0.02879,0.134087 32.308197,32.306578 0 0 0 0.01697,0.07808 32.308197,32.306578 0 0 0 0.01183,0.05481 32.308197,32.306578 0 0 0 0.03234,0.148287 32.308197,32.306578 0 0 0 0.03195,0.139998 32.308197,32.306578 0 0 0 0.0213,0.09149 32.308197,32.306578 0 0 0 0.0032,0.01421 32.308197,32.306578 0 0 0 0.04812,0.20428 32.308197,32.306578 0 0 0 0.04338,0.17865 32.308197,32.306578 0 0 0 0.03115,0.126594 32.308197,32.306578 0 0 0 0.01973,0.07809 32.308197,32.306578 0 0 0 0.02524,0.100562 32.308197,32.306578 0 0 0 0.02761,0.106478 32.308197,32.306578 0 0 0 0.03234,0.123438 32.308197,32.306578 0 0 0 0.02524,0.09701 32.308197,32.306578 0 0 0 0.01775,0.06507 32.308197,32.306578 0 0 0 0.03668,0.136849 32.308197,32.306578 0 0 0 0.03234,0.115941 32.308197,32.306578 0 0 0 0.02366,0.08518 32.308197,32.306578 0 0 0 0.01855,0.06625 32.308197,32.306578 0 0 0 0.102146,0.354141 32.308197,32.306578 0 0 0 0.04023,0.134086 32.308197,32.306578 0 0 0 0.02051,0.06744 32.308197,32.306578 0 0 0 0.01775,0.05876 32.308197,32.306578 0 0 0 0.04732,0.155773 32.308197,32.306578 0 0 0 0.03156,0.100564 32.308197,32.306578 0 0 0 0.03392,0.106871 32.308197,32.306578 0 0 0 0.01497,0.04692 32.308197,32.306578 0 0 0 0.04969,0.15578 32.308197,32.306578 0 0 0 0.02564,0.07768 32.308197,32.306578 0 0 0 0.03707,0.113971 32.308197,32.306578 0 0 0 0.03747,0.112005 32.308197,32.306578 0 0 0 0.0347,0.102926 32.308197,32.306578 0 0 0 0.02366,0.06862 32.308197,32.306578 0 0 0 0.04733,0.138425 32.308197,32.306578 0 0 0 0.01973,0.0556 32.308197,32.306578 0 0 0 0.04772,0.13724 32.308197,32.306578 0 0 0 0.04141,0.115155 32.308197,32.306578 0 0 0 0.0284,0.07927 32.308197,32.306578 0 0 0 0.03392,0.09386 32.308197,32.306578 0 0 0 0.04338,0.118706 32.308197,32.306578 0 0 0 0.03826,0.102139 32.308197,32.306578 0 0 0 0.03629,0.09702 32.308197,32.306578 0 0 0 0.02327,0.06191 32.308197,32.306578 0 0 0 0.05758,0.150257 32.308197,32.306578 0 0 0 0.0051,0.01381 32.308197,32.306578 0 0 0 0.05561,0.143156 32.308197,32.306578 0 0 0 0.06271,0.159324 32.308197,32.306578 0 0 0 0.03195,0.08045 32.308197,32.306578 0 0 0 0.01657,0.04141 32.308197,32.306578 0 0 0 0.06705,0.166423 32.308197,32.306578 0 0 0 0.01183,0.02839 32.308197,32.306578 0 0 0 0.07375,0.178256 32.308197,32.306578 0 0 0 0.06349,0.151832 32.308197,32.306578 0 0 0 0.07967,0.187324 32.308197,32.306578 0 0 0 0.05167,0.119097 32.308197,32.306578 0 0 0 0.05837,0.134088 32.308197,32.306578 0 0 0 0.08716,0.196392 32.308197,32.306578 0 0 0 0.08558,0.190085 32.308197,32.306578 0 0 0 0.02603,0.0564 32.308197,32.306578 0 0 0 0.04694,0.102141 32.308197,32.306578 0 0 0 0.07848,0.168394 32.308197,32.306578 0 0 0 0.0091,0.01973 32.308197,32.306578 0 0 0 0.04535,0.09623 32.308197,32.306578 0 0 0 0.06823,0.143549 32.308197,32.306578 0 0 0 0.01303,0.02682 32.308197,32.306578 0 0 0 0.06586,0.136451 32.308197,32.306578 0 0 0 0.04339,0.08795 32.308197,32.306578 0 0 0 0.05758,0.117917 32.308197,32.306578 0 0 0 0.04417,0.08834 32.308197,32.306578 0 0 0 0.04812,0.09583 32.308197,32.306578 0 0 0 0.04851,0.09623 32.308197,32.306578 0 0 0 0.04851,0.09544 32.308197,32.306578 0 0 0 0.03786,0.07335 32.308197,32.306578 0 0 0 0.06429,0.124619 32.308197,32.306578 0 0 0 0.01063,0.0205 32.308197,32.306578 0 0 0 0.07138,0.135669 32.308197,32.306578 0 0 0 0.07493,0.14118 32.308197,32.306578 0 0 0 0.05167,0.09662 32.308197,32.306578 0 0 0 0.01103,0.0205 32.308197,32.306578 0 0 0 0.09111,0.167608 32.308197,32.306578 0 0 0 0.0099,0.01774 32.308197,32.306578 0 0 0 0.09741,0.177072 32.308197,32.306578 0 0 0 0.09939,0.177858 32.308197,32.306578 0 0 0 0.03944,0.06902 32.308197,32.306578 0 0 0 0.05127,0.08992 32.308197,32.306578 0 0 0 0.07572,0.132112 32.308197,32.306578 0 0 0 0.028,0.04851 32.308197,32.306578 0 0 0 0.08085,0.138818 32.308197,32.306578 0 0 0 0.03707,0.06271 32.308197,32.306578 0 0 0 0.03668,0.06271 32.308197,32.306578 0 0 0 0.08716,0.146309 32.308197,32.306578 0 0 0 0.0043,0.0067 32.308197,32.306578 0 0 0 0.09623,0.159719 32.308197,32.306578 0 0 0 0.05719,0.09347 32.308197,32.306578 0 0 0 0.04812,0.07807 32.308197,32.306578 0 0 0 0.05008,0.08046 32.308197,32.306578 0 0 0 0.08085,0.130143 32.308197,32.306578 0 0 0 0.0043,0.0063 32.308197,32.306578 0 0 0 0.112005,0.177466 32.308197,32.306578 0 0 0 0.112401,0.175493 32.308197,32.306578 0 0 0 0.028,0.04299 32.308197,32.306578 0 0 0 0.07375,0.113185 32.308197,32.306578 0 0 0 0.06981,0.106083 32.308197,32.306578 0 0 0 0.04378,0.06665 32.308197,32.306578 0 0 0 0.07138,0.107267 32.308197,32.306578 0 0 0 0.06113,0.0911 32.308197,32.306578 0 0 0 0.03944,0.05837 32.308197,32.306578 0 0 0 0.07059,0.10372 32.308197,32.306578 0 0 0 0.0213,0.03155 32.308197,32.306578 0 0 0 0.08716,0.126196 32.308197,32.306578 0 0 0 0.111219,0.160113 32.308197,32.306578 0 0 0 0.01853,0.02643 32.308197,32.306578 0 0 0 0.07257,0.102929 32.308197,32.306578 0 0 0 0.07217,0.101354 32.308197,32.306578 0 0 0 0.028,0.03904 32.308197,32.306578 0 0 0 0.08598,0.119885 32.308197,32.306578 0 0 0 0.09938,0.136845 32.308197,32.306578 0 0 0 0.01341,0.01813 32.308197,32.306578 0 0 0 0.06941,0.09425 32.308197,32.306578 0 0 0 0.0911,0.123045 32.308197,32.306578 0 0 0 0.128964,0.171943 32.308197,32.306578 0 0 0 0.09268,0.122257 32.308197,32.306578 0 0 0 0.08479,0.110817 32.308197,32.306578 0 0 0 0.0836,0.108056 32.308197,32.306578 0 0 0 0.121474,0.155776 32.308197,32.306578 0 0 0 0.04891,0.06152 32.308197,32.306578 0 0 0 0.07217,0.0911 32.308197,32.306578 0 0 0 0.02288,0.02918 32.308197,32.306578 0 0 0 0.09621,0.119889 32.308197,32.306578 0 0 0 0.135284,0.166423 32.308197,32.306578 0 0 0 0.09465,0.11555 32.308197,32.306578 0 0 0 0.04141,0.05047 32.308197,32.306578 0 0 0 0.03943,0.04734 32.308197,32.306578 0 0 0 0.122652,0.146706 32.308197,32.306578 0 0 0 0.04575,0.05403 32.308197,32.306578 0 0 0 0.09545,0.112787 32.308197,32.306578 0 0 0 0.01263,0.01499 32.308197,32.306578 0 0 0 0.100169,0.116341 32.308197,32.306578 0 0 0 0.134105,0.154985 32.308197,32.306578 0 0 0 0.01095,0.01263 32.308197,32.306578 0 0 0 0.08874,0.100563 32.308197,32.306578 0 0 0 0.06785,0.0773 32.308197,32.306578 0 0 0 0.02128,0.02405 32.308197,32.306578 0 0 0 0.102547,0.114369 32.308197,32.306578 0 0 0 0.04101,0.04574 32.308197,32.306578 0 0 0 0.102927,0.113579 32.308197,32.306578 0 0 0 0.09032,0.09899 32.308197,32.306578 0 0 0 0.09623,0.104505 32.308197,32.306578 0 0 0 0.104526,0.112396 32.308197,32.306578 0 0 0 0.12619,0.134085 32.308197,32.306578 0 0 0 0.03509,0.03746 32.308197,32.306578 0 0 0 0.109643,0.115158 32.308197,32.306578 0 0 0 0.0292,0.03037 32.308197,32.306578 0 0 0 0.144336,0.149463 32.308197,32.306578 0 0 0 0.113979,0.116737 32.308197,32.306578 0 0 0 0.07217,0.07335 32.308197,32.306578 0 0 0 0.0284,0.02839 32.308197,32.306578 0 0 0 0.108442,0.109241 32.308197,32.306578 0 0 0 0.109263,0.108454 32.308197,32.306578 0 0 0 0.02838,0.02839 32.308197,32.306578 0 0 0 0.07337,0.07217 32.308197,32.306578 0 0 0 0.116737,0.113972 32.308197,32.306578 0 0 0 0.149473,0.144336 32.308197,32.306578 0 0 0 0.03036,0.02918 32.308197,32.306578 0 0 0 0.115158,0.109633 32.308197,32.306578 0 0 0 0.03747,0.0351 32.308197,32.306578 0 0 0 0.134084,0.126191 32.308197,32.306578 0 0 0 0.1124,0.104507 32.308197,32.306578 0 0 0 0.104527,0.09623 32.308197,32.306578 0 0 0 0.09899,0.09031 32.308197,32.306578 0 0 0 0.159327,0.143944 32.308197,32.306578 0 0 0 0.138421,0.123831 32.308197,32.306578 0 0 0 0.07733,0.06783 32.308197,32.306578 0 0 0 0.100569,0.08873 32.308197,32.306578 0 0 0 0.01263,0.01103 32.308197,32.306578 0 0 0 0.15499,0.13409 32.308197,32.306578 0 0 0 0.131326,0.112785 32.308197,32.306578 0 0 0 0.1128,0.09544 32.308197,32.306578 0 0 0 0.05402,0.04575 32.308197,32.306578 0 0 0 0.0288,0.02445 32.308197,32.306578 0 0 0 0.117916,0.0982 32.308197,32.306578 0 0 0 0.09781,0.08085 32.308197,32.306578 0 0 0 0.115556,0.09465 32.308197,32.306578 0 0 0 0.166822,0.135267 32.308197,32.306578 0 0 0 0.151832,0.121859 32.308197,32.306578 0 0 0 0.08796,0.06941 32.308197,32.306578 0 0 0 0.06152,0.0489 32.308197,32.306578 0 0 0 0.03471,0.02721 32.308197,32.306578 0 0 0 0.121074,0.09425 32.308197,32.306578 0 0 0 0.108063,0.08361 32.308197,32.306578 0 0 0 0.110821,0.08479 32.308197,32.306578 0 0 0 0.122253,0.09268 32.308197,32.306578 0 0 0 0.171937,0.128957 32.308197,32.306578 0 0 0 0.123052,0.0911 32.308197,32.306578 0 0 0 0.09425,0.06941 32.308197,32.306578 0 0 0 0.01263,0.0091 32.308197,32.306578 0 0 0 0.166042,0.120676 32.308197,32.306578 0 0 0 0.143179,0.102931 32.308197,32.306578 0 0 0 0.09345,0.06625 32.308197,32.306578 0 0 0 0.102928,0.07256 32.308197,32.306578 0 0 0 0.02642,0.01856 32.308197,32.306578 0 0 0 0.160125,0.111208 32.308197,32.306578 0 0 0 0.15779,0.10845 32.308197,32.306578 0 0 0 0.103705,0.07059 32.308197,32.306578 0 0 0 0.05838,0.03944 32.308197,32.306578 0 0 0 0.09109,0.06113 32.308197,32.306578 0 0 0 0.107284,0.07138 32.308197,32.306578 0 0 0 0.06665,0.04378 32.308197,32.306578 0 0 0 0.106085,0.0698 32.308197,32.306578 0 0 0 0.113179,0.07375 32.308197,32.306578 0 0 0 0.04299,0.028 32.308197,32.306578 0 0 0 0.175495,0.112402 32.308197,32.306578 0 0 0 0.177495,0.111998 32.308197,32.306578 0 0 0 0.0063,0.0043 32.308197,32.306578 0 0 0 0.130147,0.08085 32.308197,32.306578 0 0 0 0.08044,0.05009 32.308197,32.306578 0 0 0 0.07809,0.04812 32.308197,32.306578 0 0 0 0.09347,0.05718 32.308197,32.306578 0 0 0 0.159725,0.09623 32.308197,32.306578 0 0 0 0.0067,0.0043 32.308197,32.306578 0 0 0 0.146317,0.08716 32.308197,32.306578 0 0 0 0.06272,0.03667 32.308197,32.306578 0 0 0 0.06269,0.03707 32.308197,32.306578 0 0 0 0.138843,0.08086 32.308197,32.306578 0 0 0 0.04851,0.028 32.308197,32.306578 0 0 0 0.132104,0.07572 32.308197,32.306578 0 0 0 0.08994,0.05127 32.308197,32.306578 0 0 0 0.06899,0.03944 32.308197,32.306578 0 0 0 0.177895,0.09938 32.308197,32.306578 0 0 0 0.177073,0.09741 32.308197,32.306578 0 0 0 0.01768,0.0099 32.308197,32.306578 0 0 0 0.167622,0.0911 32.308197,32.306578 0 0 0 0.02042,0.01103 32.308197,32.306578 0 0 0 0.09661,0.05166 32.308197,32.306578 0 0 0 0.141222,0.07493 32.308197,32.306578 0 0 0 0.156167,0.08203 32.308197,32.306578 0 0 0 0.124612,0.06428 32.308197,32.306578 0 0 0 0.07335,0.03786 32.308197,32.306578 0 0 0 0.09547,0.0485 32.308197,32.306578 0 0 0 0.09621,0.04849 32.308197,32.306578 0 0 0 0.09585,0.04812 32.308197,32.306578 0 0 0 0.08832,0.04417 32.308197,32.306578 0 0 0 0.117916,0.05758 32.308197,32.306578 0 0 0 0.08796,0.04337 32.308197,32.306578 0 0 0 0.05958,0.0284 32.308197,32.306578 0 0 0 0.156169,0.07533 32.308197,32.306578 0 0 0 0.189683,0.08991 32.308197,32.306578 0 0 0 0.01726,0.0079 32.308197,32.306578 0 0 0 0.168422,0.07847 32.308197,32.306578 0 0 0 0.102125,0.04693 32.308197,32.306578 0 0 0 0.0564,0.02603 32.308197,32.306578 0 0 0 0.190105,0.08557 32.308197,32.306578 0 0 0 0.196401,0.08716 32.308197,32.306578 0 0 0 0.134084,0.05836 32.308197,32.306578 0 0 0 0.119095,0.05167 32.308197,32.306578 0 0 0 0.187326,0.07965 32.308197,32.306578 0 0 0 0.09545,0.03983 32.308197,32.306578 0 0 0 0.06823,0.0284 32.308197,32.306578 0 0 0 0.134883,0.056 32.308197,32.306578 0 0 0 0.06509,0.02682 32.308197,32.306578 0 0 0 0.161284,0.06507 32.308197,32.306578 0 0 0 0.04141,0.01656 32.308197,32.306578 0 0 0 0.08049,0.03195 32.308197,32.306578 0 0 0 0.159305,0.0627 32.308197,32.306578 0 0 0 0.156969,0.06073 32.308197,32.306578 0 0 0 0.150252,0.05758 32.308197,32.306578 0 0 0 0.06194,0.02327 32.308197,32.306578 0 0 0 0.09701,0.03628 32.308197,32.306578 0 0 0 0.102148,0.03825 32.308197,32.306578 0 0 0 0.118693,0.04338 32.308197,32.306578 0 0 0 0.09387,0.03391 32.308197,32.306578 0 0 0 0.07926,0.0284 32.308197,32.306578 0 0 0 0.115178,0.04141 32.308197,32.306578 0 0 0 0.137243,0.04772 32.308197,32.306578 0 0 0 0.05562,0.01973 32.308197,32.306578 0 0 0 0.1384,0.04733 32.308197,32.306578 0 0 0 0.06863,0.02366 32.308197,32.306578 0 0 0 0.102946,0.0347 32.308197,32.306578 0 0 0 0.112,0.03747 32.308197,32.306578 0 0 0 0.11398,0.03708 32.308197,32.306578 0 0 0 0.07768,0.02563 32.308197,32.306578 0 0 0 0.15577,0.04969 32.308197,32.306578 0 0 0 0.04693,0.01499 32.308197,32.306578 0 0 0 0.106904,0.03392 32.308197,32.306578 0 0 0 0.100569,0.03155 32.308197,32.306578 0 0 0 0.155789,0.04733 32.308197,32.306578 0 0 0 0.05874,0.01775 32.308197,32.306578 0 0 0 0.06745,0.0205 32.308197,32.306578 0 0 0 0.134126,0.04022 32.308197,32.306578 0 0 0 0.354147,0.102147 32.308197,32.306578 0 0 0 0.06625,0.01853 32.308197,32.306578 0 0 0 0.08518,0.02366 32.308197,32.306578 0 0 0 0.115957,0.03233 32.308197,32.306578 0 0 0 0.136863,0.03668 32.308197,32.306578 0 0 0 0.06505,0.01775 32.308197,32.306578 0 0 0 0.09701,0.02524 32.308197,32.306578 0 0 0 0.123453,0.03233 32.308197,32.306578 0 0 0 0.106506,0.02761 32.308197,32.306578 0 0 0 0.100546,0.02524 32.308197,32.306578 0 0 0 0.07808,0.01973 32.308197,32.306578 0 0 0 0.126611,0.03115 32.308197,32.306578 0 0 0 0.107684,0.02603 32.308197,32.306578 0 0 0 0.115138,0.0276 32.308197,32.306578 0 0 0 0.04733,0.01143 32.308197,32.306578 0 0 0 0.170378,0.03983 32.308197,32.306578 0 0 0 0.02326,0.0051 32.308197,32.306578 0 0 0 0.164842,0.03786 32.308197,32.306578 0 0 0 0.148316,0.03234 32.308197,32.306578 0 0 0 0.05482,0.01183 32.308197,32.306578 0 0 0 0.07808,0.01696 32.308197,32.306578 0 0 0 0.134085,0.02879 32.308197,32.306578 0 0 0 0.165642,0.03431 32.308197,32.306578 0 0 0 0.02564,0.0051 32.308197,32.306578 0 0 0 0.166443,0.03352 32.308197,32.306578 0 0 0 0.05442,0.01063 32.308197,32.306578 0 0 0 0.112,0.02169 32.308197,32.306578 0 0 0 0.110822,0.0213 32.308197,32.306578 0 0 0 0.126209,0.02366 32.308197,32.306578 0 0 0 0.07297,0.0134 32.308197,32.306578 0 0 0 0.168379,0.03036 32.308197,32.306578 0 0 0 0.03747,0.0063 32.308197,32.306578 0 0 0 0.129348,0.02288 32.308197,32.306578 0 0 0 0.106905,0.01813 32.308197,32.306578 0 0 0 0.0836,0.01381 32.308197,32.306578 0 0 0 0.110042,0.01853 32.308197,32.306578 0 0 0 0.184547,0.02919 32.308197,32.306578 0 0 0 0.01663,0.0023 32.308197,32.306578 0 0 0 0.08284,0.01299 32.308197,32.306578 0 0 0 0.18219,0.02721 32.308197,32.306578 0 0 0 0.171937,0.02484 32.308197,32.306578 0 0 0 0.162105,0.02248 32.308197,32.306578 0 0 0 0.04457,0.0063 32.308197,32.306578 0 0 0 0.09623,0.01261 32.308197,32.306578 0 0 0 0.163262,0.02129 32.308197,32.306578 0 0 0 0.173137,0.02129 32.308197,32.306578 0 0 0 0.08044,0.0099 32.308197,32.306578 0 0 0 0.173159,0.02011 32.308197,32.306578 0 0 0 0.165241,0.01812 32.308197,32.306578 0 0 0 0.1976,0.0209 32.308197,32.306578 0 0 0 0.0032,6.32e-4 32.308197,32.306578 0 0 0 0.0021,0 32.308197,32.306578 0 0 0 0.119116,0.01183 32.308197,32.306578 0 0 0 0.154189,0.01498 32.308197,32.306578 0 0 0 0.213747,0.01933 32.308197,32.306578 0 0 0 0.214169,0.01775 32.308197,32.306578 0 0 0 0.214147,0.01654 32.308197,32.306578 0 0 0 0.213368,0.015 32.308197,32.306578 0 0 0 0.0027,0 32.308197,32.306578 0 0 0 0.212569,0.01339 32.308197,32.306578 0 0 0 0.212568,0.01225 32.308197,32.306578 0 0 0 0.0021,0 32.308197,32.306578 0 0 0 0.0046,6.31e-4 32.308197,32.306578 0 0 0 0.198379,0.0099 32.308197,32.306578 0 0 0 0.01137,6.32e-4 32.308197,32.306578 0 0 0 0.153411,0.0067 32.308197,32.306578 0 0 0 0.214547,0.0083 32.308197,32.306578 0 0 0 0.151453,0.0051 32.308197,32.306578 0 0 0 0.104905,0.0032 32.308197,32.306578 0 0 0 0.01979,6.32e-4 32.308197,32.306578 0 0 0 0.153411,0.0036 32.308197,32.306578 0 0 0 0.153432,0.0031 32.308197,32.306578 0 0 0 0.102525,0.0017 32.308197,32.306578 0 0 0 0.08124,8.42e-4 32.308197,32.306578 0 0 0 0.184589,0.0017 32.308197,32.306578 0 0 0 0.183664,8.43e-4 32.308197,32.306578 0 0 0 0.183768,-8.43e-4 32.308197,32.306578 0 0 0 0.03116,0 32.308197,32.306578 0 0 0 0.15341,-0.0017 32.308197,32.306578 0 0 0 0.08124,-8.42e-4 32.308197,32.306578 0 0 0 0.102549,-0.0017 32.308197,32.306578 0 0 0 0.15341,-0.0031 32.308197,32.306578 0 0 0 0.173137,-0.004 32.308197,32.306578 0 0 0 0.104884,-0.0032 32.308197,32.306578 0 0 0 0.151474,-0.0051 32.308197,32.306578 0 0 0 0.214526,-0.0083 32.308197,32.306578 0 0 0 0.164863,-0.0071 32.308197,32.306578 0 0 0 0.198379,-0.0099 32.308197,32.306578 0 0 0 0.0046,-6.31e-4 32.308197,32.306578 0 0 0 0.0021,0 32.308197,32.306578 0 0 0 0.21259,-0.01223 32.308197,32.306578 0 0 0 0.212568,-0.01338 32.308197,32.306578 0 0 0 0.0021,0 32.308197,32.306578 0 0 0 0.213369,-0.01497 32.308197,32.306578 0 0 0 0.136441,-0.01025 32.308197,32.306578 0 0 0 0.129369,-0.01027 32.308197,32.306578 0 0 0 0.0095,-8.43e-4 32.308197,32.306578 0 0 0 0.153051,-0.01303 32.308197,32.306578 0 0 0 0.213749,-0.01933 32.308197,32.306578 0 0 0 0.15421,-0.01498 32.308197,32.306578 0 0 0 0.119116,-0.01183 32.308197,32.306578 0 0 0 0.0021,0 32.308197,32.306578 0 0 0 0.0032,-6.31e-4 32.308197,32.306578 0 0 0 0.197579,-0.0209 32.308197,32.306578 0 0 0 0.165241,-0.01813 32.308197,32.306578 0 0 0 0.173138,-0.02011 32.308197,32.306578 0 0 0 0.08046,-0.0099 32.308197,32.306578 0 0 0 0.173138,-0.02129 32.308197,32.306578 0 0 0 0.163262,-0.02129 32.308197,32.306578 0 0 0 0.09623,-0.01261 32.308197,32.306578 0 0 0 0.04457,-0.0063 32.308197,32.306578 0 0 0 0.162083,-0.02248 32.308197,32.306578 0 0 0 0.171959,-0.02485 32.308197,32.306578 0 0 0 0.182211,-0.02721 32.308197,32.306578 0 0 0 0.08282,-0.01299 32.308197,32.306578 0 0 0 0.01663,-0.0023 32.308197,32.306578 0 0 0 0.184569,-0.02918 32.308197,32.306578 0 0 0 0.110021,-0.01853 32.308197,32.306578 0 0 0 0.08362,-0.01381 32.308197,32.306578 0 0 0 0.106885,-0.01813 32.308197,32.306578 0 0 0 0.129347,-0.02287 32.308197,32.306578 0 0 0 0.03747,-0.0063 32.308197,32.306578 0 0 0 0.168422,-0.03037 32.308197,32.306578 0 0 0 0.07297,-0.01339 32.308197,32.306578 0 0 0 0.126188,-0.02367 32.308197,32.306578 0 0 0 0.110843,-0.02129 32.308197,32.306578 0 0 0 0.111999,-0.02169 32.308197,32.306578 0 0 0 0.05442,-0.01063 32.308197,32.306578 0 0 0 0.166422,-0.03352 32.308197,32.306578 0 0 0 0.02564,-0.0051 32.308197,32.306578 0 0 0 0.165642,-0.03431 32.308197,32.306578 0 0 0 0.134106,-0.02879 32.308197,32.306578 0 0 0 0.07808,-0.01697 32.308197,32.306578 0 0 0 0.0548,-0.01183 32.308197,32.306578 0 0 0 0.148295,-0.03234 32.308197,32.306578 0 0 0 0.140021,-0.03195 32.308197,32.306578 0 0 0 0.09149,-0.02129 32.308197,32.306578 0 0 0 0.0141,-0.0032 32.308197,32.306578 0 0 0 0.204294,-0.04812 32.308197,32.306578 0 0 0 0.149075,-0.03589 32.308197,32.306578 0 0 0 0.02958,-0.0075 32.308197,32.306578 0 0 0 0.126611,-0.03116 32.308197,32.306578 0 0 0 0.07809,-0.01973 32.308197,32.306578 0 0 0 0.100546,-0.02524 32.308197,32.306578 0 0 0 0.106505,-0.02761 32.308197,32.306578 0 0 0 0.123454,-0.03233 32.308197,32.306578 0 0 0 0.09701,-0.02524 32.308197,32.306578 0 0 0 0.06505,-0.01775 32.308197,32.306578 0 0 0 0.136864,-0.03667 32.308197,32.306578 0 0 0 0.115957,-0.03233 32.308197,32.306578 0 0 0 0.0852,-0.02366 32.308197,32.306578 0 0 0 0.06625,-0.01856 32.308197,32.306578 0 0 0 0.354167,-0.102145 32.308197,32.306578 0 0 0 0.134105,-0.04022 32.308197,32.306578 0 0 0 0.06743,-0.02051 32.308197,32.306578 0 0 0 0.05874,-0.01775 32.308197,32.306578 0 0 0 0.155789,-0.04733 32.308197,32.306578 0 0 0 0.100569,-0.03155 32.308197,32.306578 0 0 0 0.106905,-0.03392 32.308197,32.306578 0 0 0 0.04693,-0.01499 32.308197,32.306578 0 0 0 0.155769,-0.04969 32.308197,32.306578 0 0 0 0.07769,-0.02564 32.308197,32.306578 0 0 0 0.113979,-0.03707 32.308197,32.306578 0 0 0 0.112021,-0.03747 32.308197,32.306578 0 0 0 0.102926,-0.0347 32.308197,32.306578 0 0 0 0.06863,-0.02366 32.308197,32.306578 0 0 0 0.138421,-0.04733 32.308197,32.306578 0 0 0 0.0556,-0.01973 32.308197,32.306578 0 0 0 0.137244,-0.04773 32.308197,32.306578 0 0 0 0.115177,-0.04141 32.308197,32.306578 0 0 0 0.07926,-0.02839 32.308197,32.306578 0 0 0 0.09387,-0.03391 32.308197,32.306578 0 0 0 0.118694,-0.04338 32.308197,32.306578 0 0 0 0.102147,-0.03825 32.308197,32.306578 0 0 0 0.09703,-0.03628 32.308197,32.306578 0 0 0 0.06192,-0.02326 32.308197,32.306578 0 0 0 0.164042,-0.06271 32.308197,32.306578 0 0 0 0.18381,-0.07138 32.308197,32.306578 0 0 0 0.01663,-0.0063 32.308197,32.306578 0 0 0 0.179875,-0.07138 32.308197,32.306578 0 0 0 0.05244,-0.0213 32.308197,32.306578 0 0 0 0.07415,-0.02957 V 42.990925 A 16.1541,16.153289 0 0 1 42.334532,48.460116 16.1541,16.153289 0 0 1 26.180408,32.306828 16.1541,16.153289 0 0 1 42.334532,16.153534 16.1541,16.153289 0 0 1 54.450108,21.62223 V 2.3578705 a 32.308197,32.306578 0 0 0 -0.164062,-0.065859 32.308197,32.306578 0 0 0 -0.0355,-0.01419 32.308197,32.306578 0 0 0 -0.164063,-0.064282 32.308197,32.306578 0 0 0 -0.194463,-0.075325 32.308197,32.306578 0 0 0 -0.0059,-0.00236 32.308197,32.306578 0 0 0 -0.03589,-0.01381 32.308197,32.306578 0 0 0 -0.165241,-0.06231 32.308197,32.306578 0 0 0 -0.03549,-0.01339 32.308197,32.306578 0 0 0 -0.16564,-0.061522 32.308197,32.306578 0 0 0 -0.0359,-0.012989 32.308197,32.306578 0 0 0 -0.166043,-0.060339 32.308197,32.306578 0 0 0 -0.03587,-0.012989 32.308197,32.306578 0 0 0 -0.166442,-0.059155 32.308197,32.306578 0 0 0 -0.03589,-0.012632 32.308197,32.306578 0 0 0 -0.16682,-0.057973 32.308197,32.306578 0 0 0 -0.172337,-0.059157 32.308197,32.306578 0 0 0 -0.03076,-0.010253 32.308197,32.306578 0 0 0 -0.03627,-0.012211 32.308197,32.306578 0 0 0 -0.167621,-0.056001 32.308197,32.306578 0 0 0 -0.0363,-0.011853 32.308197,32.306578 0 0 0 -0.204294,-0.066255 32.308197,32.306578 0 0 0 -0.09147,-0.029183 32.308197,32.306578 0 0 0 -0.07651,-0.02445 32.308197,32.306578 0 0 0 -0.123452,-0.038648 32.308197,32.306578 0 0 0 -0.118317,-0.036676 32.308197,32.306578 0 0 0 -0.168799,-0.051265 32.308197,32.306578 0 0 0 -0.03667,-0.011052 32.308197,32.306578 0 0 0 -0.169199,-0.050478 32.308197,32.306578 0 0 0 -0.03667,-0.010632 32.308197,32.306578 0 0 0 -0.206275,-0.059549 32.308197,32.306578 0 0 0 -0.169978,-0.048112 32.308197,32.306578 0 0 0 -0.03669,-0.010274 32.308197,32.306578 0 0 0 -0.170378,-0.046928 32.308197,32.306578 0 0 0 -0.03667,-0.00985 32.308197,32.306578 0 0 0 -0.170759,-0.045747 32.308197,32.306578 0 0 0 -0.171178,-0.044958 32.308197,32.306578 0 0 0 -0.03667,-0.00947 32.308197,32.306578 0 0 0 -0.03667,-0.00947 A 32.308197,32.306578 0 0 0 50.2014,0.9728944 32.308197,32.306578 0 0 0 50.009736,0.9255681 32.308197,32.306578 0 0 0 49.993106,0.9212311 32.308197,32.306578 0 0 0 49.956056,0.9121781 32.308197,32.306578 0 0 0 49.784076,0.8711634 32.308197,32.306578 0 0 0 49.575066,0.8222602 32.308197,32.306578 0 0 0 49.537996,0.8135862 32.308197,32.306578 0 0 0 49.365661,0.7745441 32.308197,32.306578 0 0 0 49.328171,0.7662701 32.308197,32.306578 0 0 0 49.155833,0.7288027 32.308197,32.306578 0 0 0 49.038318,0.7035648 32.308197,32.306578 0 0 0 48.90857,0.6763543 32.308197,32.306578 0 0 0 48.735413,0.6408617 32.308197,32.306578 0 0 0 48.697963,0.6333667 32.308197,32.306578 0 0 0 48.524827,0.5990551 32.308197,32.306578 0 0 0 48.337499,0.5631688 a 32.308197,32.306578 0 0 0 -0.02366,-0.004716 32.308197,32.306578 0 0 0 -0.03747,-0.007095 32.308197,32.306578 0 0 0 -0.173915,-0.0319474 32.308197,32.306578 0 0 0 -0.03747,-0.006695 32.308197,32.306578 0 0 0 -0.173936,-0.03076 32.308197,32.306578 0 0 0 -0.190885,-0.0327326 32.308197,32.306578 0 0 0 -0.02084,-0.003558 32.308197,32.306578 0 0 0 -0.03747,-0.006295 32.308197,32.306578 0 0 0 -0.04653,-0.007495 32.308197,32.306578 0 0 0 -0.165243,-0.0272126 32.308197,32.306578 0 0 0 -0.174315,-0.0272105 32.308197,32.306578 0 0 0 -0.03785,-0.005916 32.308197,32.306578 0 0 0 -0.174736,-0.0260294 32.308197,32.306578 0 0 0 -0.03745,-0.005516 32.308197,32.306578 0 0 0 -0.175117,-0.02524 32.308197,32.306578 0 0 0 -0.03747,-0.005116 32.308197,32.306578 0 0 0 -0.175095,-0.0240568 32.308197,32.306578 0 0 0 -0.03785,-0.005116 32.308197,32.306578 0 0 0 -0.175115,-0.02248 A 32.308197,32.306578 0 0 0 46.191714,0.2315584 32.308197,32.306578 0 0 0 45.978745,0.2067121 32.308197,32.306578 0 0 0 45.940895,0.2023751 32.308197,32.306578 0 0 0 45.7654,0.1830488 32.308197,32.306578 0 0 0 45.72753,0.1791118 32.308197,32.306578 0 0 0 45.551636,0.1609855 32.308197,32.306578 0 0 0 45.344983,0.1412592 32.308197,32.306578 0 0 0 45.337783,0.1404171 32.308197,32.306578 0 0 0 45.299933,0.1368591 32.308197,32.306578 0 0 0 45.124037,0.1210906 32.308197,32.306578 0 0 0 44.909849,0.1033431 32.308197,32.306578 0 0 0 44.748943,0.09071154 32.308197,32.306578 0 0 0 44.695703,0.08677464 32.308197,32.306578 0 0 0 44.657853,0.08401674 32.308197,32.306578 0 0 0 44.601473,0.08007994 32.308197,32.306578 0 0 0 44.443273,0.06944369 32.308197,32.306578 0 0 0 44.267,0.05838139 32.308197,32.306578 0 0 0 44.22915,0.05602346 32.308197,32.306578 0 0 0 44.052877,0.04617088 32.308197,32.306578 0 0 0 44.014627,0.04406552 32.308197,32.306578 0 0 0 43.838311,0.03539181 32.308197,32.306578 0 0 0 43.645447,0.0267181 32.308197,32.306578 0 0 0 43.623767,0.02587599 32.308197,32.306578 0 0 0 43.585517,0.02419176 32.308197,32.306578 0 0 0 43.408849,0.01790209 32.308197,32.306578 0 0 0 43.370979,0.0166389 32.308197,32.306578 0 0 0 43.194285,0.0115231 32.308197,32.306578 0 0 0 43.009738,0.00718627 32.308197,32.306578 0 0 0 42.979758,0.00634415 32.308197,32.306578 0 0 0 42.941508,0.00550206 32.308197,32.306578 0 0 0 42.76481,0.00275355 32.308197,32.306578 0 0 0 42.72656,0.0023325 32.308197,32.306578 0 0 0 42.550265,6.4828882e-4 32.308197,32.306578 0 0 0 42.33536,1.6709938e-5 a 32.308197,32.306578 0 0 0 -0.06154,0 z M 58.486226,4.3289181 V 26.653275 l 8.077069,1.615324 -8.077069,4.038324 8.077069,4.038323 -8.077069,1.615329 V 60.284927 A 32.308197,32.306578 0 0 0 74.640328,32.306923 32.308197,32.306578 0 0 0 58.486226,4.3289181 Z M 48.386015,24.230279 a 2.0192624,2.0191614 0 0 0 -2.015347,2.019159 2.0192624,2.0191614 0 0 0 2.019284,2.019161 2.0192624,2.0191614 0 0 0 2.01922,-2.019161 2.0192624,2.0191614 0 0 0 -2.01922,-2.019159 2.0192624,2.0191614 0 0 0 -0.0038,0 z" />
    <path
       style="fill:#ffffff;fill-opacity:1;stroke:none;stroke-width:0.370419;stroke-linecap:square;stroke-linejoin:bevel;stroke-opacity:1;stop-color:#000000"
       d="M 8.8953079,66.842334 A 8.9122787,8.9122763 0 0 0 0,75.754611 8.9122787,8.9122763 0 0 0 8.9122785,84.66689 8.9122787,8.9122763 0 0 0 12.254384,84.016527 v -5.314509 a 4.4561393,4.4561382 0 0 1 -3.3421055,1.508731 4.4561393,4.4561382 0 0 1 -4.4561382,-4.456138 4.4561393,4.4561382 0 0 1 4.4561382,-4.456137 4.4561393,4.4561382 0 0 1 3.3421055,1.508841 v -5.314619 a 8.9122787,8.9122763 0 0 0 -3.3421055,-0.650362 8.9122787,8.9122763 0 0 0 -0.016968,0 z"
       id="path835-5-0" />
    <path
       id="rect847-8-1"
       style="fill:#ffffff;fill-opacity:1;stroke:none;stroke-width:0.370419;stroke-linecap:square;stroke-linejoin:bevel;stroke-opacity:1;stop-color:#000000"
       d="m 13.368418,66.842334 v 6.684208 0.668421 1.559648 1.559649 1.225438 6.127192 h 4.456141 v -6.684209 h 3.342105 v 6.684209 h 4.456138 V 66.842334 h -4.456138 v 6.684208 h -3.342105 v -6.684208 z" />
    <rect
       style="fill:#ffffff;fill-opacity:1;stroke:none;stroke-width:0.370419;stroke-linecap:square;stroke-linejoin:bevel;stroke-opacity:1;stop-color:#000000"
       id="rect867-2-7"
       width="4.4561396"
       height="17.824553"
       x="26.736816"
       y="66.842361" />
    <path
       id="rect869-7-8-7"
       style="fill:#ffffff;fill-opacity:1;stroke:none;stroke-width:0.370419;stroke-linecap:square;stroke-linejoin:bevel;stroke-opacity:1;stop-color:#000000"
       d="m 45.675425,66.842334 v 2.989507 7.389509 7.44554 h 4.456147 v -4.456141 h 1.096947 0.01705 a 6.6842093,6.6842075 0 0 0 6.684209,-6.684207 6.6842093,6.6842075 0 0 0 -6.684209,-6.684208 h -1.114042 z m 4.456147,4.45614 h 1.109789 0.0042 a 2.2280697,2.2280691 0 0 1 2.228064,2.228068 2.2280697,2.2280691 0 0 1 -2.228064,2.228069 h -1.114042 z" />
    <path
       id="path877-0-2-0-8"
       style="fill:#ffffff;fill-opacity:1;stroke:none;stroke-width:0.370419;stroke-linecap:square;stroke-linejoin:bevel;stroke-opacity:1;stop-color:#000000"
       d="m 65.728053,66.842334 a 6.6842093,6.6842075 0 0 0 -6.684208,6.684208 v 4.456139 a 6.6842093,6.6842075 0 0 0 6.684208,6.684209 h 5.570191 v -4.456141 h -5.570191 a 2.2280697,2.2280691 0 0 1 -2.228057,-2.228068 h 5.570163 v -4.456139 h -5.570163 a 2.2280697,2.2280691 0 0 1 2.228057,-2.228068 h 5.570191 v -4.45614 z" />
    <path
       id="path1214-4-0"
       style="fill:#ffffff;fill-opacity:1;stroke:none;stroke-width:0.370419;stroke-linecap:square;stroke-linejoin:bevel;stroke-opacity:1;stop-color:#000000"
       d="m 32.307008,66.842334 v 15.596485 2.228071 h 0.382293 4.073852 v -2.223825 a 2.2280697,2.2280691 0 0 1 0,-0.0042 v -1.671052 -0.557019 h 1.114042 a 2.2280697,2.2280691 0 0 1 2.228063,2.228071 v 2.22807 h 4.456147 v -2.22807 a 6.6842093,6.6842075 0 0 0 -1.702168,-4.456139 6.6842093,6.6842075 0 0 0 1.702168,-4.45614 6.6842093,6.6842075 0 0 0 -6.68421,-6.684207 h -1.114042 z m 4.456145,4.45614 h 1.114042 a 2.2280697,2.2280691 0 0 1 2.228063,2.228068 2.2280697,2.2280691 0 0 1 -2.223831,2.228069 2.2280697,2.2280691 0 0 1 -0.0042,0 h -1.114052 v -2.223824 a 2.2280697,2.2280691 0 0 1 0,-0.0042 z" />
    <path
       id="path1214-6-0-3"
       style="fill:#ffffff;fill-opacity:1;stroke:none;stroke-width:0.370419;stroke-linecap:square;stroke-linejoin:bevel;stroke-opacity:1;stop-color:#000000"
       d="m 72.412263,66.842334 v 15.596485 2.228071 h 0.382298 4.073853 v -2.223825 a 2.2280697,2.2280691 0 0 1 0,-0.0042 v -1.671052 -0.557019 h 1.11404 a 2.2280697,2.2280691 0 0 1 2.228065,2.228071 v 2.22807 h 4.456145 v -2.22807 a 6.6842093,6.6842075 0 0 0 -1.702169,-4.456139 6.6842093,6.6842075 0 0 0 1.702169,-4.45614 6.6842093,6.6842075 0 0 0 -6.68421,-6.684207 h -1.11404 z m 4.456151,4.45614 h 1.11404 a 2.2280697,2.2280691 0 0 1 2.228065,2.228068 2.2280697,2.2280691 0 0 1 -2.223838,2.228069 2.2280697,2.2280691 0 0 1 -0.0042,0 h -1.114014 v -2.223824 a 2.2280697,2.2280691 0 0 1 0,-0.0042 z" />
  </g>
</svg>
