<?xml version="1.0" encoding="UTF-8" standalone="no"?>
<svg
   xmlns:dc="http://purl.org/dc/elements/1.1/"
   xmlns:cc="http://creativecommons.org/ns#"
   xmlns:rdf="http://www.w3.org/1999/02/22-rdf-syntax-ns#"
   xmlns:svg="http://www.w3.org/2000/svg"
   xmlns="http://www.w3.org/2000/svg"
   xmlns:sodipodi="http://sodipodi.sourceforge.net/DTD/sodipodi-0.dtd"
   xmlns:inkscape="http://www.inkscape.org/namespaces/inkscape"
   sodipodi:docname="icon accent.svg"
   inkscape:version="1.0 (4035a4fb49, 2020-05-01)"
   id="svg1573"
   version="1.1"
   viewBox="0 0 84.666665 84.666669"
   height="320"
   width="320">
  <defs
     id="defs1567" />
  <sodipodi:namedview
     inkscape:window-maximized="1"
     inkscape:window-y="162"
     inkscape:window-x="-8"
     inkscape:window-height="1387"
     inkscape:window-width="2560"
     units="px"
     showgrid="false"
     inkscape:document-rotation="0"
     inkscape:current-layer="layer1"
     inkscape:document-units="px"
     inkscape:cy="128.08723"
     inkscape:cx="128.73331"
     inkscape:zoom="1.979899"
     inkscape:pageshadow="2"
     inkscape:pageopacity="0"
     borderopacity="1.0"
     bordercolor="#666666"
     pagecolor="#7f7f7f"
     id="base" />
  <metadata
     id="metadata1570">
    <rdf:RDF>
      <cc:Work
         rdf:about="">
        <dc:format>image/svg+xml</dc:format>
        <dc:type
           rdf:resource="http://purl.org/dc/dcmitype/StillImage" />
        <dc:title></dc:title>
      </cc:Work>
    </rdf:RDF>
  </metadata>
  <g
     id="layer1"
     inkscape:groupmode="layer"
     inkscape:label="Calque 1">
    <path
       id="path835-3"
       style="fill:#00df77;fill-opacity:1;stroke:none;stroke-width:0.370417;stroke-linecap:square;stroke-linejoin:bevel;stroke-opacity:1;stop-color:#000000"
       d="m 42.25114,4.045021e-4 a 42.334886,42.33255 0 0 0 -0.281603,0.001655178 42.334886,42.33255 0 0 0 -0.281131,0.00308966 42.334886,42.33255 0 0 0 -0.562791,0.01241381 42.334886,42.33255 0 0 0 -0.843371,0.03255454 42.334886,42.33255 0 0 0 -0.561769,0.03100694 42.334886,42.33255 0 0 0 -0.842322,0.06045803 42.334886,42.33255 0 0 0 -0.280114,0.0237794 42.334886,42.33255 0 0 0 -0.280609,0.0258207 42.334886,42.33255 0 0 0 -0.559672,0.0573601 42.334886,42.33255 0 0 0 -0.279589,0.0310069 42.334886,42.33255 0 0 0 -0.558651,0.0682125 42.334886,42.33255 0 0 0 -0.278541,0.0372056 42.334886,42.33255 0 0 0 -0.557602,0.0790622 42.334886,42.33255 0 0 0 -0.555565,0.0868167 42.334886,42.33255 0 0 0 -0.277492,0.0465077 42.334886,42.33255 0 0 0 -0.553989,0.0976663 42.334886,42.33255 0 0 0 -0.276499,0.0516746 42.334886,42.33255 0 0 0 -0.827868,0.16588166 42.334886,42.33255 0 0 0 -0.549879,0.11988428 42.334886,42.33255 0 0 0 -0.274402,0.063043 42.334886,42.33255 0 0 0 -0.547286,0.1307395 42.334886,42.33255 0 0 0 -0.273354,0.068213 42.334886,42.33255 0 0 0 -0.272334,0.069763 42.334886,42.33255 0 0 0 -0.272359,0.071826 42.334886,42.33255 0 0 0 -0.542654,0.1488251 42.334886,42.33255 0 0 0 -0.540526,0.1560609 42.334886,42.33255 0 0 0 -0.269272,0.081134 42.334886,42.33255 0 0 0 -0.269214,0.08216 42.334886,42.33255 0 0 0 -0.268223,0.084748 42.334886,42.33255 0 0 0 -0.268224,0.085782 42.334886,42.33255 0 0 0 -2.121365,0.7529147 42.334886,42.33255 0 0 0 -0.26254,0.1017957 42.334886,42.33255 0 0 0 -0.52246,0.2092889 42.334886,42.33255 0 0 0 -0.51992,0.2160029 42.334886,42.33255 0 0 0 -0.258374,0.1105851 42.334886,42.33255 0 0 0 -0.515755,0.2268527 42.334886,42.33255 0 0 0 -0.256306,0.1157549 42.334886,42.33255 0 0 0 -0.255809,0.1173021 42.334886,42.33255 0 0 0 -0.762267,0.3627649 42.334886,42.33255 0 0 0 -0.504363,0.2501077 42.334886,42.33255 0 0 0 -1.737446,0.9280928 42.334886,42.33255 0 0 0 -0.244939,0.1390066 42.334886,42.33255 0 0 0 -0.486293,0.2831812 42.334886,42.33255 0 0 0 -0.24185,0.1436585 42.334886,42.33255 0 0 0 -0.719371,0.4418268 42.334886,42.33255 0 0 0 -0.238236,0.1503752 42.334886,42.33255 0 0 0 -0.236691,0.1519266 42.334886,42.33255 0 0 0 -0.236168,0.1534731 42.334886,42.33255 0 0 0 -0.932806,0.629408 42.334886,42.33255 0 0 0 -0.460445,0.3240055 42.334886,42.33255 0 0 0 -0.455783,0.3302075 42.334886,42.33255 0 0 0 -0.451672,0.3364055 42.334886,42.33255 0 0 0 -1.759653,1.4035062 42.334886,42.33255 0 0 0 -0.427894,0.3653461 42.334886,42.33255 0 0 0 -0.212386,0.185 42.334886,42.33255 0 0 0 -0.420666,0.37413 42.334886,42.33255 0 0 0 -0.416003,0.379296 42.334886,42.33255 0 0 0 -1.414437,1.370952 42.334886,42.33255 0 0 0 -0.392251,0.403584 42.334886,42.33255 0 0 0 -0.578267,0.614938 42.334886,42.33255 0 0 0 -0.47752,0.527607 42.334886,42.33255 0 0 0 -0.08836,0.0987 42.334886,42.33255 0 0 0 0,6.62e-4 42.334886,42.33255 0 0 0 -0.185519,0.210839 42.334886,42.33255 0 0 0 0,6.62e-4 42.334886,42.33255 0 0 0 -0.366927,0.425807 42.334886,42.33255 0 0 0 -0.02841,0.03359 42.334886,42.33255 0 0 0 -0.1534903,0.181382 42.334886,42.33255 0 0 0 0,6.62e-4 42.334886,42.33255 0 0 0 -0.1803602,0.216005 42.334886,42.33255 0 0 0 -0.5317832,0.65576 42.334886,42.33255 0 0 0 -0.8568138,1.115674 42.334886,42.33255 0 0 0 0,6.62e-4 42.334886,42.33255 0 0 0 -0.3322919,0.45371 42.334886,42.33255 0 0 0 0,6.62e-4 42.334886,42.33255 0 0 0 -0.3260877,0.458363 42.334886,42.33255 0 0 0 -0.3204078,0.46301 42.334886,42.33255 0 0 0 -0.3136877,0.467145 42.334886,42.33255 0 0 0 -0.308005,0.471282 42.334886,42.33255 0 0 0 -0.5963685,0.954448 42.334886,42.33255 0 0 0 0,6.62e-4 42.334886,42.33255 0 0 0 -0.2883609,0.482651 42.334886,42.33255 0 0 0 0,6.62e-4 42.334886,42.33255 0 0 0 -0.1421164,0.242876 42.334886,42.33255 0 0 0 -0.2790643,0.488851 42.334886,42.33255 0 0 0 -0.1369473,0.245457 42.334886,42.33255 0 0 0 0,6.62e-4 42.334886,42.33255 0 0 0 -0.2692433,0.494018 42.334886,42.33255 0 0 0 -0.2175683,0.412373 42.334886,42.33255 0 0 0 -0.044961,0.08526 42.334886,42.33255 0 0 0 0,6.62e-4 42.334886,42.33255 0 0 0 -0.5048947,1.005608 42.334886,42.33255 0 0 0 -0.3612328,0.763244 42.334886,42.33255 0 0 0 -0.7834455,1.807094 42.334886,42.33255 0 0 0 0,6.62e-4 42.334886,42.33255 0 0 0 -0.2077449,0.522438 42.334886,42.33255 0 0 0 -0.06253,0.161231 42.334886,42.33255 0 0 0 -0.039278,0.101284 42.334886,42.33255 0 0 0 0,6.62e-4 42.334886,42.33255 0 0 0 -0.5720757,1.587988 42.334886,42.33255 0 0 0 0,5.52e-4 42.334886,42.33255 0 0 0 -0.1767433,0.534323 42.334886,42.33255 0 0 0 -0.1695019,0.536391 42.334886,42.33255 0 0 0 -0.1622715,0.538976 42.334886,42.33255 0 0 0 -0.1550355,0.541043 42.334886,42.33255 0 0 0 -0.3560633,1.361132 42.334886,42.33255 0 0 0 0,5.51e-4 42.334886,42.33255 0 0 0 -0.01291,0.05271 42.334886,42.33255 0 0 0 -0.1167953,0.494531 42.334886,42.33255 0 0 0 -0.23771753,1.100174 42.334886,42.33255 0 0 0 0,5.51e-4 42.334886,42.33255 0 0 0 -0.0547813,0.275431 42.334886,42.33255 0 0 0 0,5.52e-4 42.334886,42.33255 0 0 0 -0.0532281,0.275949 42.334886,42.33255 0 0 0 0,5.51e-4 42.334886,42.33255 0 0 0 -0.52091955,3.61987 42.334886,42.33255 0 0 0 -0.0521935,0.560157 42.334886,42.33255 0 0 0 -0.0449603,0.561197 42.334886,42.33255 0 0 0 -0.05322797,0.842311 42.334886,42.33255 0 0 0 0,5.51e-4 42.334886,42.33255 0 0 0 -0.01393115,0.280597 42.334886,42.33255 0 0 0 0,5.52e-4 42.334886,42.33255 0 0 0 -0.01238629,0.280603 42.334886,42.33255 0 0 0 0,5.52e-4 42.334886,42.33255 0 0 0 -0.02532431,0.843348 42.334886,42.33255 0 0 0 0,5.52e-4 42.334886,42.33255 0 0 0 -0.00722764,0.562228 42.334886,42.33255 0 0 0 0,5.52e-4 A 42.334886,42.33255 0 0 0 0,42.334143 a 42.334886,42.33255 0 0 0 0.00110345,0.240807 42.334886,42.33255 0 0 0 0,0.06097 42.334886,42.33255 0 0 0 0.00220692,0.180869 42.334886,42.33255 0 0 0 0.00110345,0.106448 42.334886,42.33255 0 0 0 0.00220692,0.134358 42.334886,42.33255 0 0 0 0.00413793,0.201018 42.334886,42.33255 0 0 0 0.0051587,0.226853 42.334886,42.33255 0 0 0 0.0041103,0.137456 42.334886,42.33255 0 0 0 0.0067311,0.198433 42.334886,42.33255 0 0 0 0.01084146,0.281122 42.334886,42.33255 0 0 0 0.0092966,0.215997 42.334886,42.33255 0 0 0 0.01291043,0.259933 42.334886,42.33255 0 0 0 5.5173e-4,0.0082 42.334886,42.33255 0 0 0 0.01600011,0.278531 42.334886,42.33255 0 0 0 0.01757252,0.278534 42.334886,42.33255 0 0 0 0,0.0036 42.334886,42.33255 0 0 0 0.01964155,0.279563 42.334886,42.33255 0 0 0 0.0217105,0.280597 42.334886,42.33255 0 0 0 0.0232553,0.280603 42.334886,42.33255 0 0 0 0.0253244,0.280079 42.334886,42.33255 0 0 0 0.019614,0.20205 42.334886,42.33255 0 0 0 0.0155036,0.15606 42.334886,42.33255 0 0 0 5.5173e-4,0.0062 42.334886,42.33255 0 0 0 0.0273933,0.258898 42.334886,42.33255 0 0 0 0.001655,0.01702 42.334886,42.33255 0 0 0 0.0222347,0.199471 42.334886,42.33255 0 0 0 0.026345,0.226853 42.334886,42.33255 0 0 0 0.0129103,0.105417 42.334886,42.33255 0 0 0 0.00309,0.02739 42.334886,42.33255 0 0 0 0.0248003,0.199473 42.334886,42.33255 0 0 0 0.0279064,0.213932 42.334886,42.33255 0 0 0 0.0165517,0.12609 42.334886,42.33255 0 0 0 0.008248,0.05839 42.334886,42.33255 0 0 0 0.0294568,0.212387 42.334886,42.33255 0 0 0 0.003614,0.02634 42.334886,42.33255 0 0 0 0.0289409,0.198948 42.334886,42.33255 0 0 0 0.0356582,0.238744 42.334886,42.33255 0 0 0 0.0170759,0.108517 42.334886,42.33255 0 0 0 0.00309,0.02168 42.334886,42.33255 0 0 0 0.0382403,0.241841 42.334886,42.33255 0 0 0 0.0242761,0.144173 42.334886,42.33255 0 0 0 0.0180966,0.10955 42.334886,42.33255 0 0 0 0.0237523,0.140043 42.334886,42.33255 0 0 0 0.0299724,0.169495 42.334886,42.33255 0 0 0 0.008248,0.04909 42.334886,42.33255 0 0 0 0.0397959,0.220656 42.334886,42.33255 0 0 0 0.0175454,0.0956 42.334886,42.33255 0 0 0 0.0310097,0.16536 42.334886,42.33255 0 0 0 0.0279062,0.145207 42.334886,42.33255 0 0 0 0.0284193,0.146758 42.334886,42.33255 0 0 0 0.013931,0.07131 42.334886,42.33255 0 0 0 0.0439288,0.218072 42.334886,42.33255 0 0 0 0.006703,0.03358 42.334886,42.33255 0 0 0 0.0449606,0.217043 42.334886,42.33255 0 0 0 0.0377269,0.175699 42.334886,42.33255 0 0 0 0.022235,0.102314 42.334886,42.33255 0 0 0 0.0155034,0.07182 42.334886,42.33255 0 0 0 0.0423757,0.194306 42.334886,42.33255 0 0 0 0.041862,0.183445 42.334886,42.33255 0 0 0 0.027906,0.119889 42.334886,42.33255 0 0 0 0.00414,0.01862 42.334886,42.33255 0 0 0 0.063049,0.267675 42.334886,42.33255 0 0 0 0.056847,0.234092 42.334886,42.33255 0 0 0 0.040822,0.165881 42.334886,42.33255 0 0 0 0.025849,0.102319 42.334886,42.33255 0 0 0 0.033076,0.131771 42.334886,42.33255 0 0 0 0.036174,0.139522 42.334886,42.33255 0 0 0 0.042376,0.161745 42.334886,42.33255 0 0 0 0.033073,0.127122 42.334886,42.33255 0 0 0 0.023255,0.08526 42.334886,42.33255 0 0 0 0.048061,0.179318 42.334886,42.33255 0 0 0 0.042373,0.151923 42.334886,42.33255 0 0 0 0.031007,0.111618 42.334886,42.33255 0 0 0 0.024303,0.08682 42.334886,42.33255 0 0 0 0.1338465,0.464046 42.334886,42.33255 0 0 0 0.052709,0.175699 42.334886,42.33255 0 0 0 0.02687,0.08836 42.334886,42.33255 0 0 0 0.023255,0.077 42.334886,42.33255 0 0 0 0.062012,0.204115 42.334886,42.33255 0 0 0 0.041347,0.131773 42.334886,42.33255 0 0 0 0.044442,0.140038 42.334886,42.33255 0 0 0 0.019614,0.06149 42.334886,42.33255 0 0 0 0.065115,0.204127 42.334886,42.33255 0 0 0 0.033595,0.101799 42.334886,42.33255 0 0 0 0.048577,0.149335 42.334886,42.33255 0 0 0 0.049093,0.14677 42.334886,42.33255 0 0 0 0.045476,0.134863 42.334886,42.33255 0 0 0 0.031007,0.08992 42.334886,42.33255 0 0 0 0.062011,0.181384 42.334886,42.33255 0 0 0 0.025849,0.07286 42.334886,42.33255 0 0 0 0.06253,0.179835 42.334886,42.33255 0 0 0 0.054263,0.150891 42.334886,42.33255 0 0 0 0.037208,0.103867 42.334886,42.33255 0 0 0 0.044442,0.122991 42.334886,42.33255 0 0 0 0.056844,0.155542 42.334886,42.33255 0 0 0 0.050133,0.133831 42.334886,42.33255 0 0 0 0.047545,0.127129 42.334886,42.33255 0 0 0 0.030488,0.08113 42.334886,42.33255 0 0 0 0.075451,0.196883 42.334886,42.33255 0 0 0 0.0067,0.0181 42.334886,42.33255 0 0 0 0.072867,0.18758 42.334886,42.33255 0 0 0 0.082166,0.208773 42.334886,42.33255 0 0 0 0.041862,0.105418 42.334886,42.33255 0 0 0 0.02171,0.05423 42.334886,42.33255 0 0 0 0.087852,0.218075 42.334886,42.33255 0 0 0 0.015503,0.03719 42.334886,42.33255 0 0 0 0.096641,0.233572 42.334886,42.33255 0 0 0 0.083201,0.198952 42.334886,42.33255 0 0 0 0.1043926,0.245462 42.334886,42.33255 0 0 0 0.0677,0.156055 42.334886,42.33255 0 0 0 0.076481,0.175702 42.334886,42.33255 0 0 0 0.1142077,0.257335 42.334886,42.33255 0 0 0 0.1121443,0.249082 42.334886,42.33255 0 0 0 0.034108,0.0739 42.334886,42.33255 0 0 0 0.061498,0.133842 42.334886,42.33255 0 0 0 0.1028394,0.220652 42.334886,42.33255 0 0 0 0.011862,0.02587 42.334886,42.33255 0 0 0 0.059429,0.126091 42.334886,42.33255 0 0 0 0.089405,0.188094 42.334886,42.33255 0 0 0 0.017076,0.03514 42.334886,42.33255 0 0 0 0.086301,0.178797 42.334886,42.33255 0 0 0 0.056847,0.115239 42.334886,42.33255 0 0 0 0.075449,0.154505 42.334886,42.33255 0 0 0 0.057879,0.115757 42.334886,42.33255 0 0 0 0.063049,0.125567 42.334886,42.33255 0 0 0 0.063564,0.126085 42.334886,42.33255 0 0 0 0.063565,0.12506 42.334886,42.33255 0 0 0 0.049611,0.09612 42.334886,42.33255 0 0 0 0.084238,0.163288 42.334886,42.33255 0 0 0 0.013931,0.02687 42.334886,42.33255 0 0 0 0.093537,0.177766 42.334886,42.33255 0 0 0 0.098188,0.184998 42.334886,42.33255 0 0 0 0.0677,0.126605 42.334886,42.33255 0 0 0 0.014455,0.02687 42.334886,42.33255 0 0 0 0.1193773,0.219624 42.334886,42.33255 0 0 0 0.01291,0.02323 42.334886,42.33255 0 0 0 0.1276422,0.232022 42.334886,42.33255 0 0 0 0.1302301,0.233054 42.334886,42.33255 0 0 0 0.051677,0.09043 42.334886,42.33255 0 0 0 0.067184,0.117821 42.334886,42.33255 0 0 0 0.099223,0.173114 42.334886,42.33255 0 0 0 0.03669,0.06356 42.334886,42.33255 0 0 0 0.1059398,0.181903 42.334886,42.33255 0 0 0 0.048579,0.08216 42.334886,42.33255 0 0 0 0.048061,0.08216 42.334886,42.33255 0 0 0 0.1142108,0.191718 42.334886,42.33255 0 0 0 0.00568,0.0088 42.334886,42.33255 0 0 0 0.1260944,0.20928 42.334886,42.33255 0 0 0 0.074936,0.122477 42.334886,42.33255 0 0 0 0.063049,0.102317 42.334886,42.33255 0 0 0 0.065628,0.105413 42.334886,42.33255 0 0 0 0.1059426,0.170532 42.334886,42.33255 0 0 0 0.00568,0.0082 42.334886,42.33255 0 0 0 0.1467652,0.232535 42.334886,42.33255 0 0 0 0.1472811,0.229959 42.334886,42.33255 0 0 0 0.036695,0.05633 42.334886,42.33255 0 0 0 0.096638,0.148309 42.334886,42.33255 0 0 0 0.091471,0.139013 42.334886,42.33255 0 0 0 0.05736,0.08733 42.334886,42.33255 0 0 0 0.09354,0.140552 42.334886,42.33255 0 0 0 0.0801,0.119371 42.334886,42.33255 0 0 0 0.05168,0.07648 42.334886,42.33255 0 0 0 0.092503,0.135906 42.334886,42.33255 0 0 0 0.027906,0.04132 42.334886,42.33255 0 0 0 0.114208,0.165363 42.334886,42.33255 0 0 0 0.1457357,0.209804 42.334886,42.33255 0 0 0 0.024276,0.03465 42.334886,42.33255 0 0 0 0.09509,0.134869 42.334886,42.33255 0 0 0 0.094569,0.132806 42.334886,42.33255 0 0 0 0.03669,0.05115 42.334886,42.33255 0 0 0 0.1126577,0.157086 42.334886,42.33255 0 0 0 0.1302295,0.179311 42.334886,42.33255 0 0 0 0.017572,0.02378 42.334886,42.33255 0 0 0 0.090953,0.123509 42.334886,42.33255 0 0 0 0.1193743,0.161225 42.334886,42.33255 0 0 0 0.1689887,0.225307 42.334886,42.33255 0 0 0 0.1214466,0.160199 42.334886,42.33255 0 0 0 0.1111151,0.145208 42.334886,42.33255 0 0 0 0.1095459,0.141589 42.334886,42.33255 0 0 0 0.1591735,0.204122 42.334886,42.33255 0 0 0 0.064083,0.08061 42.334886,42.33255 0 0 0 0.094567,0.119366 42.334886,42.33255 0 0 0 0.029986,0.03823 42.334886,42.33255 0 0 0 0.1260701,0.157098 42.334886,42.33255 0 0 0 0.17727,0.218064 42.334886,42.33255 0 0 0 0.1240282,0.151415 42.334886,42.33255 0 0 0 0.054262,0.06614 42.334886,42.33255 0 0 0 0.051669,0.06201 42.334886,42.33255 0 0 0 0.1607184,0.192237 42.334886,42.33255 0 0 0 0.059945,0.07079 42.334886,42.33255 0 0 0 0.1250765,0.147791 42.334886,42.33255 0 0 0 0.01655,0.01964 42.334886,42.33255 0 0 0 0.131256,0.152447 42.334886,42.33255 0 0 0 0.175698,0.203078 42.334886,42.33255 0 0 0 0.01434,0.01655 42.334886,42.33255 0 0 0 0.116277,0.131779 42.334886,42.33255 0 0 0 0.08891,0.10128 42.334886,42.33255 0 0 0 0.02789,0.0315 42.334886,42.33255 0 0 0 0.134374,0.149865 42.334886,42.33255 0 0 0 0.05374,0.05994 42.334886,42.33255 0 0 0 0.134869,0.148828 42.334886,42.33255 0 0 0 0.118346,0.129704 42.334886,42.33255 0 0 0 0.126098,0.136938 42.334886,42.33255 0 0 0 0.136966,0.147278 42.334886,42.33255 0 0 0 0.165352,0.175696 42.334886,42.33255 0 0 0 0.04599,0.0491 42.334886,42.33255 0 0 0 0.14367,0.150896 42.334886,42.33255 0 0 0 0.03826,0.03978 42.334886,42.33255 0 0 0 0.189132,0.195845 42.334886,42.33255 0 0 0 0.149354,0.152966 42.334886,42.33255 0 0 0 0.09457,0.09612 42.334886,42.33255 0 0 0 0.03721,0.03719 42.334886,42.33255 0 0 0 0.142099,0.143139 42.334886,42.33255 0 0 0 0.143173,0.142114 42.334886,42.33255 0 0 0 0.03719,0.03719 42.334886,42.33255 0 0 0 0.09614,0.09457 42.334886,42.33255 0 0 0 0.152966,0.149341 42.334886,42.33255 0 0 0 0.195864,0.189131 42.334886,42.33255 0 0 0 0.03978,0.03824 42.334886,42.33255 0 0 0 0.150898,0.143646 42.334886,42.33255 0 0 0 0.0491,0.04601 42.334886,42.33255 0 0 0 0.175698,0.165357 42.334886,42.33255 0 0 0 0.147284,0.136938 42.334886,42.33255 0 0 0 0.136966,0.126097 42.334886,42.33255 0 0 0 0.129711,0.118328 42.334886,42.33255 0 0 0 0.208774,0.188618 42.334886,42.33255 0 0 0 0.18138,0.162268 42.334886,42.33255 0 0 0 0.101298,0.08888 42.334886,42.33255 0 0 0 0.13178,0.116259 42.334886,42.33255 0 0 0 0.01655,0.01445 42.334886,42.33255 0 0 0 0.203092,0.175702 42.334886,42.33255 0 0 0 0.172084,0.147785 42.334886,42.33255 0 0 0 0.147808,0.125059 42.334886,42.33255 0 0 0 0.07079,0.05994 42.334886,42.33255 0 0 0 0.03774,0.03205 42.334886,42.33255 0 0 0 0.154511,0.128673 42.334886,42.33255 0 0 0 0.128166,0.105936 42.334886,42.33255 0 0 0 0.151422,0.124022 42.334886,42.33255 0 0 0 0.218595,0.177247 42.334886,42.33255 0 0 0 0.198953,0.15968 42.334886,42.33255 0 0 0 0.115256,0.09095 42.334886,42.33255 0 0 0 0.08061,0.06408 42.334886,42.33255 0 0 0 0.04549,0.03564 42.334886,42.33255 0 0 0 0.158649,0.123509 42.334886,42.33255 0 0 0 0.1416,0.10955 42.334886,42.33255 0 0 0 0.145216,0.111101 42.334886,42.33255 0 0 0 0.160194,0.12144 42.334886,42.33255 0 0 0 0.225298,0.168977 42.334886,42.33255 0 0 0 0.161242,0.119371 42.334886,42.33255 0 0 0 0.123505,0.09095 42.334886,42.33255 0 0 0 0.01655,0.01186 42.334886,42.33255 0 0 0 0.217574,0.158124 42.334886,42.33255 0 0 0 0.187615,0.13488 42.334886,42.33255 0 0 0 0.122456,0.08681 42.334886,42.33255 0 0 0 0.134869,0.09508 42.334886,42.33255 0 0 0 0.03462,0.02428 42.334886,42.33255 0 0 0 0.209822,0.145721 42.334886,42.33255 0 0 0 0.206733,0.142108 42.334886,42.33255 0 0 0 0.135891,0.0925 42.334886,42.33255 0 0 0 0.0765,0.0517 42.334886,42.33255 0 0 0 0.119367,0.0801 42.334886,42.33255 0 0 0 0.14058,0.09353 42.334886,42.33255 0 0 0 0.08734,0.05736 42.334886,42.33255 0 0 0 0.139007,0.09146 42.334886,42.33255 0 0 0 0.148305,0.09663 42.334886,42.33255 0 0 0 0.05633,0.03669 42.334886,42.33255 0 0 0 0.229961,0.147277 42.334886,42.33255 0 0 0 0.232581,0.146753 42.334886,42.33255 0 0 0 0.0083,0.0057 42.334886,42.33255 0 0 0 0.17054,0.105931 42.334886,42.33255 0 0 0 0.105407,0.06563 42.334886,42.33255 0 0 0 0.102318,0.06304 42.334886,42.33255 0 0 0 0.122483,0.07493 42.334886,42.33255 0 0 0 0.209299,0.126091 42.334886,42.33255 0 0 0 0.0088,0.0057 42.334886,42.33255 0 0 0 0.191726,0.114196 42.334886,42.33255 0 0 0 0.08218,0.04806 42.334886,42.33255 0 0 0 0.08215,0.04855 42.334886,42.33255 0 0 0 0.181932,0.105936 42.334886,42.33255 0 0 0 0.06356,0.03669 42.334886,42.33255 0 0 0 0.173105,0.09921 42.334886,42.33255 0 0 0 0.117849,0.06718 42.334886,42.33255 0 0 0 0.0904,0.0517 42.334886,42.33255 0 0 0 0.233105,0.130229 42.334886,42.33255 0 0 0 0.232029,0.127635 42.334886,42.33255 0 0 0 0.02317,0.01291 42.334886,42.33255 0 0 0 0.219616,0.119365 42.334886,42.33255 0 0 0 0.02676,0.01445 42.334886,42.33255 0 0 0 0.126594,0.0677 42.334886,42.33255 0 0 0 0.18505,0.09818 42.334886,42.33255 0 0 0 0.204635,0.107487 42.334886,42.33255 0 0 0 0.163285,0.08423 42.334886,42.33255 0 0 0 0.09611,0.0496 42.334886,42.33255 0 0 0 0.125105,0.06356 42.334886,42.33255 0 0 0 0.126069,0.06357 42.334886,42.33255 0 0 0 0.125601,0.06304 42.334886,42.33255 0 0 0 0.115725,0.05788 42.334886,42.33255 0 0 0 0.154512,0.07545 42.334886,42.33255 0 0 0 0.115256,0.05683 42.334886,42.33255 0 0 0 0.07807,0.03719 42.334886,42.33255 0 0 0 0.204636,0.0987 42.334886,42.33255 0 0 0 0.248554,0.117821 42.334886,42.33255 0 0 0 0.02262,0.01037 42.334886,42.33255 0 0 0 0.220692,0.102836 42.334886,42.33255 0 0 0 0.133822,0.06149 42.334886,42.33255 0 0 0 0.0739,0.0341 42.334886,42.33255 0 0 0 0.249105,0.112138 42.334886,42.33255 0 0 0 0.257353,0.114196 42.334886,42.33255 0 0 0 0.175698,0.07649 42.334886,42.33255 0 0 0 0.156056,0.06769 42.334886,42.33255 0 0 0 0.245464,0.104386 42.334886,42.33255 0 0 0 0.125077,0.05219 42.334886,42.33255 0 0 0 0.08941,0.03719 42.334886,42.33255 0 0 0 0.176717,0.07339 42.334886,42.33255 0 0 0 0.0853,0.03514 42.334886,42.33255 0 0 0 0.211339,0.08526 42.334886,42.33255 0 0 0 0.05426,0.02168 42.334886,42.33255 0 0 0 0.105463,0.04188 42.334886,42.33255 0 0 0 0.208746,0.08216 42.334886,42.33255 0 0 0 0.205685,0.07958 42.334886,42.33255 0 0 0 0.196884,0.07545 42.334886,42.33255 0 0 0 0.08116,0.03051 42.334886,42.33255 0 0 0 0.127118,0.04756 42.334886,42.33255 0 0 0 0.13385,0.05015 42.334886,42.33255 0 0 0 0.155534,0.05683 42.334886,42.33255 0 0 0 0.123007,0.04447 42.334886,42.33255 0 0 0 0.103862,0.03719 42.334886,42.33255 0 0 0 0.150927,0.05423 42.334886,42.33255 0 0 0 0.179834,0.06252 42.334886,42.33255 0 0 0 0.07288,0.02588 42.334886,42.33255 0 0 0 0.181355,0.062 42.334886,42.33255 0 0 0 0.08993,0.03101 42.334886,42.33255 0 0 0 0.134896,0.04546 42.334886,42.33255 0 0 0 0.146761,0.0491 42.334886,42.33255 0 0 0 0.149352,0.04855 42.334886,42.33255 0 0 0 0.101793,0.0336 42.334886,42.33255 0 0 0 0.204113,0.0651 42.334886,42.33255 0 0 0 0.06149,0.01964 42.334886,42.33255 0 0 0 0.140083,0.04447 42.334886,42.33255 0 0 0 0.131782,0.04132 42.334886,42.33255 0 0 0 0.204138,0.06201 42.334886,42.33255 0 0 0 0.07697,0.02323 42.334886,42.33255 0 0 0 0.08836,0.02687 42.334886,42.33255 0 0 0 0.175751,0.05269 42.334886,42.33255 0 0 0 0.464058,0.133843 42.334886,42.33255 0 0 0 0.08681,0.02428 42.334886,42.33255 0 0 0 0.111617,0.03101 42.334886,42.33255 0 0 0 0.151945,0.04237 42.334886,42.33255 0 0 0 0.17934,0.04805 42.334886,42.33255 0 0 0 0.08524,0.02328 42.334886,42.33255 0 0 0 0.127117,0.03305 42.334886,42.33255 0 0 0 0.161765,0.04237 42.334886,42.33255 0 0 0 0.139562,0.03619 42.334886,42.33255 0 0 0 0.131752,0.03305 42.334886,42.33255 0 0 0 0.102317,0.02588 42.334886,42.33255 0 0 0 0.165906,0.04083 42.334886,42.33255 0 0 0 0.141103,0.0341 42.334886,42.33255 0 0 0 0.150872,0.03619 42.334886,42.33255 0 0 0 0.06201,0.01501 42.334886,42.33255 0 0 0 0.223255,0.05219 42.334886,42.33255 0 0 0 0.03048,0.0067 42.334886,42.33255 0 0 0 0.216003,0.0496 42.334886,42.33255 0 0 0 0.194344,0.04237 42.334886,42.33255 0 0 0 0.07184,0.0155 42.334886,42.33255 0 0 0 0.102317,0.02223 42.334886,42.33255 0 0 0 0.175697,0.03774 42.334886,42.33255 0 0 0 0.217051,0.04497 42.334886,42.33255 0 0 0 0.0336,0.0067 42.334886,42.33255 0 0 0 0.218071,0.04392 42.334886,42.33255 0 0 0 0.07131,0.0139 42.334886,42.33255 0 0 0 0.146758,0.02841 42.334886,42.33255 0 0 0 0.145214,0.02792 42.334886,42.33255 0 0 0 0.165382,0.03101 42.334886,42.33255 0 0 0 0.09561,0.01754 42.334886,42.33255 0 0 0 0.220637,0.03978 42.334886,42.33255 0 0 0 0.0491,0.0082 42.334886,42.33255 0 0 0 0.169489,0.02996 42.334886,42.33255 0 0 0 0.140086,0.02372 42.334886,42.33255 0 0 0 0.109545,0.0181 42.334886,42.33255 0 0 0 0.144193,0.02428 42.334886,42.33255 0 0 0 0.241823,0.03824 42.334886,42.33255 0 0 0 0.02179,0.0033 42.334886,42.33255 0 0 0 0.108552,0.01699 42.334886,42.33255 0 0 0 0.238734,0.03564 42.334886,42.33255 0 0 0 0.225296,0.03255 42.334886,42.33255 0 0 0 0.212417,0.02946 42.334886,42.33255 0 0 0 0.0584,0.0082 42.334886,42.33255 0 0 0 0.126097,0.01655 42.334886,42.33255 0 0 0 0.213933,0.02792 42.334886,42.33255 0 0 0 0.226869,0.02792 42.334886,42.33255 0 0 0 0.10541,0.01291 42.334886,42.33255 0 0 0 0.226896,0.02632 42.334886,42.33255 0 0 0 0.216527,0.02378 42.334886,42.33255 0 0 0 0.2589,0.02737 42.334886,42.33255 0 0 0 0.0041,5.52e-4 42.334886,42.33255 0 0 0 0.0028,0 42.334886,42.33255 0 0 0 0.156083,0.0155 42.334886,42.33255 0 0 0 0.202041,0.01964 42.334886,42.33255 0 0 0 0.280086,0.02532 42.334886,42.33255 0 0 0 0.280637,0.02328 42.334886,42.33255 0 0 0 0.28061,0.02168 42.334886,42.33255 0 0 0 0.279586,0.01964 42.334886,42.33255 0 0 0 0.0036,0 42.334886,42.33255 0 0 0 0.278541,0.01755 42.334886,42.33255 0 0 0 0.278541,0.01605 42.334886,42.33255 0 0 0 0.0028,0 42.334886,42.33255 0 0 0 0.0061,5.52e-4 42.334886,42.33255 0 0 0 0.259945,0.01291 42.334886,42.33255 0 0 0 0.0149,5.52e-4 42.334886,42.33255 0 0 0 0.201023,0.0088 42.334886,42.33255 0 0 0 0.281134,0.01081 42.334886,42.33255 0 0 0 0.198455,0.0067 42.334886,42.33255 0 0 0 0.137465,0.0044 42.334886,42.33255 0 0 0 0.02593,5.52e-4 42.334886,42.33255 0 0 0 0.201021,0.0044 42.334886,42.33255 0 0 0 0.201051,0.0039 42.334886,42.33255 0 0 0 0.134344,0.0022 42.334886,42.33255 0 0 0 0.106456,0.0011 42.334886,42.33255 0 0 0 0.241851,0.0022 42.334886,42.33255 0 0 0 0.240662,0.0011 42.334886,42.33255 0 0 0 0.240803,-0.0011 42.334886,42.33255 0 0 0 0.04083,0 42.334886,42.33255 0 0 0 0.201024,-0.0022 42.334886,42.33255 0 0 0 0.106455,-0.0011 42.334886,42.33255 0 0 0 0.134372,-0.0022 42.334886,42.33255 0 0 0 0.201024,-0.0039 42.334886,42.33255 0 0 0 0.226869,-0.005 42.334886,42.33255 0 0 0 0.137437,-0.0044 42.334886,42.33255 0 0 0 0.198483,-0.0067 42.334886,42.33255 0 0 0 0.281106,-0.01081 42.334886,42.33255 0 0 0 0.216027,-0.0093 42.334886,42.33255 0 0 0 0.259948,-0.01291 42.334886,42.33255 0 0 0 0.0061,-5.52e-4 42.334886,42.33255 0 0 0 0.0028,0 42.334886,42.33255 0 0 0 0.278568,-0.016 42.334886,42.33255 0 0 0 0.278541,-0.01755 42.334886,42.33255 0 0 0 0.0028,0 42.334886,42.33255 0 0 0 0.279586,-0.01964 42.334886,42.33255 0 0 0 0.178789,-0.01341 42.334886,42.33255 0 0 0 0.169518,-0.01346 42.334886,42.33255 0 0 0 0.01241,-0.0011 42.334886,42.33255 0 0 0 0.200527,-0.0171 42.334886,42.33255 0 0 0 0.280083,-0.02532 42.334886,42.33255 0 0 0 0.202072,-0.01964 42.334886,42.33255 0 0 0 0.156083,-0.0155 42.334886,42.33255 0 0 0 0.0028,0 42.334886,42.33255 0 0 0 0.0041,-5.52e-4 42.334886,42.33255 0 0 0 0.258899,-0.02742 42.334886,42.33255 0 0 0 0.216527,-0.02372 42.334886,42.33255 0 0 0 0.226867,-0.02632 42.334886,42.33255 0 0 0 0.105437,-0.01291 42.334886,42.33255 0 0 0 0.226872,-0.02792 42.334886,42.33255 0 0 0 0.213933,-0.02792 42.334886,42.33255 0 0 0 0.126097,-0.0165 42.334886,42.33255 0 0 0 0.0584,-0.0082 42.334886,42.33255 0 0 0 0.212392,-0.02946 42.334886,42.33255 0 0 0 0.225324,-0.03255 42.334886,42.33255 0 0 0 0.238761,-0.03564 42.334886,42.33255 0 0 0 0.108524,-0.01705 42.334886,42.33255 0 0 0 0.02179,-0.0033 42.334886,42.33255 0 0 0 0.241851,-0.03824 42.334886,42.33255 0 0 0 0.144162,-0.02428 42.334886,42.33255 0 0 0 0.109576,-0.0181 42.334886,42.33255 0 0 0 0.140058,-0.02372 42.334886,42.33255 0 0 0 0.169489,-0.02996 42.334886,42.33255 0 0 0 0.0491,-0.0082 42.334886,42.33255 0 0 0 0.220664,-0.03978 42.334886,42.33255 0 0 0 0.09561,-0.01754 42.334886,42.33255 0 0 0 0.165352,-0.03101 42.334886,42.33255 0 0 0 0.145244,-0.02792 42.334886,42.33255 0 0 0 0.146759,-0.02841 42.334886,42.33255 0 0 0 0.07131,-0.0139 42.334886,42.33255 0 0 0 0.218072,-0.04392 42.334886,42.33255 0 0 0 0.0336,-0.0067 42.334886,42.33255 0 0 0 0.217054,-0.04497 42.334886,42.33255 0 0 0 0.175724,-0.03774 42.334886,42.33255 0 0 0 0.102317,-0.02223 42.334886,42.33255 0 0 0 0.0718,-0.0155 42.334886,42.33255 0 0 0 0.194323,-0.04237 42.334886,42.33255 0 0 0 0.183476,-0.04188 42.334886,42.33255 0 0 0 0.119892,-0.02792 42.334886,42.33255 0 0 0 0.01848,-0.0044 42.334886,42.33255 0 0 0 0.267696,-0.06305 42.334886,42.33255 0 0 0 0.195338,-0.04701 42.334886,42.33255 0 0 0 0.03877,-0.0098 42.334886,42.33255 0 0 0 0.165903,-0.04083 42.334886,42.33255 0 0 0 0.10232,-0.02588 42.334886,42.33255 0 0 0 0.131752,-0.0331 42.334886,42.33255 0 0 0 0.139558,-0.03619 42.334886,42.33255 0 0 0 0.161769,-0.04237 42.334886,42.33255 0 0 0 0.127117,-0.03305 42.334886,42.33255 0 0 0 0.08524,-0.02328 42.334886,42.33255 0 0 0 0.179338,-0.04806 42.334886,42.33255 0 0 0 0.151948,-0.04237 42.334886,42.33255 0 0 0 0.111611,-0.03101 42.334886,42.33255 0 0 0 0.08682,-0.02428 42.334886,42.33255 0 0 0 0.464086,-0.133854 42.334886,42.33255 0 0 0 0.175724,-0.05269 42.334886,42.33255 0 0 0 0.08836,-0.02687 42.334886,42.33255 0 0 0 0.07697,-0.02328 42.334886,42.33255 0 0 0 0.204138,-0.06201 42.334886,42.33255 0 0 0 0.131782,-0.04132 42.334886,42.33255 0 0 0 0.140082,-0.04441 42.334886,42.33255 0 0 0 0.06149,-0.01964 42.334886,42.33255 0 0 0 0.204116,-0.0651 42.334886,42.33255 0 0 0 0.101793,-0.0336 42.334886,42.33255 0 0 0 0.149352,-0.04855 42.334886,42.33255 0 0 0 0.146786,-0.0491 42.334886,42.33255 0 0 0 0.134869,-0.04546 42.334886,42.33255 0 0 0 0.08993,-0.03101 42.334886,42.33255 0 0 0 0.181385,-0.06201 42.334886,42.33255 0 0 0 0.07286,-0.02582 42.334886,42.33255 0 0 0 0.179835,-0.06254 42.334886,42.33255 0 0 0 0.150924,-0.05423 42.334886,42.33255 0 0 0 0.103862,-0.03719 42.334886,42.33255 0 0 0 0.123007,-0.04447 42.334886,42.33255 0 0 0 0.155537,-0.05683 42.334886,42.33255 0 0 0 0.133848,-0.05015 42.334886,42.33255 0 0 0 0.127145,-0.04756 42.334886,42.33255 0 0 0 0.08113,-0.03051 42.334886,42.33255 0 0 0 0.214951,-0.08217 42.334886,42.33255 0 0 0 0.240828,-0.09353 42.334886,42.33255 0 0 0 0.02179,-0.0082 42.334886,42.33255 0 0 0 0.235697,-0.09353 42.334886,42.33255 0 0 0 0.06872,-0.02792 42.334886,42.33255 0 0 0 0.09716,-0.03873 V 56.332749 A 21.167445,21.166275 0 0 1 42.334936,63.499243 21.167445,21.166275 0 0 1 21.167478,42.332965 21.167445,21.166275 0 0 1 42.334936,21.166687 21.167445,21.166275 0 0 1 58.210523,28.332526 V 3.0895629 a 42.334886,42.33255 0 0 0 -0.21498,-0.086295 42.334886,42.33255 0 0 0 -0.04651,-0.018593 42.334886,42.33255 0 0 0 -0.214985,-0.084235 42.334886,42.33255 0 0 0 -0.254786,-0.098701 42.334886,42.33255 0 0 0 -0.0077,-0.00309 42.334886,42.33255 0 0 0 -0.04706,-0.018097 42.334886,42.33255 0 0 0 -0.216524,-0.081647 42.334886,42.33255 0 0 0 -0.04651,-0.017544 42.334886,42.33255 0 0 0 -0.217054,-0.080615 42.334886,42.33255 0 0 0 -0.04706,-0.017021 42.334886,42.33255 0 0 0 -0.217572,-0.079065 42.334886,42.33255 0 0 0 -0.04701,-0.017021 42.334886,42.33255 0 0 0 -0.218096,-0.077512 42.334886,42.33255 0 0 0 -0.04706,-0.016552 42.334886,42.33255 0 0 0 -0.218593,-0.075964 42.334886,42.33255 0 0 0 -0.22582,-0.077515 42.334886,42.33255 0 0 0 -0.04028,-0.013434 42.334886,42.33255 0 0 0 -0.04756,-0.015999 42.334886,42.33255 0 0 0 -0.219647,-0.073379 42.334886,42.33255 0 0 0 -0.04756,-0.015503 42.334886,42.33255 0 0 0 -0.267697,-0.08682 42.334886,42.33255 0 0 0 -0.119868,-0.038237 42.334886,42.33255 0 0 0 -0.100245,-0.032039 42.334886,42.33255 0 0 0 -0.161768,-0.050643 42.334886,42.33255 0 0 0 -0.155035,-0.048058 42.334886,42.33255 0 0 0 -0.221189,-0.067175 42.334886,42.33255 0 0 0 -0.04806,-0.014483 42.334886,42.33255 0 0 0 -0.22171,-0.066146 42.334886,42.33255 0 0 0 -0.04806,-0.01393 42.334886,42.33255 0 0 0 -0.270293,-0.07803 42.334886,42.33255 0 0 0 -0.222706,-0.063043 42.334886,42.33255 0 0 0 -0.04808,-0.013462 42.334886,42.33255 0 0 0 -0.223255,-0.061493 42.334886,42.33255 0 0 0 -0.04805,-0.01291 42.334886,42.33255 0 0 0 -0.223755,-0.059945 42.334886,42.33255 0 0 0 -0.224306,-0.05891 42.334886,42.33255 0 0 0 -0.04805,-0.012386 42.334886,42.33255 0 0 0 -0.04805,-0.012414 42.334886,42.33255 0 0 0 -0.2248,-0.056841 42.334886,42.33255 0 0 0 -0.251148,-0.062011 42.334886,42.33255 0 0 0 -0.02179,-0.00568 42.334886,42.33255 0 0 0 -0.04855,-0.011862 42.334886,42.33255 0 0 0 -0.225271,-0.053741 42.334886,42.33255 0 0 0 -0.273879,-0.06408 42.334886,42.33255 0 0 0 -0.04858,-0.011365 A 42.334886,42.33255 0 0 0 51.54814,1.0149179 42.334886,42.33255 0 0 0 51.49901,1.0040769 42.334886,42.33255 0 0 0 51.273186,0.9549817 42.334886,42.33255 0 0 0 51.1192,0.9219113 42.334886,42.33255 0 0 0 50.949184,0.8862561 42.334886,42.33255 0 0 0 50.722287,0.8397485 a 42.334886,42.33255 0 0 0 -0.04908,-0.00982 42.334886,42.33255 0 0 0 -0.226871,-0.04496 42.334886,42.33255 0 0 0 -0.245465,-0.0470234 42.334886,42.33255 0 0 0 -0.03101,-0.006179 42.334886,42.33255 0 0 0 -0.0491,-0.009297 42.334886,42.33255 0 0 0 -0.227889,-0.0418593 42.334886,42.33255 0 0 0 -0.04911,-0.008772 42.334886,42.33255 0 0 0 -0.22789,-0.0403062 42.334886,42.33255 0 0 0 -0.250127,-0.042891 42.334886,42.33255 0 0 0 -0.02731,-0.004662 42.334886,42.33255 0 0 0 -0.0491,-0.008248 42.334886,42.33255 0 0 0 -0.06096,-0.00982 42.334886,42.33255 0 0 0 -0.216527,-0.035658 42.334886,42.33255 0 0 0 -0.228414,-0.0356552 42.334886,42.33255 0 0 0 -0.0496,-0.007752 42.334886,42.33255 0 0 0 -0.228965,-0.0341076 42.334886,42.33255 0 0 0 -0.04908,-0.007227 42.334886,42.33255 0 0 0 -0.229465,-0.0330731 42.334886,42.33255 0 0 0 -0.0491,-0.006703 42.334886,42.33255 0 0 0 -0.229435,-0.0315201 42.334886,42.33255 0 0 0 -0.0496,-0.006703 A 42.334886,42.33255 0 0 0 47.668724,0.338055 42.334886,42.33255 0 0 0 47.389135,0.3034343 42.334886,42.33255 0 0 0 47.110073,0.270877 42.334886,42.33255 0 0 0 47.060473,0.265194 42.334886,42.33255 0 0 0 46.830515,0.2398699 42.334886,42.33255 0 0 0 46.780885,0.2347109 42.334886,42.33255 0 0 0 46.550399,0.2109591 42.334886,42.33255 0 0 0 46.27961,0.1851108 42.334886,42.33255 0 0 0 46.27021,0.1840078 42.334886,42.33255 0 0 0 46.22061,0.1793458 42.334886,42.33255 0 0 0 45.990127,0.1586837 42.334886,42.33255 0 0 0 45.70949,0.1354285 42.334886,42.33255 0 0 0 45.498646,0.1188767 42.334886,42.33255 0 0 0 45.428876,0.1137177 42.334886,42.33255 0 0 0 45.379276,0.1101037 42.334886,42.33255 0 0 0 45.305396,0.1049447 42.334886,42.33255 0 0 0 45.098103,0.09101062 42.334886,42.33255 0 0 0 44.867124,0.07652786 42.334886,42.33255 0 0 0 44.817524,0.07343821 42.334886,42.33255 0 0 0 44.586542,0.0605278 42.334886,42.33255 0 0 0 44.536418,0.05776918 42.334886,42.33255 0 0 0 44.30538,0.04640355 42.334886,42.33255 0 0 0 44.052663,0.035038 42.334886,42.33255 0 0 0 44.024249,0.03393455 42.334886,42.33255 0 0 0 43.974125,0.0317276 42.334886,42.33255 0 0 0 43.742619,0.02347931 42.334886,42.33255 0 0 0 43.692991,0.02182414 42.334886,42.33255 0 0 0 43.461458,0.01512069 42.334886,42.33255 0 0 0 43.219637,0.00943792 42.334886,42.33255 0 0 0 43.180354,0.00833447 42.334886,42.33255 0 0 0 43.130224,0.00723102 42.334886,42.33255 0 0 0 42.898693,0.00361175 42.334886,42.33255 0 0 0 42.848569,0.00306001 42.334886,42.33255 0 0 0 42.61756,8.531111e-4 42.334886,42.33255 0 0 0 42.335957,2.5527707e-5 a 42.334886,42.33255 0 0 0 -0.08064,0 z M 63.499207,5.6723037 V 34.924762 l 10.583741,2.116621 -10.583741,5.291574 10.583741,5.291569 -10.583741,2.116624 V 78.993605 A 42.334886,42.33255 0 0 0 84.666667,42.332957 42.334886,42.33255 0 0 0 63.499207,5.6723037 Z M 50.26444,31.749818 a 2.6459306,2.6457846 0 0 0 -2.640792,2.645783 2.6459306,2.6457846 0 0 0 2.64595,2.645782 2.6459306,2.6457846 0 0 0 2.645893,-2.645782 2.6459306,2.6457846 0 0 0 -2.645893,-2.645783 2.6459306,2.6457846 0 0 0 -0.005,0 z" />
  </g>
</svg>
