<?xml version="1.0" encoding="UTF-8" standalone="no"?>
<svg
   xmlns:dc="http://purl.org/dc/elements/1.1/"
   xmlns:cc="http://creativecommons.org/ns#"
   xmlns:rdf="http://www.w3.org/1999/02/22-rdf-syntax-ns#"
   xmlns:svg="http://www.w3.org/2000/svg"
   xmlns="http://www.w3.org/2000/svg"
   xmlns:sodipodi="http://sodipodi.sourceforge.net/DTD/sodipodi-0.dtd"
   xmlns:inkscape="http://www.inkscape.org/namespaces/inkscape"
   inkscape:export-ydpi="120"
   inkscape:export-xdpi="120"
   inkscape:export-filename="D:\Travail\Autoformation\Projets\Chirper\app\chirper-frontend\src\assets\userPictures\default.png"
   width="320"
   height="320"
   viewBox="0 0 84.666665 84.666669"
   version="1.1"
   id="svg1573"
   inkscape:version="1.0 (4035a4fb49, 2020-05-01)"
   sodipodi:docname="default.svg">
  <defs
     id="defs1567" />
  <sodipodi:namedview
     id="base"
     pagecolor="#7f7f7f"
     bordercolor="#666666"
     borderopacity="1.0"
     inkscape:pageopacity="0"
     inkscape:pageshadow="2"
     inkscape:zoom="2.8"
     inkscape:cx="100.75156"
     inkscape:cy="179.94113"
     inkscape:document-units="px"
     inkscape:current-layer="layer1"
     inkscape:document-rotation="0"
     showgrid="true"
     units="px"
     inkscape:window-width="2560"
     inkscape:window-height="1387"
     inkscape:window-x="-8"
     inkscape:window-y="162"
     inkscape:window-maximized="1">
    <inkscape:grid
       id="grid1457"
       type="xygrid" />
  </sodipodi:namedview>
  <metadata
     id="metadata1570">
    <rdf:RDF>
      <cc:Work
         rdf:about="">
        <dc:format>image/svg+xml</dc:format>
        <dc:type
           rdf:resource="http://purl.org/dc/dcmitype/StillImage" />
        <dc:title></dc:title>
      </cc:Work>
    </rdf:RDF>
  </metadata>
  <g
     inkscape:label="Calque 1"
     inkscape:groupmode="layer"
     id="layer1">
    <rect
       y="2.6458335"
       x="2.6458333"
       height="79.375008"
       width="79.375"
       id="rect1476"
       style="opacity:1;fill:#00df77;fill-opacity:1;stroke:none;stroke-width:1.05833;stroke-linecap:round;stroke-linejoin:round;stop-color:#000000" />
    <path
       id="path835-3-7"
       style="fill:#878988;fill-opacity:1;stroke:none;stroke-width:0.370417;stroke-linecap:square;stroke-linejoin:bevel;stroke-opacity:1;stop-color:#000000"
       d="m 0,0 v 42.333333 a 42.333328,42.333328 0 0 0 0,5.3e-4 42.334887,42.33255 0 0 0 0,5.29e-4 42.334887,42.33255 0 0 0 0,0.0062 v 42.326075 h 42.252718 0.09819 42.31576 V 42.480093 a 42.334887,42.33255 0 0 0 0,-0.06614 42.333328,42.333328 0 0 0 0,-0.08062 42.333328,42.333328 0 0 0 0,-5.29e-4 V 1e-6 H 42.413952 42.25272 Z m 42.317832,21.166666 a 21.166665,21.166665 0 0 1 0.0155,0 21.167445,21.166275 0 0 1 0.0016,0 21.166665,21.166665 0 0 1 0.197403,0.001 21.167445,21.166275 0 0 1 0.0016,0 21.166665,21.166665 0 0 1 0.197408,0.0026 21.167445,21.166275 0 0 1 0.0016,0 21.166665,21.166665 0 0 1 0.197403,0.0046 21.167445,21.166275 0 0 1 0.0016,0 21.166665,21.166665 0 0 1 0.197403,0.0067 21.167445,21.166275 0 0 1 0.0016,0 21.166665,21.166665 0 0 1 0.197405,0.0083 21.167445,21.166275 0 0 1 0.0016,0 21.166665,21.166665 0 0 1 0.19689,0.01034 21.167445,21.166275 0 0 1 0.0016,0 21.166665,21.166665 0 0 1 0.197406,0.0124 21.167445,21.166275 0 0 1 0.0016,0 21.166665,21.166665 0 0 1 0.196885,0.01395 21.167445,21.166275 0 0 1 0.0016,0 21.166665,21.166665 0 0 1 0.196887,0.01602 21.167445,21.166275 0 0 1 0.0016,0 21.166665,21.166665 0 0 1 0.196371,0.01757 21.167445,21.166275 0 0 1 0.0016,0 21.166665,21.166665 0 0 1 0.196371,0.01964 21.167445,21.166275 0 0 1 0.0021,0 21.166665,21.166665 0 0 1 0.195855,0.02119 21.167445,21.166275 0 0 1 0.0016,0 21.166665,21.166665 0 0 1 0.196371,0.02377 21.167445,21.166275 0 0 1 0.0016,0 21.166665,21.166665 0 0 1 0.195853,0.02481 21.167445,21.166275 0 0 1 0.0016,0 21.166665,21.166665 0 0 1 0.195334,0.02739 21.167445,21.166275 0 0 1 0.0016,0 21.166665,21.166665 0 0 1 0.392223,0.05943 21.167445,21.166275 0 0 1 0.0016,0 21.166665,21.166665 0 0 1 0.39067,0.06718 21.167445,21.166275 0 0 1 0.0016,0 21.166665,21.166665 0 0 1 15.954065,13.131499 l 1.449007,0.289904 2.315623,0.463019 8.26771,1.653645 -10.583333,5.291151 10.583333,5.291667 -10.583333,2.116667 v 5.29e-4 l -1.449007,0.289904 a 21.166665,21.166665 0 0 1 -14.887463,12.909806 21.167445,21.166275 0 0 1 -0.05012,0.01188 21.166665,21.166665 0 0 1 -0.04341,0.0098 21.167445,21.166275 0 0 1 -0.150897,0.03411 21.166665,21.166665 0 0 1 -0.143655,0.03152 21.167445,21.166275 0 0 1 -0.05064,0.01085 21.166665,21.166665 0 0 1 -0.144176,0.02997 21.167445,21.166275 0 0 1 -0.05064,0.01032 21.166665,21.166665 0 0 1 -0.14469,0.02894 21.167445,21.166275 0 0 1 -0.05064,0.0098 21.166665,21.166665 0 0 1 -0.144693,0.02739 21.167445,21.166275 0 0 1 -0.05064,0.0093 21.166665,21.166665 0 0 1 -0.145208,0.02585 21.167445,21.166275 0 0 1 -0.05116,0.0088 21.166665,21.166665 0 0 1 -0.145212,0.02482 21.167445,21.166275 0 0 1 -0.05064,0.0083 21.166665,21.166665 0 0 1 -0.04548,0.0072 21.167445,21.166275 0 0 1 -0.545185,0.08062 21.166665,21.166665 0 0 1 -0.0016,0 21.167445,21.166275 0 0 1 -2.81895,0.188619 21.167445,21.166275 0 0 1 -21.167184,-21.166664 21.167445,21.166275 0 0 1 1.134815,-6.839376 21.166665,21.166665 0 0 1 5.29e-4,-5.29e-4 21.167445,21.166275 0 0 1 0.569991,-1.485178 21.166665,21.166665 0 0 1 5.29e-4,-5.29e-4 21.167445,21.166275 0 0 1 0.680062,-1.438156 21.166665,21.166665 0 0 1 5.29e-4,-5.29e-4 21.167445,21.166275 0 0 1 3.877281,-5.266862 21.166665,21.166665 0 0 1 5.29e-4,0 21.167445,21.166275 0 0 1 0.284737,-0.277503 21.166665,21.166665 0 0 1 5.29e-4,0 21.167445,21.166275 0 0 1 7.950936,-4.780587 21.166665,21.166665 0 0 1 0.189137,-0.0615 21.167445,21.166275 0 0 1 0.569989,-0.174666 21.166665,21.166665 0 0 1 0.192239,-0.05478 21.167445,21.166275 0 0 1 0.576191,-0.152963 21.166665,21.166665 0 0 1 0.194305,-0.04754 21.167445,21.166275 0 0 1 0.581358,-0.131258 21.166665,21.166665 0 0 1 4.346506,-0.454236 z M 50.264632,31.75 a 2.6459307,2.6457846 0 0 0 -2.641182,2.645833 2.6459307,2.6457846 0 0 0 2.646349,2.645315 2.6459307,2.6457846 0 0 0 2.645833,-2.645315 2.6459307,2.6457846 0 0 0 -2.645833,-2.645833 2.6459307,2.6457846 0 0 0 -0.0052,0 z" />
  </g>
</svg>
